<svg width="40" height="40" viewBox="0 0 40 40" fill="none" xmlns="http://www.w3.org/2000/svg">
<path d="M39 36C39 37.65 37.65 39 36 39H25V40H36C38.21 40 40 38.21 40 36V26H39V36ZM36 0H25V1H36C37.65 1 39 2.35 39 4V16H40V4C40 1.79 38.21 0 36 0ZM1 36V26H0V36C0 38.21 1.79 40 4 40H15V39H4C2.35 39 1 37.65 1 36ZM0 4V16H1V4C1 2.35 2.35 1 4 1H15V0H4C1.79 0 0 1.79 0 4Z" />
<path fill-rule="evenodd" clip-rule="evenodd" d="M10 19.0909C10 24.1016 14.0803 28.1818 19.0909 28.1818C20.4297 28.1818 21.701 27.8906 22.8445 27.3686C22.7663 27.0277 22.7273 26.6868 22.7273 26.3636V25.3942C21.6584 26.0121 20.4155 26.3636 19.0909 26.3636C15.0639 26.3636 11.8182 23.1179 11.8182 19.0909C11.8182 15.0639 15.0639 11.8182 19.0909 11.8182C22.4964 11.8182 25.3409 14.1371 26.1399 17.2869C26.2145 17.2763 26.2891 17.2727 26.3636 17.2727H27.9972C27.152 13.1286 23.4801 10 19.0909 10C14.0803 10 10 14.0803 10 19.0909ZM20 18.7145V13.6364H18.1818V19.4673L22.0845 23.37L22.7273 22.7273L23.1818 22.2727L20 18.7145ZM28.1818 28.9098C29.4531 28.544 30 27.2727 30 26.3636C30 24.6695 28.597 24.1114 27.6855 23.7488C27.6685 23.7421 27.6516 23.7353 27.6349 23.7287C26.5447 23.2741 26.3636 23.1818 26.3636 22.7273C26.3636 21.9993 26.8182 21.8182 27.2727 21.8182C28.0007 21.8182 28.1818 22.2727 28.1818 22.7273H30C30 21.8182 29.4531 20.5469 28.1818 20.1811V19.0909H26.3636V20.1811C25.4545 20.4545 24.5455 21.2713 24.5455 22.7273C24.5455 24.4214 25.9485 24.9795 26.8599 25.3421C26.877 25.3489 26.8938 25.3556 26.9105 25.3622C28.0007 25.8168 28.1818 25.9091 28.1818 26.3636C28.1818 26.8182 28.0007 27.2727 27.2727 27.2727C26.5447 27.2727 26.3636 26.8182 26.3636 26.3636H24.5455C24.5455 27.2727 25.0923 28.544 26.3636 28.9098V30H28.1818V28.9098Z" />
</svg>
