<svg width="20" height="20" viewBox="0 0 20 20" fill="none" xmlns="http://www.w3.org/2000/svg">
<path d="M20 10C20 4.482 15.518 5.34473e-08 10 1.19249e-07C4.482 1.8505e-07 5.34473e-08 4.482 1.19249e-07 10C1.8505e-07 15.518 4.482 20 10 20C15.518 20 20 15.518 20 10ZM19.1304 10C19.1304 15.0476 15.0476 19.1304 10 19.1304C4.95245 19.1304 0.869566 15.0476 0.869566 10C0.869566 4.95245 4.95245 0.869565 10 0.869565C15.0476 0.869565 19.1304 4.95245 19.1304 10ZM13.913 8.20652C13.9029 8.10971 13.8587 8.018 13.7908 7.94837L10.3668 4.53804L10.3533 4.49728C10.3448 4.48709 10.3363 4.4786 10.3261 4.47011L10.3125 4.47011C10.304 4.45992 10.2955 4.45143 10.2853 4.44293C10.2768 4.43274 10.2683 4.42425 10.2582 4.41576C10.2531 4.41576 10.2497 4.41576 10.2446 4.41576C10.2361 4.40557 10.2276 4.39708 10.2174 4.38859C10.2123 4.38859 10.2089 4.38859 10.2038 4.38859C10.1579 4.36141 10.107 4.34273 10.0543 4.33424C10.0493 4.33424 10.0459 4.33424 10.0408 4.33424C10.0272 4.33424 10.0136 4.33424 10 4.33424C9.99151 4.33424 9.98132 4.33424 9.97283 4.33424C9.96773 4.33424 9.96433 4.33424 9.95924 4.33424C9.9015 4.34103 9.84715 4.35971 9.7962 4.38859C9.7877 4.39198 9.77751 4.39708 9.76902 4.40217C9.76393 4.40727 9.76053 4.41067 9.75544 4.41576C9.74694 4.41916 9.73675 4.42425 9.72826 4.42935C9.72317 4.43444 9.71977 4.43784 9.71467 4.44293C9.70958 4.44803 9.70618 4.45143 9.70109 4.45652C9.69599 4.46162 9.6926 4.46501 9.6875 4.47011C9.66202 4.49389 9.63825 4.52106 9.61957 4.55163L6.20924 7.94837C6.03601 8.1216 6.03601 8.40014 6.20924 8.57337C6.38247 8.7466 6.66101 8.7466 6.83424 8.57337L9.56522 5.84239L9.56522 15.2174C9.56352 15.3736 9.64504 15.5197 9.78091 15.5995C9.91678 15.6776 10.0832 15.6776 10.2191 15.5995C10.355 15.5197 10.4365 15.3736 10.4348 15.2174L10.4348 5.84239L13.1658 8.57337C13.2965 8.71433 13.5037 8.7517 13.6753 8.66678C13.8485 8.58356 13.9436 8.39504 13.913 8.20652Z" fill="#98AFBC"/>
</svg>
