<?xml version="1.0" encoding="utf-8"?>
<!-- Generator: Adobe Illustrator 24.0.1, SVG Export Plug-In . SVG Version: 6.00 Build 0)  -->
<svg version="1.1" id="Camada_1" xmlns="http://www.w3.org/2000/svg" xmlns:xlink="http://www.w3.org/1999/xlink" x="0px" y="0px"
	 viewBox="0 0 24 24" style="enable-background:new 0 0 24 24;" xml:space="preserve" fill="none">
<path class="st0" d="M22.1,12.1c0,5.5-4.5,10-10,10c-5.5,0-10-4.5-10-10c0-5.5,4.5-10,10-10C17.6,2.1,22.1,6.5,22.1,12.1z
	 M24.1,12.1c0,6.6-5.4,12-12,12c-6.6,0-12-5.4-12-12c0-6.6,5.4-12,12-12C18.7,0.1,24.1,5.4,24.1,12.1z M11.4,17.3l4.3-4.3H6.1
	c-0.6,0-1-0.4-1-1s0.4-1,1-1h9.6l-4.3-4.3c-0.4-0.4-0.4-1,0-1.4c0.4-0.4,1-0.4,1.4,0l6,6c0.4,0.4,0.4,1,0,1.4c0,0,0,0,0,0l-6,6
	c-0.4,0.4-1,0.4-1.4,0C11,18.4,11,17.7,11.4,17.3z"/>
</svg>
