<svg width="20" height="20" viewBox="0 0 20 20" fill="none" xmlns="http://www.w3.org/2000/svg">
<path d="M10 20C15.518 20 20 15.518 20 10C20 4.482 15.518 -3.91829e-07 10 -8.74228e-07C4.482 -1.35663e-06 1.35663e-06 4.482 8.74228e-07 10C3.91829e-07 15.518 4.482 20 10 20ZM10 19.1304C4.95245 19.1304 0.869566 15.0476 0.869567 10C0.869567 4.95244 4.95245 0.869565 10 0.869565C15.0476 0.869566 19.1304 4.95245 19.1304 10C19.1304 15.0476 15.0476 19.1304 10 19.1304ZM11.7935 13.913C11.8903 13.9029 11.982 13.8587 12.0516 13.7908L15.462 10.3668L15.5027 10.3533C15.5129 10.3448 15.5214 10.3363 15.5299 10.3261L15.5299 10.3125C15.5401 10.304 15.5486 10.2955 15.5571 10.2853C15.5673 10.2768 15.5757 10.2683 15.5842 10.2582C15.5842 10.2531 15.5842 10.2497 15.5842 10.2446C15.5944 10.2361 15.6029 10.2276 15.6114 10.2174C15.6114 10.2123 15.6114 10.2089 15.6114 10.2038C15.6386 10.1579 15.6573 10.107 15.6658 10.0543C15.6658 10.0493 15.6658 10.0459 15.6658 10.0408C15.6658 10.0272 15.6658 10.0136 15.6658 10C15.6658 9.99151 15.6658 9.98132 15.6658 9.97283C15.6658 9.96773 15.6658 9.96433 15.6658 9.95924C15.659 9.90149 15.6403 9.84715 15.6114 9.7962C15.608 9.7877 15.6029 9.77751 15.5978 9.76902C15.5927 9.76393 15.5893 9.76053 15.5842 9.75543C15.5808 9.74694 15.5757 9.73675 15.5707 9.72826C15.5656 9.72317 15.5622 9.71977 15.5571 9.71467C15.552 9.70958 15.5486 9.70618 15.5435 9.70109C15.5384 9.69599 15.535 9.6926 15.5299 9.6875C15.5061 9.66202 15.4789 9.63825 15.4484 9.61957L12.0516 6.20924C11.8784 6.03601 11.5999 6.03601 11.4266 6.20924C11.2534 6.38247 11.2534 6.66101 11.4266 6.83424L14.1576 9.56522L4.78261 9.56522C4.62636 9.56352 4.4803 9.64504 4.40048 9.78091C4.32235 9.91678 4.32235 10.0832 4.40048 10.2191C4.4803 10.355 4.62636 10.4365 4.78261 10.4348L14.1576 10.4348L11.4266 13.1658C11.2857 13.2965 11.2483 13.5037 11.3332 13.6753C11.4164 13.8485 11.605 13.9436 11.7935 13.913Z" fill="#98AFBC"/>
</svg>
