<svg width="40" height="40" viewBox="0 0 40 40" fill="none" xmlns="http://www.w3.org/2000/svg">
<path d="M39 36C39 37.65 37.65 39 36 39H25V40H36C38.21 40 40 38.21 40 36V26H39V36ZM36 0H25V1H36C37.65 1 39 2.35 39 4V16H40V4C40 1.79 38.21 0 36 0ZM1 36V26H0V36C0 38.21 1.79 40 4 40H15V39H4C2.35 39 1 37.65 1 36ZM0 4V16H1V4C1 2.35 2.35 1 4 1H15V0H4C1.79 0 0 1.79 0 4Z" />
<rect x="29" y="9" width="1" height="20" />
<rect x="27" y="9" width="1" height="20" />
<rect x="24" y="9" width="2" height="20" />
<rect x="22" y="9" width="1" height="20" />
<rect x="19" y="9" width="2" height="20" />
<rect x="17" y="9" width="1" height="20" />
<rect x="14" y="9" width="2" height="20" />
<rect x="12" y="9" width="1" height="20" />
<rect x="10" y="9" width="1" height="20" />
</svg>
