<svg width="36" height="36" viewBox="0 0 36 36" fill="none" xmlns="http://www.w3.org/2000/svg">
<path opacity="0.6" fill-rule="evenodd" clip-rule="evenodd" d="M34.83 8.08865C34.11 7.31919 33.12 6.89781 32.04 6.89781H26.226V6.73293C26.226 5.89017 25.902 5.06575 25.326 4.51613C24.75 3.92987 23.976 3.6001 23.148 3.6001H12.852C12.006 3.6001 11.232 3.92987 10.638 4.51613C10.044 5.10239 9.738 5.89017 9.738 6.73293V6.89781H3.96C2.898 6.89781 1.89 7.31919 1.17 8.08865C0.432 8.83979 0 9.88406 0 10.9283V28.3695C0 29.4504 0.414 30.4764 1.17 31.2092C1.908 31.9604 2.934 32.4001 3.96 32.4001H32.04C33.102 32.4001 34.11 31.9787 34.83 31.2092C35.568 30.4581 36 29.4139 36 28.3695V10.9283C36 9.84743 35.586 8.82147 34.83 8.08865ZM34.362 28.4612C34.344 29.0658 34.11 29.597 33.696 30.0367C33.246 30.4764 32.67 30.7146 32.058 30.7146H3.96C3.348 30.7146 2.772 30.4764 2.322 30.0367C1.89 29.5788 1.656 29.0107 1.656 28.3695V10.9283C1.656 10.2871 1.89 9.70086 2.322 9.26117C2.772 8.80314 3.348 8.54666 3.96 8.54666H10.602C11.07 8.54666 11.448 8.18025 11.448 7.70392V6.69628C11.448 6.29322 11.592 5.92681 11.844 5.65201C12.096 5.39552 12.474 5.24895 12.87 5.24895H23.148C23.544 5.24895 23.922 5.39552 24.174 5.65201C24.426 5.92681 24.57 6.29322 24.57 6.69628V7.70392C24.57 8.18025 24.948 8.54666 25.416 8.54666H32.058C32.67 8.54666 33.246 8.80314 33.696 9.24285C34.128 9.68253 34.362 10.2871 34.362 10.91V28.4612ZM23.9222 13.6215C22.3562 12.0276 20.2142 11.1299 18.0002 11.1299C15.7862 11.1299 13.6442 12.0276 12.0782 13.6215C10.4942 15.2154 9.63018 17.3772 9.63018 19.6307C9.63018 21.8842 10.5302 24.0825 12.0962 25.6764C13.6622 27.2703 15.7682 28.168 18.0182 28.168C20.2322 28.168 22.3742 27.2703 23.9402 25.6764C25.5242 24.0642 26.4062 21.9207 26.4062 19.6307C26.3702 17.3955 25.4702 15.1971 23.9222 13.6215ZM22.7342 24.5039C21.4382 25.7864 19.7462 26.5008 18.0002 26.5008C16.2542 26.5008 14.5622 25.8048 13.2662 24.5039C12.0062 23.2398 11.3042 21.5177 11.3042 19.6856C11.3042 17.9085 11.9882 16.1864 13.2662 14.8673C14.5262 13.5849 16.2182 12.8704 18.0002 12.8704C19.7462 12.8704 21.4382 13.5849 22.7342 14.8673C23.9942 16.1497 24.6962 17.8719 24.6962 19.6856C24.7322 21.481 24.0302 23.1849 22.7342 24.5039ZM31.8239 12.7054C31.8239 13.5958 31.1147 14.3176 30.2399 14.3176C29.3651 14.3176 28.6559 13.5958 28.6559 12.7054C28.6559 11.815 29.3651 11.0932 30.2399 11.0932C31.1147 11.0932 31.8239 11.815 31.8239 12.7054ZM17.2012 20.4551H14.6519C14.2019 20.4551 13.8419 20.0887 13.8419 19.6307C13.8419 19.1727 14.2019 18.8063 14.6519 18.8063H17.197L17.1901 16.1313C17.1901 15.6733 17.5501 15.3069 18 15.3069C18.45 15.3069 18.81 15.6733 18.81 16.1313L18.8169 18.8063H21.3478C21.7978 18.8063 22.1578 19.1727 22.1578 19.6307C22.1578 20.0887 21.7978 20.4551 21.3478 20.4551H18.8211L18.828 23.1481C18.828 23.6062 18.45 23.9726 18.018 23.9726C17.5681 23.9726 17.2081 23.6062 17.2081 23.1481L17.2012 20.4551Z" fill="white"/>
</svg>
