<svg width="20" height="20" viewBox="0 0 20 20" fill="none" xmlns="http://www.w3.org/2000/svg">
<path d="M20 10C20 12.0878 18.4 13.8166 16.4201 13.8697C16.402 13.8719 16.3799 13.8761 16.3518 13.8761H12.4623V12.9204H16.3618C17.8694 12.9034 19.0955 11.5929 19.0955 10C19.0955 8.39221 17.8573 7.08177 16.3337 7.08177H11.001L12.2352 8.38584C12.4141 8.57487 12.4141 8.88071 12.2352 9.06761C12.1488 9.15894 12.0342 9.20779 11.9136 9.20779C11.793 9.20779 11.6784 9.15894 11.592 9.06761L9.58596 6.94796C9.49752 6.85876 9.44727 6.73345 9.44727 6.60389C9.44727 6.47434 9.49752 6.34903 9.58194 6.26407L11.594 4.13805C11.6644 4.06372 11.7568 4.01699 11.8553 4.00425C11.8774 4.00212 11.8995 4 11.9216 4C12.0945 4 12.2533 4.10619 12.3257 4.26549C12.4141 4.45451 12.3739 4.68602 12.2352 4.81982L11.001 6.12602H16.388L16.4101 6.13027C16.4141 6.13027 16.4201 6.13239 16.4241 6.13239C18.398 6.18549 20 7.91434 20 10Z" />
<path d="M-2.91067e-05 10C-2.92794e-05 7.91224 1.59997 6.18339 3.57987 6.1303C3.59796 6.12817 3.62007 6.12393 3.64821 6.12393L7.53766 6.12393L7.53766 7.07968L3.63816 7.07968C2.13062 7.09667 0.904493 8.40711 0.904493 10C0.904493 11.6078 2.14268 12.9183 3.6663 12.9183L8.99897 12.9183L7.76479 11.6142C7.5859 11.4252 7.5859 11.1193 7.76479 10.9324C7.85123 10.8411 7.9658 10.7922 8.0864 10.7922C8.20701 10.7922 8.32158 10.8411 8.40801 10.9324L10.414 13.0521C10.5025 13.1413 10.5527 13.2666 10.5527 13.3961C10.5527 13.5257 10.5025 13.651 10.4181 13.736L8.406 15.862C8.33565 15.9363 8.24319 15.983 8.14469 15.9958C8.12258 15.9979 8.10047 16 8.07836 16C7.9055 16 7.7467 15.8938 7.67434 15.7345C7.5859 15.5455 7.6261 15.314 7.76479 15.1802L8.99897 13.874L3.61203 13.874L3.58992 13.8698C3.5859 13.8698 3.57987 13.8676 3.57585 13.8676C1.60198 13.8145 -2.89341e-05 12.0857 -2.91067e-05 10Z"/>
</svg>
