<svg width="20" height="20" viewBox="0 0 20 20" fill="none" xmlns="http://www.w3.org/2000/svg">
<path d="M10 0C4.482 0 0 4.482 0 10C0 15.518 4.482 20 10 20C15.518 20 20 15.518 20 10C20 4.482 15.518 0 10 0ZM10 0.869565C15.0476 0.869565 19.1304 4.95245 19.1304 10C19.1304 15.0476 15.0476 19.1304 10 19.1304C4.95245 19.1304 0.869565 15.0476 0.869565 10C0.869565 4.95245 4.95245 0.869565 10 0.869565ZM8.20652 6.08696C8.10971 6.09715 8.018 6.1413 7.94837 6.20924L4.53804 9.63315L4.49728 9.64674C4.48709 9.65523 4.4786 9.66372 4.47011 9.67391V9.6875C4.45992 9.69599 4.45143 9.70448 4.44293 9.71467C4.43274 9.72317 4.42425 9.73166 4.41576 9.74185C4.41576 9.74694 4.41576 9.75034 4.41576 9.75543C4.40557 9.76393 4.39708 9.77242 4.38859 9.78261C4.38859 9.7877 4.38859 9.7911 4.38859 9.7962C4.36141 9.84205 4.34273 9.893 4.33424 9.94565C4.33424 9.95075 4.33424 9.95414 4.33424 9.95924C4.33424 9.97283 4.33424 9.98641 4.33424 10C4.33424 10.0085 4.33424 10.0187 4.33424 10.0272C4.33424 10.0323 4.33424 10.0357 4.33424 10.0408C4.34103 10.0985 4.35971 10.1529 4.38859 10.2038C4.39198 10.2123 4.39708 10.2225 4.40217 10.231C4.40727 10.2361 4.41067 10.2395 4.41576 10.2446C4.41916 10.2531 4.42425 10.2632 4.42935 10.2717C4.43444 10.2768 4.43784 10.2802 4.44293 10.2853C4.44803 10.2904 4.45143 10.2938 4.45652 10.2989C4.46162 10.304 4.46501 10.3074 4.47011 10.3125C4.49389 10.338 4.52106 10.3618 4.55163 10.3804L7.94837 13.7908C8.1216 13.964 8.40014 13.964 8.57337 13.7908C8.7466 13.6175 8.7466 13.339 8.57337 13.1658L5.84239 10.4348H15.2174C15.3736 10.4365 15.5197 10.355 15.5995 10.2191C15.6776 10.0832 15.6776 9.91678 15.5995 9.78091C15.5197 9.64504 15.3736 9.56352 15.2174 9.56522H5.84239L8.57337 6.83424C8.71433 6.70346 8.7517 6.49626 8.66678 6.32473C8.58356 6.15149 8.39504 6.05639 8.20652 6.08696Z"/>
</svg>
