<svg width="20" height="20" viewBox="0 0 20 20" fill="none" xmlns="http://www.w3.org/2000/svg">
<path d="M10 0C4.48241 0 0 4.48241 0 10C0 15.5176 4.48241 20 10 20C15.5176 20 20 15.5176 20 10C20 4.48241 15.5176 0 10 0ZM10 0.869565C15.0476 0.869565 19.1304 4.95238 19.1304 10C19.1304 15.0476 15.0476 19.1304 10 19.1304C4.95238 19.1304 0.869565 15.0476 0.869565 10C0.869565 4.95238 4.95238 0.869565 10 0.869565ZM14.3427 5.64708C14.2721 5.64847 14.2028 5.66706 14.141 5.70124C14.0791 5.73542 14.0265 5.78416 13.9878 5.84324L9.55248 12.3811L6.38247 9.43954C6.34083 9.39947 6.29162 9.3681 6.23772 9.34727C6.18382 9.32644 6.1263 9.31656 6.06854 9.31822C6.01077 9.31987 5.95392 9.33302 5.90129 9.3569C5.84867 9.38078 5.80133 9.41491 5.76205 9.4573C5.72277 9.49968 5.69233 9.54947 5.67252 9.60375C5.6527 9.65804 5.6439 9.71573 5.64664 9.77345C5.64937 9.83118 5.66359 9.88778 5.68845 9.93994C5.71331 9.99211 5.74833 10.0388 5.79144 10.0773L9.70278 13.7067L14.7079 6.33067C14.7538 6.26489 14.7806 6.18769 14.7854 6.10761C14.7901 6.02754 14.7726 5.94771 14.7348 5.87695C14.697 5.80619 14.6404 5.74727 14.5712 5.7067C14.502 5.66613 14.4229 5.6455 14.3427 5.64708Z" fill="#98AFBC"/>
</svg>
