<svg width="6" height="10" viewBox="0 0 6 10" fill="none" xmlns="http://www.w3.org/2000/svg">
<path d="M3.47983 9.78182C3.23991 10.0727 2.76009 10.0727 2.52018 9.78182L0.121045 6.87273C-0.175503 6.51314 0.106624 6 0.600871 6H5.39913C5.89338 6 6.1755 6.51314 5.87896 6.87273L3.47983 9.78182Z" fill="#4F6C7C"/>
<path d="M2.90591 0.536305C2.91934 0.520022 2.9502 0.5 3 0.5C3.0498 0.5 3.08066 0.520022 3.09409 0.536305L5.49321 3.44538C5.49322 3.44539 5.49322 3.44539 5.49322 3.4454C5.49628 3.4491 5.49815 3.45188 5.49927 3.45378C5.49887 3.45477 5.49829 3.45604 5.49744 3.45758C5.49365 3.46449 5.48549 3.4746 5.47077 3.48326C5.45723 3.49122 5.43462 3.5 5.39914 3.5H0.600863C0.565381 3.5 0.542773 3.49122 0.529233 3.48326C0.514515 3.4746 0.506354 3.46449 0.502557 3.45758C0.501708 3.45604 0.501128 3.45477 0.500734 3.45378C0.501847 3.45188 0.50372 3.4491 0.506777 3.4454C0.50678 3.44539 0.506783 3.44539 0.506786 3.44538L2.90591 0.536306L2.52017 0.218182L2.90591 0.536305Z" stroke="#4F6C7C"/>
</svg>
