<svg width="20" height="20" viewBox="0 0 20 20" fill="none" xmlns="http://www.w3.org/2000/svg">
<path d="M10 0C4.4823 0 0 4.4823 0 10C0 15.5177 4.4823 20 10 20C15.5177 20 20 15.5177 20 10C20 4.4823 15.5177 0 10 0ZM10 0.869565C15.0477 0.869565 19.1304 4.95225 19.1304 10C19.1304 15.0477 15.0477 19.1304 10 19.1304C4.95225 19.1304 0.869565 15.0477 0.869565 10C0.869565 4.95225 4.95225 0.869565 10 0.869565ZM9.99321 2.16797C9.87804 2.16977 9.7683 2.21719 9.68806 2.29981C9.60782 2.38244 9.56364 2.49353 9.56522 2.6087V8.77123C9.31107 8.86108 9.091 9.02747 8.93529 9.24751C8.77957 9.46755 8.69585 9.73044 8.69565 10C8.69605 10.1943 8.73986 10.3861 8.82388 10.5613L6.21433 13.1709C6.17261 13.2109 6.13929 13.2589 6.11634 13.312C6.09339 13.3651 6.08127 13.4222 6.08068 13.4801C6.08009 13.5379 6.09105 13.5953 6.11291 13.6489C6.13478 13.7024 6.16711 13.7511 6.20801 13.792C6.24892 13.8329 6.29757 13.8652 6.35113 13.8871C6.40468 13.909 6.46206 13.9199 6.51991 13.9193C6.57775 13.9187 6.6349 13.9066 6.68799 13.8837C6.74109 13.8607 6.78908 13.8274 6.82914 13.7857L9.43869 11.1761C9.6139 11.2601 9.80568 11.304 10 11.3043C10.3459 11.3043 10.6777 11.1669 10.9223 10.9223C11.1669 10.6777 11.3043 10.3459 11.3043 10C11.304 9.73058 11.2202 9.46789 11.0645 9.24802C10.9088 9.02815 10.6888 8.86189 10.4348 8.77208V2.6087C10.4356 2.55053 10.4247 2.49279 10.4028 2.4389C10.3809 2.38501 10.3483 2.33607 10.3072 2.29498C10.266 2.25388 10.217 2.22147 10.1631 2.19965C10.1091 2.17783 10.0514 2.16706 9.99321 2.16797Z"/>
</svg>
