<svg width="6" height="10" viewBox="0 0 6 10" fill="none" xmlns="http://www.w3.org/2000/svg">
<path d="M3.09409 9.4637C3.09409 9.4637 3.09409 9.4637 3.09408 9.4637C3.08065 9.47998 3.0498 9.5 3 9.5C2.95021 9.5 2.91935 9.47998 2.90592 9.4637C2.90592 9.4637 2.90592 9.4637 2.90592 9.4637L0.506788 6.55461C0.503726 6.55089 0.501849 6.54811 0.500734 6.54621C0.501128 6.54522 0.501708 6.54395 0.502555 6.54241C0.506349 6.53551 0.514507 6.52541 0.529225 6.51675C0.542766 6.50878 0.565378 6.5 0.600871 6.5H5.39913C5.43462 6.5 5.45723 6.50878 5.47077 6.51675C5.48549 6.52541 5.49365 6.53551 5.49744 6.54241C5.49829 6.54395 5.49887 6.54522 5.49927 6.54621C5.49815 6.54811 5.49627 6.55089 5.49321 6.55461L3.09409 9.4637Z" stroke="#4F6C7C"/>
<path d="M2.52017 0.218182C2.76008 -0.0727274 3.23992 -0.0727274 3.47983 0.218182L5.87897 3.12727C6.1755 3.48686 5.89336 4 5.39914 4H0.600863C0.106641 4 -0.1755 3.48686 0.121034 3.12727L2.52017 0.218182Z" fill="#4F6C7C"/>
</svg>
