<svg width="150" height="150" viewBox="0 0 150 150" fill="none" xmlns="http://www.w3.org/2000/svg">
<path d="M75 150C116.421 150 150 116.421 150 75C150 33.5786 116.421 0 75 0C33.5786 0 0 33.5786 0 75C0 116.421 33.5786 150 75 150Z" fill="#7858A5"/>
<path d="M125.709 70.8186C126.49 71.5996 127.108 72.5279 127.527 73.5496C127.946 74.5713 128.158 75.6661 128.151 76.7704C128.151 80.472 125.829 83.5956 122.709 84.4991C123.436 85.212 124.012 86.0639 124.403 87.0041C124.794 87.9442 124.992 88.9534 124.984 89.9715V90.2179C124.984 93.5224 122.957 96.3271 120.2 97.2105C121.017 97.9488 121.668 98.8517 122.111 99.8599C122.554 100.868 122.778 101.959 122.768 103.06V103.772C122.768 107.902 119.693 111.278 115.936 111.278H78.127C78.127 111.278 67.9977 111.309 66.0984 108.874C64.8689 107.299 62.5778 105.943 61.1157 105.183C60.3178 104.768 59.7664 104.529 59.7664 104.529H48.1567V64.4081C48.1567 64.4081 58.3955 63.7472 64.6281 60.4661C65.7089 59.9227 66.7017 59.2197 67.5731 58.3807C72.6378 53.2784 80.2365 39.1321 81.2948 31.7104C82.3494 24.2898 80.4487 19.1875 81.2948 15.4787C82.137 11.7667 94.8005 8.98613 98.6017 28.9265C100.256 37.6004 99.7523 44.6513 98.653 49.8496C98.4066 51.0072 98.1324 52.072 97.8482 53.0446H122.61C124.207 53.0482 125.764 53.5445 127.069 54.4657C129.425 56.0991 131 58.9893 131 62.2632C131 66.1306 128.801 69.4556 125.709 70.8186Z" fill="#F2F2F2"/>
<g style="mix-blend-mode:multiply" opacity="0.5">
<path d="M64.6281 60.4666L61.1141 105.183C60.3163 104.768 59.7648 104.529 59.7648 104.529H48.1567V64.4081C48.1567 64.4081 58.3955 63.7472 64.6281 60.4666Z" fill="#CDD6E0"/>
</g>
<path d="M58.1524 60.727V107.374C58.1526 107.887 58.0518 108.395 57.8557 108.869C57.6595 109.342 57.372 109.773 57.0094 110.135C56.6469 110.498 56.2164 110.785 55.7427 110.981C55.2689 111.178 54.7612 111.278 54.2485 111.278H22.905C20.4804 111.278 19.2383 109.165 19.0595 106.703L19 60.0558C19.1578 59.1504 19.63 58.3298 20.3335 57.7385C21.037 57.1472 21.9266 56.8231 22.8456 56.8234H54.2485C54.7612 56.8231 55.2689 56.9239 55.7427 57.12C56.2164 57.3161 56.6469 57.6036 57.0094 57.9662C57.372 58.3287 57.6595 58.7592 57.8557 59.2329C58.0518 59.7066 58.1526 60.2143 58.1524 60.727V60.727Z" fill="#FFD15C"/>
<g style="mix-blend-mode:multiply" opacity="0.3">
<path d="M19 97.3242L19.0595 106.702C19.225 109.163 20.4804 111.277 22.905 111.277H54.2485C54.7612 111.277 55.2689 111.176 55.7427 110.98C56.2164 110.784 56.6469 110.496 57.0094 110.134C57.372 109.771 57.6595 109.341 57.8557 108.867C58.0518 108.394 58.1526 107.886 58.1524 107.373V97.3242H19Z" fill="#184984"/>
</g>
<g style="mix-blend-mode:multiply" opacity="0.3">
<path d="M32.8118 104.032C35.1759 104.032 37.0923 102.116 37.0923 99.7516C37.0923 97.3875 35.1759 95.4711 32.8118 95.4711C30.4477 95.4711 28.5312 97.3875 28.5312 99.7516C28.5312 102.116 30.4477 104.032 32.8118 104.032Z" fill="#184984"/>
</g>
<path d="M31.6988 103.604C34.0628 103.604 35.9793 101.688 35.9793 99.3235C35.9793 96.9594 34.0628 95.043 31.6988 95.043C29.3347 95.043 27.4182 96.9594 27.4182 99.3235C27.4182 101.688 29.3347 103.604 31.6988 103.604Z" fill="#FFD15C"/>
<g style="mix-blend-mode:multiply" opacity="0.3">
<path d="M33.251 95.3376C33.5802 95.7163 33.8254 96.1604 33.9704 96.6407C34.1155 97.1211 34.1571 97.6267 34.0924 98.1242C34.0278 98.6218 33.8584 99.1 33.5955 99.5274C33.3325 99.9547 32.982 100.321 32.567 100.603C32.1519 100.885 31.6818 101.076 31.1877 101.163C30.6936 101.25 30.1866 101.231 29.7002 101.108C29.2138 100.985 28.7591 100.76 28.366 100.448C27.9729 100.137 27.6503 99.745 27.4196 99.2994C27.4196 99.3076 27.4182 99.3154 27.4182 99.3235C27.4178 100.103 27.63 100.867 28.032 101.534C28.4339 102.202 29.0104 102.746 29.6993 103.11C30.3881 103.474 31.1632 103.643 31.9409 103.599C32.7187 103.555 33.4696 103.299 34.1128 102.859C34.756 102.42 35.267 101.813 35.5908 101.105C35.9146 100.396 36.0388 99.6126 35.9501 98.8387C35.8614 98.0647 35.5632 97.3296 35.0876 96.7127C34.6119 96.0957 33.9769 95.6203 33.251 95.3376V95.3376Z" fill="#398496"/>
</g>
<g style="mix-blend-mode:multiply" opacity="0.5">
<path d="M131 62.2645C131 58.9909 129.425 56.1044 127.069 54.4679C127.064 54.4643 127.058 54.4614 127.053 54.4578C126.897 54.3501 126.738 54.2465 126.576 54.1501C126.571 54.147 126.566 54.1445 126.561 54.1413C126.418 54.0564 126.271 53.9771 126.122 53.9014C126.077 53.8789 126.032 53.8564 125.987 53.8339C125.859 53.7717 125.73 53.7128 125.599 53.6573C125.567 53.6435 125.535 53.6284 125.502 53.6151C125.346 53.5518 125.189 53.4948 125.029 53.4415C124.969 53.4219 124.909 53.4041 124.849 53.3851C124.731 53.3484 124.613 53.3176 124.494 53.286C124.447 53.2739 124.4 53.261 124.352 53.2498C124.185 53.2108 124.017 53.1768 123.847 53.1488C123.809 53.1425 123.77 53.1383 123.731 53.1324C123.59 53.1114 123.447 53.0944 123.303 53.0815C123.252 53.077 123.202 53.0723 123.151 53.0687C122.971 53.056 122.791 53.0461 122.611 53.0461H97.8481C97.9283 52.7724 98.0071 52.4893 98.0851 52.201C98.1274 52.0446 98.1689 51.8856 98.2103 51.7246C98.2518 51.5635 98.291 51.4078 98.3306 51.2468C98.3703 51.0857 98.4086 50.9314 98.4464 50.7708C98.5169 50.4706 98.5861 50.1649 98.653 49.8511H98.6518C99.7502 44.6517 100.255 37.6035 98.6018 28.928C95.4057 12.1608 85.944 11.4592 82.5127 13.8672C85.9039 15.6492 89.3702 20.0205 91.0681 28.928C93.0885 39.5335 91.8865 47.7109 90.3147 53.0461V56.8232H117.981C119.414 56.8151 120.794 57.3716 121.82 58.3725C122.847 59.3734 123.438 60.7381 123.466 62.1715C123.466 62.2023 123.466 62.2334 123.466 62.2647C123.466 66.1308 121.267 69.4558 118.175 70.8188C118.956 71.5998 119.574 72.5281 119.993 73.5498C120.412 74.5715 120.624 75.6662 120.617 76.7705C120.617 80.4722 118.295 83.5958 115.175 84.4993C115.902 85.2123 116.478 86.0642 116.868 87.0043C117.259 87.9445 117.457 88.9536 117.449 89.9716V90.2181C117.449 93.5226 115.422 96.3272 112.665 97.2107C113.482 97.9489 114.133 98.8519 114.576 99.86C115.019 100.868 115.243 101.959 115.233 103.06V103.772C115.233 107.902 112.158 111.278 108.401 111.278H115.935C119.692 111.278 122.767 107.902 122.767 103.772V103.06C122.776 101.959 122.552 100.868 122.11 99.86C121.667 98.8519 121.016 97.9489 120.199 97.2107C122.956 96.3272 124.983 93.5226 124.983 90.2181V89.9716C124.99 88.9536 124.793 87.9444 124.402 87.0042C124.012 86.0641 123.436 85.2121 122.709 84.4991C125.829 83.5951 128.151 80.4719 128.151 76.7703C128.158 75.666 127.946 74.5712 127.527 73.5495C127.108 72.5279 126.49 71.5996 125.709 70.8186C128.801 69.4556 131 66.1306 131 62.2645Z" fill="#CDD6E0"/>
</g>
<path d="M31.4206 96.2636C31.8156 96.6916 31.6472 97.4904 31.0444 98.0454C30.4416 98.6005 29.6327 98.7032 29.2376 98.2743C28.8425 97.8454 29.011 97.0475 29.6138 96.4923C30.2166 95.937 31.0255 95.8345 31.4206 96.2636Z" fill="white"/>
</svg>
