<svg width="20" height="20" viewBox="0 0 20 20" fill="none" xmlns="http://www.w3.org/2000/svg">
<rect width="20" height="20" fill="white"/>
<path fill-rule="evenodd" clip-rule="evenodd" d="M8.38274 6H3.46523C2.6138 5.99972 1.80914 6.35144 1.17635 6.99578C1.12107 7.05197 1.06723 7.11068 1.01468 7.17126C0.360111 7.92687 0 8.93142 0 10C0 11.0686 0.360111 12.0731 1.01468 12.8288C1.66925 13.5843 2.53947 14 3.46523 14H8.38274V13.1111H3.46523C2.74504 13.1107 2.06842 12.7879 1.55925 12.2001C1.05008 11.6124 0.770326 10.8313 0.770051 10C0.769784 9.1687 1.05008 8.38761 1.55925 7.79992C2.06842 7.21215 2.74504 6.88927 3.46523 6.8889H8.38274V6ZM16.5348 6C17.4606 6 18.3308 6.41575 18.9854 7.17126C19.6399 7.92687 20 8.93142 20 10C20 11.0686 19.6399 12.0731 18.9854 12.8288C18.3308 13.5843 17.4606 14 16.5348 14H11.6173V13.1111H16.5348C17.2549 13.1107 17.9316 12.7879 18.4407 12.2001C18.9499 11.6124 19.2302 10.8313 19.23 10C19.2297 9.1687 18.9499 8.38761 18.4407 7.79992C17.9316 7.21215 17.2549 6.88927 16.5348 6.8889H11.6173V6H16.5348ZM6.73267 9.55559H13.2674V10.4444H6.73267V9.55559Z" />
</svg>
