<svg width="150" height="150" viewBox="0 0 150 150" fill="none" xmlns="http://www.w3.org/2000/svg">
<path d="M75 150C116.421 150 150 116.421 150 75C150 33.5786 116.421 0 75 0C33.5786 0 0 33.5786 0 75C0 116.421 33.5786 150 75 150Z" fill="#7858A5"/>
<path d="M149.912 78.6143L95.7291 24.4315C90.5716 18.8405 83.1882 15.3319 75 15.3319C59.4475 15.3319 46.7945 27.9846 46.7945 43.5375V59.9505H36.9387V107.851C36.9387 113.836 39.5464 119.209 43.6849 122.904L70.6524 149.871C72.0915 149.954 73.5402 150 75 150C115.209 150 148.026 118.357 149.912 78.6143Z" fill="#553C78"/>
<path d="M103.206 63.6718H94.4165V43.5375C94.4165 32.8312 85.7063 24.121 75 24.121C64.2938 24.121 55.5835 32.8312 55.5835 43.5375V63.6718H46.7944V43.5375C46.7944 27.9846 59.4475 15.3319 75 15.3319C90.5525 15.3319 103.206 27.9846 103.206 43.5375V63.6718Z" fill="white"/>
<path d="M103.207 43.5381V63.6709H94.418V43.5381C94.418 32.8301 85.7051 24.1201 75 24.1201V15.3311C90.5537 15.3311 103.207 27.9844 103.207 43.5381Z" fill="#FFF5CB"/>
<path d="M92.8858 128.027H57.1144C45.9716 128.027 36.9385 118.994 36.9385 107.851V59.9508H113.062V107.851C113.062 118.994 104.029 128.027 92.8858 128.027Z" fill="#FFE670"/>
<path d="M113.063 59.9502V107.851C113.063 118.995 104.027 128.027 92.8857 128.027H75V59.9502H113.063Z" fill="#FFCF00"/>
<path d="M85.6563 86.6713C85.6563 80.7861 80.8853 76.0151 75.0001 76.0151C69.115 76.0151 64.344 80.7861 64.344 86.6713C64.344 91.0011 66.928 94.7253 70.6367 96.3926L67.6343 111.963H82.3663L79.3636 96.3926C83.0723 94.725 85.6563 91.0011 85.6563 86.6713Z" fill="#9A4C00"/>
<path d="M79.3649 96.3915L82.3658 111.961H75V76.0164C80.8849 76.0164 85.6544 80.7859 85.6544 86.6708C85.6544 91.0002 83.0725 94.7256 79.3649 96.3915Z" fill="#703700"/>
</svg>
