<svg width="20" height="20" viewBox="0 0 20 20" fill="none" xmlns="http://www.w3.org/2000/svg">
<rect width="20" height="20" fill="white"/>
<path d="M10 0C7.20559 0 4.94737 2.28225 4.94737 5.10638V7.23404H3.26316C2.57072 7.23404 2 7.81084 2 8.51064V18.7234C2 19.4232 2.57072 20 3.26316 20H16.7368C17.4293 20 18 19.4232 18 18.7234V8.51064C18 7.81084 17.4293 7.23404 16.7368 7.23404H15.0526V5.10638C15.0526 2.28225 12.7944 0 10 0ZM10 0.851064C12.3438 0.851064 14.2105 2.7377 14.2105 5.10638V7.23404H5.78947V5.10638C5.78947 2.7377 7.65625 0.851064 10 0.851064ZM3.26316 8.08511H16.7368C16.9704 8.08511 17.1579 8.2746 17.1579 8.51064V18.7234C17.1579 18.9594 16.9704 19.1489 16.7368 19.1489H3.26316C3.02961 19.1489 2.84211 18.9594 2.84211 18.7234V8.51064C2.84211 8.2746 3.02961 8.08511 3.26316 8.08511ZM10 11.4894C9.28454 11.4894 8.73684 12.0429 8.73684 12.766C8.73684 13.1483 8.90461 13.484 9.15789 13.6968V14.8936C9.15789 15.3624 9.53618 15.7447 10 15.7447C10.4638 15.7447 10.8421 15.3624 10.8421 14.8936V13.6968C11.0954 13.484 11.2632 13.1483 11.2632 12.766C11.2632 12.0429 10.7155 11.4894 10 11.4894Z" fill="#98AFBC"/>
</svg>
