<?xml version="1.0" encoding="utf-8"?>
<!-- Generator: Adobe Illustrator 24.0.1, SVG Export Plug-In . SVG Version: 6.00 Build 0)  -->
<svg version="1.1" id="Camada_1" xmlns="http://www.w3.org/2000/svg" xmlns:xlink="http://www.w3.org/1999/xlink" x="0px" y="0px"
	 viewBox="0 0 141 28" style="enable-background:new 0 0 141 28;" xml:space="preserve" fill="none">
<g>
	<path class="st0" d="M132,14.1l-4.4,4.6c-0.1,0.1-0.2,0.3-0.3,0.4c-0.1,0.2-0.1,0.3-0.1,0.5s0,0.4,0.1,0.5c0.1,0.2,0.2,0.3,0.3,0.4
		c0.2,0.2,0.6,0.4,0.9,0.4c0.2,0,0.3,0,0.5-0.1c0.2-0.1,0.3-0.2,0.4-0.3l4.4-4.6c0.1-0.1,0.2-0.3,0.3-0.4c0.1-0.2,0.1-0.3,0.1-0.5
		s0-0.4-0.1-0.5c-0.1-0.2-0.2-0.3-0.3-0.4c-0.2-0.2-0.6-0.4-0.9-0.4c-0.2,0-0.3,0-0.5,0.1C132.2,13.8,132.1,13.9,132,14.1L132,14.1z
		 M131.5,8l-9.7,10.1c-0.1,0.1-0.2,0.3-0.3,0.4c-0.1,0.2-0.1,0.3-0.1,0.5s0,0.4,0.1,0.5c0.1,0.2,0.2,0.3,0.3,0.4
		c0.2,0.2,0.6,0.4,0.9,0.4c0.2,0,0.3,0,0.5-0.1c0.2-0.1,0.3-0.2,0.4-0.3l9.7-10.1c0.1-0.1,0.2-0.3,0.3-0.4c0.1-0.2,0.1-0.3,0.1-0.5
		s0-0.4-0.1-0.5c-0.1-0.2-0.2-0.3-0.3-0.4c-0.2-0.2-0.6-0.4-0.9-0.4C132.1,7.6,131.8,7.7,131.5,8L131.5,8z M125.7,7.5l-4.4,4.6
		c-0.1,0.1-0.2,0.3-0.3,0.4c-0.1,0.2-0.1,0.3-0.1,0.5s0,0.4,0.1,0.5c0.1,0.1,0.2,0.3,0.3,0.4c0.2,0.2,0.6,0.4,0.9,0.4
		c0.2,0,0.3,0,0.5-0.1c0.2-0.1,0.3-0.2,0.4-0.3l4.4-4.6c0.1-0.1,0.2-0.3,0.3-0.4c0.1-0.2,0.1-0.3,0.1-0.5s0-0.4-0.1-0.5
		c-0.1-0.2-0.2-0.3-0.3-0.4c-0.2-0.2-0.6-0.4-0.9-0.4c-0.2,0-0.3,0-0.5,0.1C125.9,7.3,125.8,7.3,125.7,7.5L125.7,7.5z M116.9,14
		c0-2.2,0.6-4.4,1.8-6.2c1.2-1.8,2.9-3.3,4.8-4.1c2-0.9,4.1-1.1,6.2-0.6c2.1,0.4,4,1.5,5.5,3.1c1.5,1.6,2.5,3.6,2.9,5.8
		c0.4,2.2,0.2,4.4-0.6,6.5s-2.2,3.8-4,5s-3.8,1.9-6,1.9c-1.4,0-2.8-0.3-4.1-0.9s-2.5-1.4-3.5-2.4s-1.8-2.3-2.3-3.6
		C117.2,16.9,116.9,15.5,116.9,14L116.9,14z M114.3,14c0,2.8,0.8,5.5,2.2,7.7c1.5,2.3,3.5,4.1,6,5.1c2.4,1.1,5.1,1.3,7.7,0.8
		c2.6-0.5,5-1.9,6.8-3.8c1.9-1.9,3.1-4.4,3.7-7.1c0.5-2.7,0.3-5.5-0.8-8.1c-1-2.5-2.7-4.7-4.9-6.3c-2.2-1.5-4.8-2.3-7.4-2.3
		c-3.5,0-6.9,1.5-9.4,4.1C115.7,6.8,114.3,10.3,114.3,14"/>
	<path class="st0" d="M13,8.3c-0.7-0.8-1.5-1.3-2.5-1.7C9.6,6.2,8.6,6,7.6,6s-2,0.2-2.9,0.6s-1.8,1-2.5,1.7C1.5,9.1,1,10,0.6,10.9
		C0.2,11.9,0,13,0,14v12.7c0,0.2,0,0.3,0.1,0.5s0.2,0.3,0.3,0.4s0.3,0.2,0.4,0.3C0.9,28,1.1,28,1.3,28h0.1c0.2,0,0.3,0,0.5-0.1
		s0.3-0.2,0.4-0.3c0.1-0.1,0.2-0.3,0.3-0.4c0.1-0.2,0.1-0.3,0.1-0.5V20c1.4,1.3,3.2,2,5,2c1,0,2-0.2,2.9-0.6c0.9-0.4,1.8-1,2.5-1.7
		c0.7-0.7,1.3-1.6,1.7-2.6s0.6-2,0.6-3.1s-0.2-2.1-0.5-3.1C14.3,10,13.8,9.1,13,8.3L13,8.3z M11.2,17.6c-0.5,0.5-1,0.9-1.6,1.2
		c-0.6,0.3-1.3,0.4-1.9,0.4s-1.3-0.1-1.9-0.4c-0.6-0.3-1.2-0.7-1.6-1.2c-0.5-0.5-0.8-1.1-1.1-1.7c-0.2-0.6-0.4-1.3-0.4-2
		c0-1.4,0.5-2.8,1.4-3.8c0.5-0.5,1-0.9,1.7-1.1s1.3-0.4,2-0.4C8.3,8.7,9,8.8,9.6,9c0.6,0.3,1.2,0.6,1.6,1.1c0.5,0.5,0.9,1.1,1.1,1.7
		c0.3,0.6,0.4,1.3,0.4,2C12.7,15.3,12.2,16.7,11.2,17.6"/>
	<path class="st0" d="M30.7,8.3C29.3,6.9,27.3,6,25.3,6s-4,0.8-5.4,2.3c-0.7,0.7-1.3,1.6-1.7,2.6s-0.6,2-0.6,3.1
		c0,1,0.2,2.1,0.6,3.1c0.4,1,0.9,1.9,1.7,2.6c0.7,0.7,1.6,1.3,2.5,1.7c0.9,0.4,1.9,0.6,2.9,0.6c1.9,0,3.7-0.7,5-2v0.7
		c0,0.2,0,0.3,0.1,0.5s0.2,0.3,0.3,0.4s0.3,0.2,0.4,0.3c0.2,0.1,0.3,0.1,0.5,0.1h0.1c0.2,0,0.3,0,0.5-0.1s0.3-0.2,0.4-0.3
		c0.1-0.1,0.2-0.3,0.3-0.4C33,21,33,20.9,33,20.7V14c0-1.1-0.2-2.1-0.5-3.1C32,10,31.4,9.1,30.7,8.3L30.7,8.3z M28.8,17.7
		c-0.5,0.5-1,0.9-1.6,1.1c-0.6,0.3-1.3,0.4-1.9,0.4c-1.3,0-2.6-0.5-3.6-1.5c-0.5-0.5-0.8-1.1-1.1-1.7c-0.2-0.6-0.4-1.3-0.3-2
		c0-0.7,0.1-1.4,0.4-2c0.2-0.6,0.6-1.2,1.1-1.7c0.5-0.5,1-0.9,1.6-1.2c0.6-0.3,1.3-0.4,2-0.4s1.3,0.1,1.9,0.4
		c0.6,0.3,1.2,0.7,1.6,1.2c0.5,0.5,0.9,1.1,1.1,1.7c0.3,0.6,0.4,1.3,0.4,2s-0.1,1.4-0.4,2.1C29.7,16.6,29.3,17.2,28.8,17.7z"/>
	<path class="st0" d="M52.5,0c0.2,0,0.3,0,0.5,0.1s0.3,0.2,0.4,0.3s0.2,0.3,0.3,0.4c0.1,0.2,0.1,0.3,0.1,0.5V6h2.5
		c0.2,0,0.3,0,0.5,0.1s0.3,0.2,0.4,0.3c0.1,0.1,0.2,0.3,0.3,0.4c0.1,0.2,0.1,0.3,0.1,0.5l0,0c0,0.2,0,0.3-0.1,0.5
		c-0.1,0.2-0.2,0.3-0.3,0.4c-0.1,0.1-0.3,0.2-0.4,0.3c-0.2,0.1-0.3,0.1-0.5,0.1h-2.5v9.1c0,0.2,0,0.4,0.1,0.6
		c0.1,0.2,0.2,0.3,0.3,0.5c0.3,0.3,0.6,0.4,1,0.4h1.1c0.2,0,0.3,0,0.5,0.1s0.3,0.2,0.4,0.3c0.1,0.1,0.2,0.3,0.3,0.4
		c0.1,0.2,0.1,0.3,0.1,0.5l0,0c0,0.2,0,0.3-0.1,0.5c-0.1,0.2-0.2,0.3-0.3,0.4c-0.1,0.1-0.3,0.2-0.4,0.3c-0.2,0.1-0.3,0.1-0.5,0.1
		h-1.1c-0.5,0-1-0.1-1.5-0.3c-0.5-0.2-0.9-0.5-1.3-0.9c-0.4-0.4-0.7-0.8-0.9-1.4c-0.2-0.5-0.3-1.1-0.3-1.6V1.3c0-0.2,0-0.3,0.1-0.5
		c0.1-0.2,0.2-0.3,0.3-0.4c0.1-0.1,0.3-0.2,0.4-0.3C52.2,0,52.3,0,52.5,0z M61.3,3.2c-0.2,0-0.4,0-0.6-0.1c-0.2-0.1-0.4-0.2-0.5-0.3
		c-0.1-0.1-0.3-0.3-0.3-0.5c-0.1-0.2-0.1-0.4-0.1-0.6c0-0.3,0.1-0.6,0.3-0.9s0.4-0.5,0.7-0.6C61,0.1,61.4,0,61.6,0.1
		c0.3,0.1,0.6,0.2,0.8,0.4c0.2,0.1,0.3,0.3,0.4,0.5s0.1,0.4,0.1,0.6s0,0.4-0.1,0.6c-0.1,0.2-0.2,0.4-0.4,0.5C62.3,2.8,62.1,3,61.9,3
		C61.7,3.2,61.5,3.2,61.3,3.2L61.3,3.2z M61.4,6c0.2,0,0.3,0,0.5,0.1s0.3,0.2,0.4,0.3c0.1,0.1,0.2,0.3,0.3,0.4
		c0.1,0.2,0.1,0.3,0.1,0.5v13.3c0,0.2,0,0.3-0.1,0.5c-0.1,0.2-0.2,0.3-0.3,0.4c-0.1,0.1-0.3,0.2-0.4,0.3c-0.2,0.1-0.3,0.1-0.5,0.1
		c-0.2,0-0.3,0-0.5-0.1s-0.3-0.2-0.4-0.3c-0.1-0.1-0.2-0.3-0.3-0.4c-0.1-0.1-0.1-0.3-0.1-0.5V7.3c0-0.2,0-0.3,0.1-0.5
		c0.1-0.2,0.2-0.3,0.3-0.4c0.1-0.1,0.2-0.3,0.4-0.3C61.1,6,61.2,6,61.4,6z M68.5,20.6c0,0.2,0,0.3-0.1,0.5c-0.1,0.2-0.2,0.3-0.3,0.4
		c-0.1,0.1-0.3,0.2-0.4,0.3c-0.2,0.1-0.3,0.1-0.5,0.1h-0.1c-0.2,0-0.3,0-0.5-0.1c-0.2-0.1-0.3-0.2-0.4-0.3c-0.1-0.1-0.2-0.3-0.3-0.4
		c0.1-0.2,0.1-0.3,0.1-0.5v-8c0-0.9,0.1-1.7,0.5-2.5c0.3-0.8,0.8-1.5,1.4-2.1c0.6-0.7,1.4-1.2,2.2-1.5c0.8-0.3,1.7-0.5,2.6-0.4
		s1.8,0.3,2.6,0.8c0.8,0.4,1.5,1.1,2,1.8c0.5-0.7,1.2-1.4,2-1.8C80.1,6.5,81,6,81.9,6c0.9-0.1,1.8,0.1,2.6,0.4
		c0.8,0.3,1.6,0.9,2.2,1.5s1.1,1.3,1.4,2.1c0.3,0.8,0.5,1.7,0.5,2.5v8c0,0.2,0,0.3-0.1,0.5s-0.2,0.3-0.3,0.4s-0.3,0.2-0.4,0.3
		c-0.2,0.1-0.3,0.1-0.5,0.1l0,0c-0.2,0-0.3,0-0.5-0.1c-0.2-0.1-0.3-0.2-0.4-0.3c-0.1-0.1-0.2-0.3-0.3-0.4C86,20.8,86,20.7,86,20.5
		v-8c0-1-0.4-2-1.1-2.8c-0.7-0.7-1.6-1.1-2.6-1.1S80.4,9,79.7,9.7c-0.7,0.7-1.1,1.7-1.1,2.8v8c0,0.2,0,0.3-0.1,0.5s-0.2,0.3-0.3,0.4
		c-0.1,0.1-0.3,0.2-0.4,0.3c-0.2,0.1-0.3,0.1-0.5,0.1l0,0c-0.2,0-0.3,0-0.5-0.1s-0.3-0.2-0.4-0.3c-0.1-0.1-0.2-0.3-0.3-0.4
		C76,20.8,76,20.7,76,20.5v-8c0-1-0.4-2-1.1-2.8c-0.7-0.7-1.6-1.1-2.6-1.1S70.4,9,69.7,9.7c-0.7,0.7-1.1,1.7-1.1,2.8v8h-0.1V20.6z
		 M105.6,10.7c0.1,0.3,0.2,0.7,0.1,1c-0.1,0.3-0.4,0.6-0.7,0.8c-1.3,0.6-3,1.4-5.2,2.4c-2.6,1.3-4.3,2.1-5.1,2.4
		c0.5,0.6,1.1,1.1,1.8,1.5c0.7,0.3,1.4,0.5,2.2,0.5c1.1,0,2.1-0.3,2.9-1c0.8-0.6,1.5-1.5,1.8-2.6c0.1-0.3,0.2-0.5,0.4-0.7
		c0.2-0.2,0.5-0.2,0.8-0.2c0.2,0,0.4,0,0.6,0.1c0.2,0.1,0.3,0.2,0.4,0.4s0.2,0.4,0.2,0.6s0,0.4,0,0.6c-0.5,1.5-1.5,2.9-2.8,3.8
		c-1.1,0.9-2.5,1.4-3.9,1.5s-2.8-0.2-4.1-0.9c-1.3-0.7-2.3-1.7-3-2.9c-0.7-1.1-1-2.5-1-4c0-1.4,0.4-2.8,1.1-4.1
		C92.8,8.7,93.8,7.6,95,7c1.2-0.7,2.6-1,3.9-0.9c1.4,0.1,2.7,0.5,3.9,1.3C104,8.1,105,9.3,105.6,10.7L105.6,10.7z M98.6,8.7
		c-0.7,0-1.3,0.1-1.9,0.4c-0.6,0.3-1.2,0.7-1.6,1.2c-0.5,0.5-0.8,1.1-1.1,1.7c-0.2,0.6-0.4,1.3-0.4,2c0,0.3,0,0.5,0.1,0.8l8.8-4.2
		c-0.5-0.6-1-1.1-1.7-1.4C100.1,8.9,99.4,8.7,98.6,8.7"/>
	<path class="st0" d="M48.1,6.4c-0.1-0.1-0.3-0.2-0.4-0.3c-0.2,0-0.4-0.1-0.5-0.1l0,0c-0.2,0-0.3,0-0.5,0.1s-0.3,0.2-0.4,0.3
		C46.2,6.5,46,6.7,46,6.8c-0.1,0.2-0.1,0.3-0.1,0.5V15c0,1-0.4,2-1.1,2.8c-0.7,0.7-1.6,1.1-2.6,1.1c-1,0-1.9-0.4-2.6-1.1
		C38.8,17,38.4,16,38.4,15V7.3c0-0.2,0-0.3-0.1-0.5c-0.1-0.2-0.2-0.3-0.3-0.4c-0.1-0.1-0.3-0.2-0.4-0.3c-0.1,0-0.2-0.1-0.4-0.1h-0.1
		c-0.2,0-0.3,0-0.5,0.1s-0.3,0.2-0.4,0.3C36.1,6.5,36,6.7,36,6.8c-0.1,0.2-0.1,0.3-0.1,0.5V15c0,0.9,0.1,1.7,0.5,2.5
		c0.3,0.8,0.8,1.5,1.4,2.1c0.6,0.6,1.3,1.1,2.1,1.5c0.8,0.3,1.6,0.5,2.4,0.5c1.3,0,2.6-0.4,3.7-1.3v1c0,0.5-0.1,1-0.3,1.5
		c-0.2,0.5-0.5,0.9-0.9,1.3c-0.3,0.4-0.8,0.7-1.2,0.8c-0.5,0.2-0.9,0.3-1.4,0.3c-0.8,0-1.5-0.2-2.2-0.6c-0.2-0.2-0.5-0.3-0.8-0.3
		c-0.3,0-0.7,0.1-0.9,0.4c-0.2,0.3-0.4,0.6-0.4,1c0,0.2,0.1,0.5,0.2,0.7s0.3,0.4,0.5,0.5l0.1,0.1c1.1,0.7,2.3,1,3.6,1
		c1.7-0.1,3.3-0.8,4.4-2c1.2-1.2,1.9-2.9,1.9-4.6V7.3C48.5,7,48.3,6.7,48.1,6.4"/>
</g>
</svg>
