<svg width="150" height="150" viewBox="0 0 150 150" fill="none" xmlns="http://www.w3.org/2000/svg">
<circle cx="75" cy="75" r="75" fill="#7858A5"/>
<path d="M128.195 106.968C128.195 108.299 127.75 109.396 126.859 110.284C125.969 110.937 125.078 111.381 123.766 111.381H26.4297C25.3281 111.381 24.2266 110.937 23.3359 110.284C22.4453 109.396 22 108.299 22 106.968V42.3893H128.195V106.968Z" fill="#FFD15C"/>
<path d="M23.3125 109.91C40.4922 95.2246 57.6719 80.5157 74.8516 65.8302L126.625 110.12" stroke="#F8B64C" stroke-width="5" stroke-miterlimit="10"/>
<path d="M22 42.3893L75.1094 94.4073L128.195 42.3893H22Z" fill="#F8B64C"/>
<path d="M119.828 64.6627C127.219 64.6627 133.211 58.6941 133.211 51.3314C133.211 43.9687 127.219 38 119.828 38C112.437 38 106.445 43.9687 106.445 51.3314C106.445 58.6941 112.437 64.6627 119.828 64.6627Z" fill="#553C78" stroke="#FCFCFC" stroke-width="3" stroke-miterlimit="10"/>
<path d="M122.219 58.429H119.383V47.7592C118.352 48.7165 117.109 49.4402 115.703 49.9072V47.339C116.453 47.1055 117.25 46.6386 118.117 45.9615C118.984 45.2844 119.594 44.4906 119.898 43.6034H122.195V58.429H122.219Z" fill="#FFD15C"/>
</svg>
