<svg width="150" height="150" viewBox="0 0 150 150" fill="none" xmlns="http://www.w3.org/2000/svg">
<circle cx="75" cy="75" r="75" fill="#7858A5"/>
<path d="M122 118.173C122 119.349 121.608 120.329 120.824 121.113C120.04 121.701 119.256 122.093 118.08 122.093H31.8329C30.8529 122.093 29.8728 121.701 29.0886 121.113C28.3045 120.329 27.9126 119.349 27.9126 118.173V60.7399H122V118.173Z" fill="#FFD15C"/>
<path d="M120.824 121.113C120.04 121.701 119.256 122.093 118.08 122.093H31.8329C30.8529 122.093 29.8728 121.701 29.0886 121.113L74.9563 81.7137L120.824 121.113Z" fill="#F8B64C"/>
<path d="M122 60.7398L108.671 70.3446L77.5045 92.6905C75.9364 93.8665 73.7802 93.8665 72.2121 92.6905L41.2416 70.3446L27.9126 60.7398L41.2416 51.1351L70.252 30.3575L72.4082 28.7894C73.9762 27.6133 76.1324 27.6133 77.7005 28.7894L79.8567 30.3575L93.7739 40.3543L100.634 45.2546L108.671 51.1351L122 60.7398Z" fill="#40596B"/>
<path d="M108.671 42.5106V70.3447L77.5046 92.6906C75.9365 93.8666 73.7803 93.8666 72.2122 92.6906L41.2417 70.3447V34.2779C41.2417 32.1217 43.0058 30.3575 45.162 30.3575H96.322L108.671 42.5106Z" fill="#F2F2F2"/>
<path d="M96.518 39.3744C96.518 41.1385 97.8901 42.5106 99.6542 42.5106H108.671L96.5178 30.3575L96.518 39.3744Z" fill="#CDD6E0"/>
<path d="M86.5213 69.7566H89.6575C88.6775 71.9128 87.1092 73.4809 84.953 74.6569C82.6008 76.029 79.6607 76.6171 76.1324 76.6171C72.8002 76.6171 69.8599 76.029 67.5077 74.8529C65.1554 73.6769 63.1953 72.1086 62.0192 69.7566C60.8432 67.6004 60.2551 65.0521 60.2551 62.5041C60.2551 59.5639 60.8432 57.0156 62.2153 54.4674C63.5873 51.9191 65.3515 50.155 67.7037 48.979C70.0559 47.8029 72.8 47.2148 75.7404 47.2148C78.2886 47.2148 80.6407 47.8029 82.6008 48.7829C84.561 49.7629 86.1291 51.1352 87.1092 53.0953C88.0892 54.8595 88.6773 57.0156 88.6773 59.1718C88.6773 61.7201 87.8932 64.0721 86.3251 66.2283C84.3649 68.9726 81.8167 70.1487 78.6805 70.1487C77.8964 70.1487 77.1124 69.9526 76.7203 69.7566C76.3283 69.3645 75.9362 68.9725 75.9362 68.3845C74.7602 69.5606 73.3879 70.1487 71.8199 70.1487C70.0557 70.1487 68.6837 69.5606 67.7035 68.3845C66.5275 67.2085 65.9394 65.6402 65.9394 63.6801C65.9394 61.3278 66.5275 59.1717 67.8995 57.0155C69.4676 54.6632 71.6238 53.4872 74.1721 53.4872C75.9362 53.4872 77.3083 54.2713 78.2884 55.6434L78.6805 53.8793H82.7969L80.4446 64.8561C80.2486 65.6402 80.2486 66.0321 80.2486 66.2282C80.2486 66.4242 80.2486 66.6202 80.4446 66.8163C80.6407 67.0123 80.6407 67.0123 80.8367 67.0123C81.2288 67.0123 82.0127 66.6202 82.7969 66.0323C83.7768 65.2482 84.757 64.2682 85.3451 62.8961C85.9332 61.5241 86.3251 60.1518 86.3251 58.7798C86.3251 56.2315 85.3451 54.0753 83.5808 52.5072C81.8167 50.7431 79.2684 49.959 75.9362 49.959C73.1919 49.959 70.8399 50.5471 68.8797 51.7231C66.9196 52.8991 65.5475 54.4674 64.5673 56.4275C63.5872 58.3877 63.1953 60.5439 63.1953 62.8961C63.1953 65.0523 63.7834 67.0125 64.7634 68.7766C65.9394 70.5407 67.3116 71.9128 69.2718 72.6969C71.2319 73.4811 73.3881 73.873 75.9364 73.873C78.2886 73.873 80.4448 73.4809 82.2089 72.893C83.9731 72.1086 85.3451 71.1287 86.5213 69.7566ZM69.8599 63.484C69.8599 64.8561 70.0559 65.6402 70.644 66.4242C71.2321 67.0123 71.82 67.4042 72.6042 67.4042C73.1923 67.4042 73.7802 67.2081 74.1723 67.0121C74.5643 66.8161 74.9564 66.424 75.3483 66.0321C75.9364 65.444 76.3285 64.464 76.7203 63.2878C77.1124 62.1118 77.3085 60.9356 77.3085 59.9556C77.3085 58.7796 77.1124 57.9954 76.5243 57.2113C75.9362 56.6232 75.3483 56.2313 74.5642 56.2313C73.78 56.2313 72.8 56.6234 72.2119 57.2113C71.4278 57.7994 70.8399 58.7794 70.4478 60.1515C70.0559 61.3278 69.8599 62.5039 69.8599 63.484Z" fill="#7858A5"/>
</svg>
