<svg width="150" height="30" viewBox="0 0 150 30" fill="none" xmlns="http://www.w3.org/2000/svg">
<path d="M140.413 15.0673L135.748 19.9774C135.612 20.1107 135.503 20.272 135.429 20.4514C135.355 20.6308 135.316 20.8244 135.316 21.02C135.316 21.2157 135.355 21.4092 135.429 21.5886C135.503 21.768 135.612 21.9293 135.748 22.0626C136.007 22.3202 136.35 22.4645 136.707 22.4662C136.884 22.4713 137.061 22.4382 137.225 22.3688C137.39 22.2994 137.54 22.1952 137.665 22.0626L142.33 17.1524C142.467 17.0191 142.576 16.8578 142.649 16.6784C142.724 16.499 142.762 16.3055 142.762 16.1099C142.762 15.9142 142.724 15.7206 142.649 15.5413C142.576 15.3619 142.467 15.2005 142.33 15.0673C142.072 14.8097 141.729 14.6654 141.372 14.6637C141.194 14.6585 141.018 14.6916 140.853 14.761C140.688 14.8305 140.538 14.9347 140.413 15.0673ZM139.902 8.54274L129.612 19.372C129.476 19.5054 129.368 19.6667 129.294 19.846C129.219 20.0254 129.181 20.219 129.181 20.4147C129.181 20.6103 129.219 20.8039 129.294 20.9833C129.368 21.1626 129.476 21.3239 129.612 21.4573C129.872 21.7148 130.214 21.8591 130.571 21.8608C130.749 21.866 130.925 21.8328 131.09 21.7634C131.255 21.694 131.405 21.5898 131.53 21.4573L141.819 10.6279C141.955 10.4946 142.064 10.3333 142.138 10.154C142.212 9.97458 142.251 9.78097 142.251 9.58535C142.251 9.38972 142.212 9.19611 142.138 9.01674C142.064 8.83737 141.955 8.676 141.819 8.54274C141.561 8.28369 141.218 8.13921 140.86 8.13921C140.504 8.13921 140.161 8.28369 139.902 8.54274ZM133.703 8.00469L129.037 12.9149C128.901 13.0481 128.793 13.2095 128.718 13.3889C128.644 13.5682 128.605 13.7618 128.605 13.9574C128.605 14.1531 128.644 14.3466 128.718 14.526C128.793 14.7054 128.901 14.8667 129.037 15C129.297 15.2576 129.639 15.4019 129.996 15.4036C130.173 15.4088 130.35 15.3756 130.515 15.3062C130.68 15.2368 130.829 15.1326 130.955 15L135.62 10.0898C135.756 9.95658 135.865 9.79521 135.939 9.61583C136.013 9.43646 136.051 9.24286 136.051 9.04723C136.051 8.8516 136.013 8.65807 135.939 8.47863C135.865 8.29925 135.756 8.13795 135.62 8.00469C135.361 7.74704 135.018 7.60276 134.662 7.60109C134.484 7.59593 134.307 7.62907 134.142 7.69848C133.977 7.7679 133.828 7.87207 133.703 8.00469ZM124.372 15C124.372 12.6187 125.043 10.2909 126.299 8.3109C127.557 6.33094 129.343 4.78773 131.434 3.87645C133.524 2.96517 135.824 2.72674 138.044 3.1913C140.263 3.65587 142.301 4.80257 143.901 6.4864C145.501 8.17025 146.59 10.3155 147.032 12.6511C147.474 14.9867 147.247 17.4075 146.381 19.6075C145.515 21.8076 144.049 23.6879 142.167 25.0109C140.286 26.3339 138.074 27.0401 135.812 27.0401C134.309 27.0417 132.82 26.7313 131.432 26.1268C130.044 25.5223 128.782 24.6355 127.719 23.5171C126.656 22.3988 125.814 21.0709 125.24 19.6094C124.665 18.1479 124.37 16.5816 124.372 15ZM121.623 15C121.623 17.9533 122.455 20.8404 124.015 23.296C125.574 25.7516 127.79 27.6655 130.382 28.7957C132.974 29.9258 135.828 30.2216 138.58 29.6454C141.332 29.0692 143.86 27.6471 145.844 25.5587C147.829 23.4704 149.18 20.8097 149.727 17.9131C150.275 15.0165 149.994 12.0142 148.92 9.28562C147.846 6.55711 146.028 4.225 143.694 2.58421C141.361 0.943424 138.618 0.0676575 135.812 0.0676575C132.05 0.0701524 128.442 1.64418 125.782 4.44399C123.121 7.24381 121.626 11.0405 121.623 15Z" fill="url(#paint0_linear)"/>
<path d="M55.8586 0.00040349C56.036 -0.00411352 56.2125 0.0293352 56.3773 0.0987217C56.5421 0.168109 56.6917 0.271988 56.8172 0.404064C56.9427 0.536139 57.0414 0.69366 57.1073 0.867077C57.1732 1.04049 57.2051 1.22619 57.2008 1.41292V6.39037H59.885C60.0624 6.38585 60.2389 6.4193 60.4037 6.48869C60.5685 6.55807 60.7181 6.66196 60.8436 6.79403C60.9691 6.9261 61.0678 7.08363 61.1338 7.25707C61.1996 7.43044 61.2315 7.61617 61.2271 7.80286C61.2315 7.98963 61.1996 8.17528 61.1338 8.34872C61.0678 8.52217 60.9691 8.6797 60.8436 8.81177C60.7181 8.94384 60.5685 9.04772 60.4037 9.11707C60.2389 9.18649 60.0624 9.21991 59.885 9.21537H57.2008V18.9685C57.1927 19.1719 57.2287 19.3746 57.3063 19.5611C57.3838 19.7475 57.5007 19.913 57.6481 20.0447C57.9371 20.3464 58.3276 20.5157 58.7346 20.5155H59.949C60.1263 20.511 60.3028 20.5445 60.4676 20.6138C60.6324 20.6833 60.782 20.7871 60.9075 20.9192C61.033 21.0513 61.1317 21.2088 61.1977 21.3822C61.2635 21.5556 61.2954 21.7414 61.2911 21.9281C61.2954 22.1148 61.2635 22.3005 61.1977 22.4739C61.1317 22.6474 61.033 22.8049 60.9075 22.937C60.782 23.069 60.6324 23.1729 60.4676 23.2423C60.3028 23.3117 60.1263 23.3451 59.949 23.3406H58.7346C58.178 23.3506 57.6253 23.2426 57.1092 23.0231C56.5931 22.8035 56.1243 22.4769 55.7308 22.0626C55.3372 21.6484 55.0268 21.155 54.8182 20.6119C54.6095 20.0688 54.507 19.487 54.5165 18.9013V1.41292C54.5122 1.22619 54.5439 1.04049 54.6099 0.867077C54.6758 0.69366 54.7745 0.536139 54.9 0.404064C55.0255 0.271988 55.1752 0.168109 55.34 0.0987217C55.5047 0.0293352 55.6812 -0.00411352 55.8586 0.00040349ZM65.2539 3.43081C65.0413 3.44032 64.8295 3.40334 64.6316 3.3222C64.4336 3.24106 64.2538 3.11754 64.1036 2.95945C63.9534 2.80137 63.836 2.61216 63.759 2.40384C63.6819 2.19551 63.6467 1.97261 63.6558 1.74924C63.6614 1.41684 63.7588 1.09333 63.9361 0.818205C64.1134 0.543078 64.363 0.328219 64.6544 0.199847C64.9458 0.0714747 65.2663 0.0351395 65.5773 0.0952758C65.8878 0.155413 66.1747 0.30942 66.4037 0.538506C66.5647 0.69144 66.6939 0.878219 66.7819 1.08677C66.87 1.29533 66.915 1.52101 66.915 1.74924C66.915 1.97746 66.87 2.20314 66.7819 2.4117C66.6939 2.62025 66.5647 2.80703 66.4037 2.95997C66.2537 3.11769 66.0737 3.24094 65.8754 3.32197C65.6778 3.403 65.4658 3.44005 65.2539 3.43081ZM65.3178 6.39037C65.4952 6.38585 65.6713 6.4193 65.8363 6.48869C66.0006 6.55807 66.1506 6.66196 66.2758 6.79403C66.4017 6.9261 66.5002 7.08363 66.566 7.25707C66.6319 7.43044 66.6639 7.61617 66.6593 7.80286V22.0626C66.6639 22.2493 66.6319 22.4351 66.566 22.6084C66.5002 22.7819 66.4017 22.9394 66.2758 23.0715C66.1506 23.2035 66.0006 23.3074 65.8363 23.3768C65.6713 23.4462 65.4952 23.4796 65.3178 23.4751C65.1401 23.4796 64.9636 23.4462 64.7988 23.3768C64.634 23.3074 64.4844 23.2035 64.3589 23.0715C64.2334 22.9394 64.1347 22.7819 64.0687 22.6084C64.0028 22.4351 63.971 22.2493 63.9753 22.0626V7.87012C63.9704 7.68335 64.0019 7.49742 64.0678 7.32391C64.1338 7.1504 64.2328 6.99293 64.3588 6.86121C64.4713 6.70798 64.6171 6.58529 64.7838 6.50339C64.9506 6.42149 65.1336 6.38273 65.3178 6.39037ZM72.9228 22.0626C72.9274 22.2493 72.8954 22.4351 72.8295 22.6084C72.7637 22.7819 72.6652 22.9394 72.5393 23.0715C72.4141 23.2035 72.2641 23.3074 72.0997 23.3768C71.9347 23.4462 71.758 23.4796 71.5806 23.4751H71.5167C71.3393 23.4796 71.1632 23.4462 70.9982 23.3768C70.8332 23.3074 70.6839 23.2035 70.558 23.0715C70.4328 22.9394 70.3343 22.7819 70.2684 22.6084C70.2019 22.4351 70.1706 22.2493 70.1745 22.0626V13.453C70.1537 12.5233 70.3187 11.5993 70.6604 10.7416C71.0015 9.88382 71.5115 9.11163 72.1558 8.47549C72.8315 7.76114 73.6447 7.20684 74.5402 6.84967C75.4363 6.4925 76.3937 6.34067 77.3497 6.40434C78.3058 6.46802 79.2378 6.74572 80.0837 7.21891C80.9289 7.69207 81.6691 8.34984 82.2541 9.14812C82.8319 8.35061 83.5663 7.69298 84.4063 7.21968C85.2469 6.74637 86.1743 6.46844 87.1252 6.40468C88.0767 6.34091 89.0295 6.49279 89.9204 6.85005C90.8113 7.20733 91.6187 7.76163 92.2878 8.47549C92.9158 9.12503 93.4147 9.89972 93.7545 10.7543C94.095 11.609 94.2698 12.5264 94.2691 13.453V22.0626C94.2737 22.2493 94.2417 22.4351 94.1758 22.6084C94.11 22.7819 94.0115 22.9394 93.8856 23.0715C93.7604 23.2035 93.6104 23.3074 93.446 23.3768C93.281 23.4462 93.1043 23.4796 92.9269 23.4751C92.7495 23.4796 92.5734 23.4462 92.4084 23.3768C92.2434 23.3074 92.0941 23.2035 91.9682 23.0715C91.843 22.9394 91.7445 22.7819 91.6787 22.6084C91.6128 22.4351 91.5808 22.2493 91.5847 22.0626V13.453C91.5847 12.347 91.1674 11.2862 90.4245 10.5041C89.681 9.72203 88.6734 9.2827 87.6228 9.2827C86.5715 9.2827 85.5639 9.72203 84.8204 10.5041C84.0776 11.2862 83.6602 12.347 83.6602 13.453V22.0626C83.6641 22.2493 83.6328 22.4351 83.5663 22.6084C83.5004 22.7819 83.4019 22.9394 83.2767 23.0715C83.1508 23.2035 83.0015 23.3074 82.8365 23.3768C82.6715 23.4462 82.4954 23.4796 82.318 23.4751C82.1406 23.4796 81.9639 23.4462 81.7995 23.3768C81.6345 23.3074 81.4845 23.2035 81.3593 23.0715C81.2341 22.9394 81.135 22.7819 81.0691 22.6084C81.0032 22.4351 80.9713 22.2493 80.9758 22.0626V13.453C80.9758 12.347 80.5584 11.2862 79.815 10.5041C79.0721 9.72203 78.0639 9.2827 77.0132 9.2827C75.9626 9.2827 74.9543 9.72203 74.2115 10.5041C73.468 11.2862 73.0506 12.347 73.0506 13.453V22.0626H72.9228ZM112.292 11.4351C112.44 11.7729 112.463 12.1567 112.356 12.5113C112.212 12.8541 111.965 13.1376 111.653 13.3185C110.247 13.9911 108.458 14.8655 106.157 15.9417C103.345 17.2869 101.555 18.1614 100.724 18.5649C101.219 19.2458 101.858 19.7953 102.59 20.1691C103.323 20.5429 104.129 20.7306 104.943 20.7173C106.072 20.743 107.176 20.3635 108.074 19.6411C108.97 18.9547 109.641 17.9905 109.992 16.8834C110.06 16.5903 110.228 16.3333 110.463 16.1602C110.698 15.9871 110.984 15.9094 111.269 15.9417C111.485 15.9361 111.698 15.9889 111.888 16.0949C112.079 16.2009 112.24 16.3566 112.356 16.547C112.48 16.7296 112.563 16.9402 112.596 17.1621C112.629 17.384 112.613 17.6111 112.548 17.825C111.995 19.4798 110.967 20.9132 109.608 21.9281C108.398 22.8526 106.969 23.4063 105.478 23.5278C103.987 23.6491 102.494 23.3336 101.163 22.616C99.8328 21.8984 98.7169 20.8068 97.9402 19.4625C97.1634 18.1181 96.7552 16.5735 96.7617 15C96.7532 13.4607 97.1426 11.9479 97.888 10.6234C98.6328 9.29882 99.7063 8.2124 100.993 7.48012C102.279 6.74784 103.731 6.39732 105.192 6.46602C106.653 6.53472 108.069 7.02007 109.289 7.87012C110.622 8.69505 111.674 9.94291 112.292 11.4351ZM104.943 9.34996C104.231 9.34682 103.527 9.49305 102.869 9.78007C102.213 10.0672 101.617 10.4893 101.117 11.0217C100.617 11.5541 100.223 12.1861 99.958 12.8808C99.6932 13.5755 99.5628 14.3188 99.5739 15.0673C99.5634 15.3381 99.585 15.6092 99.6378 15.8744L109.033 11.3678C108.543 10.7244 107.92 10.2079 107.211 9.858C106.501 9.50819 105.725 9.33433 104.943 9.34996Z" fill="#494444"/>
<path d="M51.1294 6.86121C51.0042 6.72862 50.8546 6.62442 50.6897 6.55501C50.5249 6.4856 50.3482 6.45246 50.1707 6.45763C49.9933 6.45311 49.8169 6.48656 49.6521 6.55595C49.4872 6.62534 49.3376 6.72922 49.2121 6.86129C49.0866 6.99335 48.9879 7.15088 48.922 7.32432C48.8561 7.4977 48.8242 7.68342 48.8286 7.87012V16.0762C48.8286 17.1823 48.4111 18.243 47.668 19.025C46.9249 19.8071 45.917 20.2465 44.8661 20.2465C43.8152 20.2465 42.8073 19.8071 42.0641 19.025C41.321 18.243 40.9036 17.1823 40.9036 16.0762V7.87012C40.9079 7.68342 40.8761 7.4977 40.8101 7.32432C40.7442 7.15088 40.6455 6.99335 40.52 6.86129C40.3945 6.72922 40.2448 6.62534 40.0801 6.55595C39.9153 6.48656 39.7389 6.45311 39.5614 6.45763H39.4975C39.3201 6.45311 39.1436 6.48656 38.9789 6.55595C38.8141 6.62534 38.6644 6.72922 38.5389 6.86129C38.4135 6.99335 38.3147 7.15088 38.2488 7.32432C38.1828 7.4977 38.1511 7.68342 38.1554 7.87012V16.0762C38.1341 17.0059 38.2996 17.9299 38.641 18.7876C38.9824 19.6453 39.4921 20.4175 40.1366 21.0537C40.7574 21.7281 41.5031 22.2612 42.3277 22.6199C43.1522 22.9785 44.0379 23.1552 44.93 23.1388C46.3534 23.147 47.742 22.6756 48.8925 21.7935V22.8698C48.9037 23.4259 48.8011 23.978 48.5916 24.4887C48.382 24.9994 48.0705 25.4566 47.6782 25.8293C47.3117 26.2208 46.8735 26.5301 46.3901 26.7382C45.9067 26.9463 45.3883 27.049 44.8661 27.0401C44.0533 27.0565 43.2536 26.8227 42.5653 26.3674C42.3086 26.158 41.9951 26.0402 41.6705 26.0311C41.2986 26.0346 40.9429 26.1916 40.68 26.4684C40.417 26.7451 40.2678 27.1195 40.2645 27.5109C40.2658 27.7781 40.3383 28.0396 40.4739 28.2656C40.6095 28.4915 40.8026 28.6728 41.0314 28.7888L41.0953 28.8562C42.2522 29.5867 43.5811 29.9597 44.93 29.9323C46.7094 29.8748 48.401 29.1052 49.6598 27.7804C50.9186 26.4555 51.6499 24.6752 51.7046 22.8025V7.87012C51.5659 7.50335 51.3717 7.1626 51.1294 6.86121Z" fill="#494444"/>
<path d="M32.659 8.94635C31.1276 7.35258 29.0607 6.45872 26.907 6.45872C24.7532 6.45872 22.6864 7.35258 21.155 8.94635C20.3881 9.7313 19.7825 10.6737 19.3758 11.7149C18.969 12.7562 18.7697 13.8743 18.7903 15C18.7846 16.1235 18.9906 17.237 19.3965 18.2761C19.8024 19.3152 20.4001 20.2593 21.1549 21.0537C21.9097 21.8481 22.8068 22.4771 23.7941 22.9043C24.7815 23.3315 25.8395 23.5483 26.907 23.5423C28.8892 23.5564 30.8045 22.7884 32.2755 21.3899V22.1298C32.2712 22.3166 32.303 22.5023 32.3689 22.6757C32.4348 22.8491 32.5336 23.0067 32.6591 23.1387C32.7845 23.2708 32.9342 23.3747 33.099 23.444C33.2638 23.5134 33.4402 23.5469 33.6176 23.5423H33.6815C33.859 23.5469 34.0354 23.5134 34.2002 23.444C34.365 23.3747 34.5146 23.2708 34.6402 23.1387C34.7657 23.0067 34.8643 22.8491 34.9303 22.6757C34.9962 22.5023 35.028 22.3166 35.0237 22.1298V15C35.0503 13.8735 34.8538 12.7535 34.4466 11.7113C34.0395 10.669 33.4307 9.72746 32.659 8.94635ZM30.6777 18.9685C30.1861 19.4927 29.5983 19.906 28.95 20.1836C28.3018 20.4611 27.6067 20.597 26.907 20.5828C25.4762 20.5993 24.0975 20.0189 23.0723 18.9685C22.5684 18.4416 22.1724 17.8117 21.9086 17.1177C21.6448 16.4235 21.5188 15.68 21.5385 14.9327C21.525 14.1963 21.6541 13.4648 21.9178 12.7825C22.1814 12.1003 22.5742 11.4816 23.0723 10.9642C23.5694 10.4244 24.1658 9.99697 24.8251 9.70786C25.4844 9.41874 26.1928 9.27404 26.907 9.28263C27.6129 9.26553 28.3142 9.4066 28.9642 9.69649C29.6143 9.98644 30.1984 10.4186 30.6777 10.9642C31.1846 11.4781 31.5874 12.0946 31.862 12.7766C32.1365 13.4586 32.2772 14.192 32.2755 14.9327C32.2983 15.6864 32.1675 16.4366 31.8918 17.1327C31.6163 17.8288 31.2023 18.4547 30.6777 18.9685Z" fill="#494444"/>
<path d="M13.8691 8.94635C13.1232 8.13928 12.2279 7.50196 11.2385 7.07386C10.249 6.64581 9.18665 6.43606 8.11709 6.45764C7.04961 6.45167 5.99159 6.66854 5.00427 7.0957C4.01694 7.52289 3.1199 8.15191 2.36506 8.94635C1.61022 9.74072 1.01257 10.6848 0.606669 11.7239C0.200776 12.7631 -0.0052933 13.8765 0.000383386 15V28.5871C-0.00390856 28.7738 0.0278735 28.9595 0.0938028 29.1329C0.159732 29.3064 0.258436 29.4639 0.38393 29.596C0.509425 29.7281 0.659094 29.8319 0.823872 29.9013C0.98865 29.9707 1.1651 30.0041 1.34252 29.9996H1.40643C1.58386 30.0041 1.7603 29.9707 1.92507 29.9013C2.08985 29.8319 2.23953 29.7281 2.36502 29.596C2.49052 29.4639 2.58922 29.3064 2.65514 29.1329C2.72107 28.9595 2.75286 28.7738 2.74857 28.5871V21.39C4.21954 22.7884 6.13486 23.5564 8.11709 23.5424C9.18457 23.5483 10.2426 23.3315 11.23 22.9043C12.2173 22.4771 13.1143 21.8481 13.8691 21.0537C14.624 20.2593 15.2217 19.3152 15.6275 18.2761C16.0334 17.237 16.2395 16.1235 16.2339 15C16.2604 13.8735 16.0639 12.7535 15.6567 11.7113C15.2497 10.6691 14.6409 9.72747 13.8691 8.94635ZM11.9518 18.9013C11.4561 19.4337 10.8644 19.8567 10.2115 20.1455C9.55852 20.4343 8.85737 20.583 8.14904 20.583C7.44078 20.583 6.73963 20.4343 6.08666 20.1455C5.43369 19.8567 4.84203 19.4337 4.34635 18.9013C3.84832 18.3838 3.45551 17.7652 3.19181 17.0829C2.92812 16.4007 2.79906 15.6691 2.81247 14.9327C2.79676 13.427 3.34826 11.9759 4.34635 10.897C4.84698 10.3667 5.44547 9.94989 6.10497 9.67221C6.76448 9.39461 7.47098 9.26205 8.181 9.2827C8.88072 9.26854 9.57581 9.40438 10.2241 9.68191C10.8723 9.95945 11.4601 10.3728 11.9518 10.897C12.4647 11.4202 12.8709 12.0479 13.1455 12.7417C13.4202 13.4356 13.5577 14.1811 13.5496 14.9327C13.5237 16.4231 12.9511 17.8451 11.9518 18.9013Z" fill="#494444"/>
<defs>
<linearGradient id="paint0_linear" x1="121.623" y1="13.238" x2="150.057" y2="13.238" gradientUnits="userSpaceOnUse">
<stop stop-color="#25B7E4"/>
<stop offset="0.009" stop-color="#25B7E4"/>
<stop offset="0.531" stop-color="#4286C4"/>
<stop offset="0.686" stop-color="#5278B9"/>
<stop offset="0.985" stop-color="#7B539D"/>
<stop offset="1" stop-color="#7D519B"/>
</linearGradient>
</defs>
</svg>
