<svg width="20" height="20" viewBox="0 0 20 20" fill="none" xmlns="http://www.w3.org/2000/svg">
<path d="M10 0C4.4823 0 0 4.4823 0 10C0 15.5177 4.4823 20 10 20C15.5177 20 20 15.5177 20 10C20 4.4823 15.5177 0 10 0ZM10 0.869565C15.0477 0.869565 19.1304 4.95225 19.1304 10C19.1304 15.0477 15.0477 19.1304 10 19.1304C4.95225 19.1304 0.869565 15.0477 0.869565 10C0.869565 4.95225 4.95225 0.869565 10 0.869565ZM9.56522 4.78261V9.56522H4.78261V10.4348H9.56522V15.2174H10.4348V10.4348H15.2174V9.56522H10.4348V4.78261H9.56522Z" fill="#98AFBC"/>
</svg>
