<svg width="136" height="136" viewBox="0 0 136 136" fill="none" xmlns="http://www.w3.org/2000/svg">
<g filter="url(#filter0_d)">
<path d="M66.4991 20V66.4991H20C20.7705 41.1632 41.1632 20.7705 66.4991 20Z" fill="#8E62CC"/>
<path d="M20 69.5009H66.4991V116C41.1632 115.23 20.7705 94.8368 20 69.5009Z" fill="#8E62CC"/>
<path d="M69.501 69.5009H116C115.23 94.8368 94.8368 115.23 69.501 116V69.5009Z" fill="#8E62CC"/>
<path d="M116 66.4991H69.501V20C94.8368 20.7705 115.23 41.1632 116 66.4991Z" fill="#8E62CC"/>
</g>
<path d="M68 110C91.196 110 110 91.196 110 68C110 44.804 91.196 26 68 26C44.804 26 26 44.804 26 68C26 91.196 44.804 110 68 110Z" fill="white"/>
<defs>
<filter id="filter0_d" x="0" y="0" width="136" height="136" filterUnits="userSpaceOnUse" color-interpolation-filters="sRGB">
<feFlood flood-opacity="0" result="BackgroundImageFix"/>
<feColorMatrix in="SourceAlpha" type="matrix" values="0 0 0 0 0 0 0 0 0 0 0 0 0 0 0 0 0 0 127 0"/>
<feOffset/>
<feGaussianBlur stdDeviation="10"/>
<feColorMatrix type="matrix" values="0 0 0 0 0.176471 0 0 0 0 0.341176 0 0 0 0 0.407843 0 0 0 0.149 0"/>
<feBlend mode="normal" in2="BackgroundImageFix" result="effect1_dropShadow"/>
<feBlend mode="normal" in="SourceGraphic" in2="effect1_dropShadow" result="shape"/>
</filter>
</defs>
</svg>
