<svg width="20" height="20" viewBox="0 0 20 20" fill="none" xmlns="http://www.w3.org/2000/svg">
<path d="M10 0C4.4823 0 0 4.4823 0 10C0 15.5177 4.4823 20 10 20C15.5177 20 20 15.5177 20 10C20 4.4823 15.5177 0 10 0ZM10 0.869565C15.0477 0.869565 19.1304 4.95225 19.1304 10C19.1304 15.0477 15.0477 19.1304 10 19.1304C4.95225 19.1304 0.869565 15.0477 0.869565 10C0.869565 4.95225 4.95225 0.869565 10 0.869565ZM10.1257 4.56861C8.50394 4.56861 7.42864 5.55128 7.19429 7.04823C7.17908 7.14215 7.22521 7.20412 7.31912 7.21977L8.30163 7.39215C8.39554 7.40781 8.45751 7.3608 8.47317 7.26732C8.66012 6.31602 9.22122 5.7855 10.0943 5.7855C10.9834 5.7855 11.6067 6.34721 11.6067 7.2359C11.6067 7.76634 11.4199 8.12487 10.8747 8.87313L9.82931 10.3074C9.50192 10.76 9.36226 11.0876 9.36226 11.712V12.3505C9.36226 12.444 9.42418 12.5068 9.51766 12.5051H10.5469C10.6404 12.5051 10.7023 12.4432 10.7023 12.3497V11.8512C10.7023 11.3212 10.7964 11.1028 11.1082 10.6819L12.1527 9.24677C12.6831 8.51373 12.9475 7.96846 12.9475 7.21977C12.9475 5.67586 11.8092 4.56861 10.1257 4.56861ZM9.44039 13.6923C9.34647 13.6923 9.28414 13.755 9.28414 13.8485V15.1894C9.28414 15.2828 9.34604 15.3448 9.44039 15.3448H10.6258C10.7189 15.3448 10.7812 15.2833 10.7812 15.1894V13.8485C10.7812 13.7555 10.7193 13.6923 10.6258 13.6923H9.44039Z" fill="#1DBDE6"/>
</svg>
