<svg width="40" height="40" viewBox="0 0 40 40" fill="none" xmlns="http://www.w3.org/2000/svg">
<path d="M39 36C39 37.65 37.65 39 36 39H25V40H36C38.21 40 40 38.21 40 36V26H39V36ZM36 0H25V1H36C37.65 1 39 2.35 39 4V16H40V4C40 1.79 38.21 0 36 0ZM1 36V26H0V36C0 38.21 1.79 40 4 40H15V39H4C2.35 39 1 37.65 1 36ZM0 4V16H1V4C1 2.35 2.35 1 4 1H15V0H4C1.79 0 0 1.79 0 4Z" />
<path d="M20 10C17.2474 10 14.7444 11.1233 12.9336 12.9336L11 11V16H16L14.3457 14.3457C15.794 12.896 17.7903 12 20 12C24.4195 12 28 15.5805 28 20H30C30 14.4955 25.5045 10 20 10ZM19.7129 13.5996V15.0273C19.3739 15.0703 17.4766 15.4288 17.4766 17.7188C17.4766 21.0597 20.9355 20.0698 20.9355 22.2988C20.9355 23.4148 20.2134 23.4414 20.0664 23.4414C19.9324 23.4414 19.0527 23.5127 19.0527 21.8047H17.1621C17.1621 24.6967 19.2603 24.9277 19.5723 24.9707V26.3008H20.5742V24.9707C20.9122 24.9287 22.8242 24.6132 22.8242 22.2852C22.8242 19.0802 19.3662 19.6936 19.3652 17.7266C19.3652 16.5996 19.9851 16.5645 20.1191 16.5645C20.3641 16.5645 20.9473 16.7813 20.9473 18.1543H22.8379C22.8379 15.5273 21.0417 15.1176 20.7207 15.0566V13.5996H19.7129ZM10 20C10 25.5045 14.4955 30 20 30C22.7526 30 25.2556 28.8767 27.0664 27.0664L29 29V24H24L25.6543 25.6543C24.206 27.104 22.2097 28 20 28C15.5805 28 12 24.4195 12 20H10Z" />
</svg>
