<svg width="20" height="20" viewBox="0 0 20 20" fill="none" xmlns="http://www.w3.org/2000/svg">
<rect width="20" height="20" fill="white"/>
<path d="M8.22363 0C7.49289 0 6.89135 0.588933 6.89135 1.30435V2.17391H3.40713C3.38219 2.16983 3.35695 2.16784 3.33167 2.16797C3.31015 2.16843 3.2887 2.17041 3.26748 2.17391H2.45042C2.39157 2.1731 2.33314 2.18374 2.27853 2.20523C2.22393 2.22671 2.17422 2.25861 2.13231 2.29906C2.0904 2.33951 2.05713 2.38772 2.03441 2.44088C2.0117 2.49403 2 2.55108 2 2.6087C2 2.66632 2.0117 2.72336 2.03441 2.77652C2.05713 2.82967 2.0904 2.87788 2.13231 2.91833C2.17422 2.95878 2.22393 2.99068 2.27853 3.01216C2.33314 3.03365 2.39157 3.04429 2.45042 3.04348H2.89451V18.6957C2.89451 19.4111 3.49606 20 4.22679 20H15.7732C16.5039 20 17.1055 19.4111 17.1055 18.6957V3.04348H17.5496C17.6084 3.04429 17.6669 3.03365 17.7215 3.01216C17.7761 2.99068 17.8258 2.95878 17.8677 2.91833C17.9096 2.87788 17.9429 2.82967 17.9656 2.77652C17.9883 2.72336 18 2.66632 18 2.6087C18 2.55108 17.9883 2.49403 17.9656 2.44088C17.9429 2.38772 17.9096 2.33951 17.8677 2.29906C17.8258 2.25861 17.7761 2.22671 17.7215 2.20523C17.6669 2.18374 17.6084 2.1731 17.5496 2.17391H16.736C16.688 2.16615 16.6391 2.16615 16.5911 2.17391H13.1087V1.30435C13.1087 0.588933 12.5071 0 11.7764 0H8.22363ZM8.22363 0.869565H11.7764C12.0226 0.869565 12.2205 1.06324 12.2205 1.30435V2.17391H7.77953V1.30435C7.77953 1.06324 7.97736 0.869565 8.22363 0.869565ZM3.7827 3.04348H7.26085C7.30881 3.05124 7.35774 3.05124 7.4057 3.04348H12.59C12.6379 3.05124 12.6869 3.05124 12.7348 3.04348H16.2173V18.6957C16.2173 18.9368 16.0195 19.1304 15.7732 19.1304H4.22679C3.98052 19.1304 3.7827 18.9368 3.7827 18.6957V3.04348ZM7.3285 5.21145C7.21087 5.21325 7.09878 5.26066 7.01682 5.34329C6.93486 5.42592 6.88974 5.53701 6.89135 5.65217V16.5217C6.89052 16.5794 6.90139 16.6366 6.92333 16.69C6.94528 16.7435 6.97786 16.7921 7.01918 16.8332C7.0605 16.8742 7.10973 16.9068 7.16403 16.929C7.21832 16.9513 7.27659 16.9627 7.33544 16.9627C7.39429 16.9627 7.45256 16.9513 7.50686 16.929C7.56115 16.9068 7.61039 16.8742 7.65171 16.8332C7.69303 16.7921 7.72561 16.7435 7.74755 16.69C7.76949 16.6366 7.78037 16.5794 7.77953 16.5217V5.65217C7.78035 5.594 7.76923 5.53627 7.74684 5.48238C7.72445 5.42849 7.69125 5.37955 7.64919 5.33846C7.60713 5.29736 7.55708 5.26494 7.50199 5.24313C7.44691 5.22131 7.38792 5.21054 7.3285 5.21145ZM9.99306 5.21145C9.87543 5.21325 9.76334 5.26066 9.68138 5.34329C9.59942 5.42592 9.5543 5.53701 9.55591 5.65217V16.5217C9.55507 16.5794 9.56595 16.6366 9.58789 16.69C9.60983 16.7435 9.64241 16.7921 9.68373 16.8332C9.72505 16.8742 9.77429 16.9068 9.82859 16.929C9.88288 16.9513 9.94115 16.9627 10 16.9627C10.0589 16.9627 10.1171 16.9513 10.1714 16.929C10.2257 16.9068 10.2749 16.8742 10.3163 16.8332C10.3576 16.7921 10.3902 16.7435 10.4121 16.69C10.4341 16.6366 10.4449 16.5794 10.4441 16.5217V5.65217C10.4449 5.594 10.4338 5.53627 10.4114 5.48238C10.389 5.42849 10.3558 5.37955 10.3137 5.33846C10.2717 5.29736 10.2216 5.26494 10.1666 5.24313C10.1115 5.22131 10.0525 5.21054 9.99306 5.21145ZM12.6576 5.21145C12.54 5.21325 12.4279 5.26066 12.3459 5.34329C12.264 5.42592 12.2189 5.53701 12.2205 5.65217V16.5217C12.2196 16.5794 12.2305 16.6366 12.2524 16.69C12.2744 16.7435 12.307 16.7921 12.3483 16.8332C12.3896 16.8742 12.4388 16.9068 12.4931 16.929C12.5474 16.9513 12.6057 16.9627 12.6646 16.9627C12.7234 16.9627 12.7817 16.9513 12.836 16.929C12.8903 16.9068 12.9395 16.8742 12.9808 16.8332C13.0221 16.7921 13.0547 16.7435 13.0767 16.69C13.0986 16.6366 13.1095 16.5794 13.1087 16.5217V5.65217C13.1095 5.594 13.0983 5.53627 13.076 5.48238C13.0536 5.42849 13.0204 5.37955 12.9783 5.33846C12.9362 5.29736 12.8862 5.26494 12.8311 5.24313C12.776 5.22131 12.717 5.21054 12.6576 5.21145Z" fill="#98AFBC"/>
</svg>
