<svg width="40" height="40" viewBox="0 0 40 40" fill="none" xmlns="http://www.w3.org/2000/svg">
<path d="M39 36C39 37.65 37.65 39 36 39H25V40H36C38.21 40 40 38.21 40 36V26H39V36ZM36 0H25V1H36C37.65 1 39 2.35 39 4V16H40V4C40 1.79 38.21 0 36 0ZM1 36V26H0V36C0 38.21 1.79 40 4 40H15V39H4C2.35 39 1 37.65 1 36ZM0 4V16H1V4C1 2.35 2.35 1 4 1H15V0H4C1.79 0 0 1.79 0 4Z" />
<path d="M11 10C10.448 10 10 10.448 10 11V21C10 21.552 10.448 22 11 22H29C29.552 22 30 21.552 30 21V11C30 10.448 29.552 10 29 10H11ZM12.9121 12H27.0879C27.1625 12.2103 27.2831 12.4013 27.4409 12.5591C27.5987 12.7169 27.7897 12.8375 28 12.9121V19.0879C27.7897 19.1625 27.5987 19.2831 27.4409 19.4409C27.2831 19.5987 27.1625 19.7897 27.0879 20H12.9121C12.8375 19.7897 12.7169 19.5987 12.5591 19.4409C12.4013 19.2831 12.2103 19.1625 12 19.0879V12.9121C12.2103 12.8375 12.4013 12.7169 12.5591 12.5591C12.7169 12.4013 12.8375 12.2103 12.9121 12ZM20 13C19.2044 13 18.4413 13.3161 17.8787 13.8787C17.3161 14.4413 17 15.2044 17 16C17 16.7956 17.3161 17.5587 17.8787 18.1213C18.4413 18.6839 19.2044 19 20 19C20.7956 19 21.5587 18.6839 22.1213 18.1213C22.6839 17.5587 23 16.7956 23 16C23 15.2044 22.6839 14.4413 22.1213 13.8787C21.5587 13.3161 20.7956 13 20 13ZM15 15C14.448 15 14 15.447 14 16C14 16.553 14.448 17 15 17C15.552 17 16 16.553 16 16C16 15.447 15.552 15 15 15ZM25 15C24.448 15 24 15.447 24 16C24 16.553 24.448 17 25 17C25.552 17 26 16.553 26 16C26 15.447 25.552 15 25 15ZM19 24V26H15.9512L19.9512 30L23.9512 26H21V24H19Z" />
</svg>
