<svg width="20" height="20" viewBox="0 0 20 20" fill="none" xmlns="http://www.w3.org/2000/svg">
<path fill-rule="evenodd" clip-rule="evenodd" d="M0 9.09091C0 14.1016 4.08026 18.1818 9.09091 18.1818C10.4297 18.1818 11.701 17.8906 12.8445 17.3686C12.7663 17.0277 12.7273 16.6868 12.7273 16.3636V15.3942C11.6584 16.0121 10.4155 16.3636 9.09091 16.3636C5.06392 16.3636 1.81818 13.1179 1.81818 9.09091C1.81818 5.06392 5.06392 1.81818 9.09091 1.81818C12.4964 1.81818 15.3409 4.13707 16.1399 7.28693C16.2145 7.27628 16.2891 7.27273 16.3636 7.27273H17.9972C17.152 3.12855 13.4801 0 9.09091 0C4.08026 0 0 4.08026 0 9.09091ZM10 8.71449V3.63636H8.18182V9.46733L12.0845 13.37L12.7273 12.7273L13.1818 12.2727L10 8.71449ZM18.1818 18.9098C19.4531 18.544 20 17.2727 20 16.3636C20 14.6695 18.597 14.1114 17.6855 13.7488C17.6685 13.7421 17.6516 13.7353 17.6349 13.7287C16.5447 13.2741 16.3636 13.1818 16.3636 12.7273C16.3636 11.9993 16.8182 11.8182 17.2727 11.8182C18.0007 11.8182 18.1818 12.2727 18.1818 12.7273H20C20 11.8182 19.4531 10.5469 18.1818 10.1811V9.09091H16.3636V10.1811C15.4545 10.4545 14.5455 11.2713 14.5455 12.7273C14.5455 14.4214 15.9485 14.9795 16.8599 15.3421C16.877 15.3489 16.8938 15.3556 16.9105 15.3622C18.0007 15.8168 18.1818 15.9091 18.1818 16.3636C18.1818 16.8182 18.0007 17.2727 17.2727 17.2727C16.5447 17.2727 16.3636 16.8182 16.3636 16.3636H14.5455C14.5455 17.2727 15.0923 18.544 16.3636 18.9098V20H18.1818V18.9098Z"/>
</svg>
