<svg width="20" height="20" viewBox="0 0 20 20" fill="none" xmlns="http://www.w3.org/2000/svg">
<path d="M14.9095 2C12.851 2 11.1821 3.59269 11.1821 5.5571C11.1821 7.52151 12.851 9.1142 14.9095 9.1142C16.9679 9.1142 18.6368 7.52151 18.6368 5.5571C18.6368 3.59269 16.9679 2 14.9095 2ZM14.9095 3.77855C15.9391 3.77855 16.7731 4.57445 16.7731 5.5571C16.7731 6.53975 15.9391 7.33565 14.9095 7.33565C13.8798 7.33565 13.0458 6.53975 13.0458 5.5571C13.0458 4.57445 13.8798 3.77855 14.9095 3.77855ZM4.6592 9.1142C4.38804 9.1142 4.13175 9.16209 3.88388 9.23057L0 10.099V16.5028L3.72736 15.3391L11.3277 17.8767C11.5746 17.9594 11.8313 18 12.0866 18C12.4612 18 12.834 17.9137 13.1714 17.7412L20 14.2571L18.9025 12.02L12.2268 15.2332L11.6371 15.0682L12.1212 13.9409C12.5452 13.0383 12.1162 11.978 11.1657 11.5823L5.69843 9.31046C5.37601 9.18686 5.02728 9.1142 4.6592 9.1142ZM4.6592 10.8927C4.76543 10.8927 4.87503 10.9127 4.98499 10.9518L10.4195 13.2115L10.4068 13.2393L10.394 13.267L9.91173 14.3943L9.49131 15.3791L4.34252 13.6596L3.74738 13.4616L3.1486 13.6474L1.86368 14.0504V11.5093L4.30794 10.9622L4.35708 10.9518L4.40258 10.9396C4.51441 10.9094 4.6005 10.8927 4.6592 10.8927Z" />
</svg>
