<svg width="20" height="20" viewBox="0 0 20 20" fill="none" xmlns="http://www.w3.org/2000/svg">
<path d="M10 0C7.55856 0 5.55556 2.00301 5.55556 4.44444C5.55556 6.88588 7.55856 8.88889 10 8.88889C12.4414 8.88889 14.4444 6.88588 14.4444 4.44444C14.4444 2.00301 12.4414 0 10 0ZM10 2.22222C11.2405 2.22222 12.2222 3.20398 12.2222 4.44444C12.2222 5.6849 11.2405 6.66667 10 6.66667C8.75954 6.66667 7.77778 5.6849 7.77778 4.44444C7.77778 3.20398 8.75954 2.22222 10 2.22222ZM10 12.2222C8.06116 12.2222 5.76352 12.6775 3.83247 13.4397C2.86694 13.8207 1.99411 14.2734 1.29557 14.8546C0.597039 15.4358 0 16.2215 0 17.2222V20H20V18.8889V17.2222C20 16.2215 19.403 15.4358 18.7044 14.8546C18.0059 14.2734 17.1331 13.8207 16.1675 13.4397C14.2365 12.6775 11.9388 12.2222 10 12.2222ZM10 14.4444C11.5712 14.4444 13.7178 14.86 15.3537 15.5056C16.1717 15.8285 16.8633 16.2133 17.283 16.5625C17.7027 16.9117 17.7778 17.1496 17.7778 17.2222V17.7778H2.22222V17.2222C2.22222 17.1496 2.29732 16.9117 2.71701 16.5625C3.13671 16.2133 3.82832 15.8285 4.64627 15.5056C6.28216 14.86 8.42884 14.4444 10 14.4444Z" />
</svg>
