<svg width="20" height="20" viewBox="0 0 20 20" fill="none" xmlns="http://www.w3.org/2000/svg">
<path d="M8.57568 2C7.52369 2 6.67163 2.84235 6.67163 3.88235V4.50368L1.14727 8.22059C0.74003 8.47724 0.384075 8.8389 0.202678 9.26838C0.0212798 9.69787 0.00743771 10.1015 0.00743771 10.5L0 16.1176C0 17.1464 0.863429 18 1.90405 18H7.2183C8.5578 18 9.80902 17.3532 10.5839 16.2794L10.5876 16.2757L13.8137 12.6838L13.8416 12.6452C13.91 12.5518 13.9675 12.4533 14.0201 12.3529H18.0959C19.1479 12.3529 20 11.5106 20 10.4706V7.64706V5.76471V3.88235C20 2.84235 19.1479 2 18.0959 2H8.57568ZM8.57568 3.88235H18.0959V5.76471H8.57568V3.88235ZM6.67163 6.77941V7.64706V10.4706C6.67163 11.0449 6.93549 11.5537 7.3466 11.8971L8.11268 13.1599L12.1123 10.7941L12.2908 11.0202C12.4123 11.1735 12.4128 11.3751 12.3001 11.5349L9.11677 15.079L9.07958 15.1324C8.66429 15.7485 7.96722 16.1176 7.2183 16.1176H1.90405L1.91149 10.5C1.91149 10.1785 1.94231 10.0316 1.95798 9.99449C1.97365 9.95738 1.96789 9.93617 2.16995 9.80882L2.18297 9.80147L6.67163 6.77941ZM8.57568 7.64706H18.0959V10.4706H14.1316C14.0499 10.2551 13.9381 10.0481 13.7895 9.86029V9.85846L12.5772 8.32537L8.95128 10.4706H8.57568V7.64706Z" />
</svg>
