<svg width="20" height="20" viewBox="0 0 20 20" fill="none" xmlns="http://www.w3.org/2000/svg">
<path fill-rule="evenodd" clip-rule="evenodd" d="M16.2227 5.48352L10.8892 0H3.77783C2.80513 0 2 0.82778 2 1.82784V16.4506C2 17.4506 2.80513 18.2784 3.77783 18.2784H11.308C11.0415 17.6777 10.9051 17.0409 10.8905 16.4506H3.77783V1.82784H10.0003V6.39745H14.4448V7.2051H16.2227V5.48352ZM16.222 18.9033C17.4665 18.5377 17.9998 17.2582 17.9998 16.3443C17.9998 14.6426 16.6338 14.0819 15.7425 13.7161C15.7243 13.7086 15.7064 13.7013 15.6886 13.694C14.6219 13.237 14.4441 13.1456 14.4441 12.6886C14.4441 11.9575 14.8886 11.7747 15.333 11.7747C16.0442 11.7747 16.222 12.2317 16.222 12.6886H17.1109H17.9998C17.9998 11.7747 17.4665 10.4952 16.222 10.1297V9.03296H14.4441V10.1297C13.5552 10.4038 12.6663 11.2264 12.6663 12.6886C12.6663 14.3904 14.0323 14.9511 14.9236 15.3169C14.9417 15.3243 14.9597 15.3317 14.9775 15.339C16.0442 15.796 16.222 15.8874 16.222 16.3443C16.222 16.8013 16.0442 17.2582 15.333 17.2582C14.6219 17.2582 14.4441 16.8013 14.4441 16.3443H12.6663C12.6663 17.2582 13.1996 18.5377 14.4441 18.9033V20H16.222V18.9033Z" />
</svg>
