<svg width="20" height="20" viewBox="0 0 20 20" fill="none" xmlns="http://www.w3.org/2000/svg">
<path d="M9.47368 0C4.83533 0 1.05263 3.59356 1.05263 8V9V9.90234C0.448727 10.4494 0 11.1531 0 12C0 13.242 0.902685 14.1629 2.04564 14.6133C3.41515 17.7231 6.15814 20 9.47368 20H12.6316V18H9.47368C7.09637 18 4.93785 16.2995 3.8528 13.6133L3.6287 13.0625L3.01192 12.9805C2.49351 12.9127 2.10526 12.5151 2.10526 12C2.10526 11.615 2.3099 11.313 2.62952 11.1387L3.15789 10.8516V10V9C3.15789 8.43497 3.61576 8 4.21053 8H14.7368C15.3316 8 15.7895 8.43497 15.7895 9V10V14H11.4864C11.3777 13.7079 11.1765 13.4549 10.9103 13.2759C10.6441 13.0968 10.3261 13.0004 10 13C9.58124 13 9.17963 13.158 8.88352 13.4393C8.58741 13.7206 8.42105 14.1022 8.42105 14.5C8.42159 14.8789 8.57303 15.2435 8.84495 15.5207C9.11687 15.7979 9.48912 15.967 9.88692 15.9941C9.92448 15.998 9.96223 16 10 16H16.8421H17.8947C19.0526 16 20 15.1 20 14V12C20 10.9 19.0526 10 17.8947 10V9V8C17.8947 3.59356 14.112 0 9.47368 0ZM9.47368 2C12.269 2 14.6217 3.70738 15.4585 6.08789C15.2255 6.03504 14.9858 6 14.7368 6H4.21053C3.96157 6 3.7219 6.03504 3.4889 6.08789C4.32566 3.70738 6.67833 2 9.47368 2Z" />
</svg>
