<svg width="20" height="20" viewBox="0 0 20 20" fill="none" xmlns="http://www.w3.org/2000/svg">
<path d="M10 0C7.24742 0 4.7444 1.12332 2.93359 2.93359L1 1V6H6L4.3457 4.3457C5.79403 2.89597 7.79027 2 10 2C14.4195 2 18 5.58052 18 10H20C20 4.49548 15.5045 0 10 0ZM9.71289 3.59961V5.02734C9.37389 5.07034 7.47656 5.42875 7.47656 7.71875C7.47656 11.0598 10.9355 10.0698 10.9355 12.2988C10.9355 13.4148 10.2134 13.4414 10.0664 13.4414C9.93241 13.4414 9.05273 13.5127 9.05273 11.8047H7.16211C7.16211 14.6967 9.26027 14.9277 9.57227 14.9707V16.3008H10.5742V14.9707C10.9122 14.9287 12.8242 14.6132 12.8242 12.2852C12.8242 9.08016 9.36623 9.69356 9.36523 7.72656C9.36523 6.59956 9.98514 6.56445 10.1191 6.56445C10.3641 6.56445 10.9473 6.7813 10.9473 8.1543H12.8379C12.8379 5.5273 11.0417 5.11764 10.7207 5.05664V3.59961H9.71289ZM0 10C0 15.5045 4.49548 20 10 20C12.7526 20 15.2556 18.8767 17.0664 17.0664L19 19V14H14L15.6543 15.6543C14.206 17.104 12.2097 18 10 18C5.58052 18 2 14.4195 2 10H0Z" />
</svg>
