<svg width="20" height="20" viewBox="0 0 20 20" fill="none" xmlns="http://www.w3.org/2000/svg">
<path d="M7.77778 0C6.55222 0 5.55556 0.944211 5.55556 2.10526V4.21053H0V17.8947C0 19.0558 0.996667 20 2.22222 20H17.7778C19.0033 20 20 19.0558 20 17.8947V4.21053H14.4444V2.10526C14.4444 0.944211 13.4478 0 12.2222 0H7.77778ZM7.77778 2.10526H12.2222V4.21053H7.77778V2.10526ZM2.22222 6.31579H17.7778L17.7799 17.8947H2.22222V6.31579ZM6.66667 8.42105C6.05333 8.42105 5.55556 8.89263 5.55556 9.47368C5.55556 10.0547 6.05333 10.5263 6.66667 10.5263C7.28 10.5263 7.77778 10.0547 7.77778 9.47368C7.77778 8.89263 7.28 8.42105 6.66667 8.42105ZM13.3333 8.42105C12.72 8.42105 12.2222 8.89263 12.2222 9.47368C12.2222 10.0547 12.72 10.5263 13.3333 10.5263C13.9467 10.5263 14.4444 10.0547 14.4444 9.47368C14.4444 8.89263 13.9467 8.42105 13.3333 8.42105Z" />
</svg>
