<svg width="432" height="432" viewBox="0 0 432 432" fill="none" xmlns="http://www.w3.org/2000/svg">
<path d="M430.124 20.7942H117.69V411.209H430.124V20.7942Z" fill="#E0E0D3"/>
<path d="M383.354 84.7058H164.466C160.361 84.7058 157.034 81.3789 157.034 77.2732C157.034 73.1675 160.361 69.8406 164.466 69.8406H383.354C387.459 69.8406 390.786 73.1675 390.786 77.2732C390.786 81.378 387.459 84.7058 383.354 84.7058Z" fill="#333E48"/>
<path d="M383.354 148.892H164.466C160.362 148.892 157.034 145.565 157.034 141.46C157.034 137.354 160.362 134.027 164.466 134.027H383.354C387.459 134.027 390.786 137.354 390.786 141.46C390.786 145.565 387.459 148.892 383.354 148.892Z" fill="#5C6670"/>
<path d="M383.354 180.987H333.385C329.279 180.987 325.953 177.66 325.953 173.554C325.953 169.449 329.279 166.122 333.385 166.122H383.354C387.459 166.122 390.786 169.449 390.786 173.554C390.786 177.659 387.459 180.987 383.354 180.987Z" fill="#5C6670"/>
<path d="M312.341 180.987H164.466C160.361 180.987 157.034 177.66 157.034 173.554C157.034 169.449 160.361 166.122 164.466 166.122H312.341C316.447 166.122 319.774 169.449 319.774 173.554C319.773 177.659 316.445 180.987 312.341 180.987Z" fill="#5C6670"/>
<path d="M383.354 213.081H261.098C256.993 213.081 253.666 209.754 253.666 205.648C253.666 201.542 256.993 198.215 261.098 198.215H383.354C387.46 198.215 390.787 201.542 390.787 205.648C390.787 209.754 387.459 213.081 383.354 213.081Z" fill="#5C6670"/>
<path d="M240.967 213.081H164.465C160.361 213.081 157.033 209.754 157.033 205.648C157.033 201.542 160.361 198.215 164.465 198.215H240.967C245.072 198.215 248.399 201.542 248.399 205.648C248.399 209.754 245.072 213.081 240.967 213.081Z" fill="#5C6670"/>
<path opacity="0.1" d="M332.503 20.7942H117.69V411.209H332.503V20.7942Z" fill="black"/>
<path d="M383.354 277.266H251.897C247.792 277.266 244.465 273.939 244.465 269.834C244.465 265.728 247.792 262.401 251.897 262.401H383.354C387.46 262.401 390.787 265.728 390.787 269.834C390.786 273.939 387.459 277.266 383.354 277.266Z" fill="#5C6670"/>
<path d="M226.276 277.266H164.465C160.36 277.266 157.032 273.939 157.032 269.834C157.032 265.728 160.36 262.401 164.465 262.401H226.276C230.382 262.401 233.709 265.728 233.709 269.834C233.709 273.939 230.382 277.266 226.276 277.266Z" fill="#5C6670"/>
<path d="M383.354 309.358H312.34C308.234 309.358 304.908 306.031 304.908 301.926C304.908 297.82 308.234 294.493 312.34 294.493H383.354C387.459 294.493 390.786 297.82 390.786 301.926C390.786 306.031 387.459 309.358 383.354 309.358Z" fill="#5C6670"/>
<path d="M287.28 309.358H164.466C160.361 309.358 157.034 306.031 157.034 301.926C157.034 297.82 160.361 294.493 164.466 294.493H287.28C291.386 294.493 294.713 297.82 294.713 301.926C294.713 306.031 291.385 309.358 287.28 309.358Z" fill="#5C6670"/>
<path d="M383.354 341.451H164.466C160.361 341.451 157.034 338.123 157.034 334.019C157.034 329.913 160.361 326.586 164.466 326.586H383.354C387.459 326.586 390.786 329.913 390.786 334.019C390.786 338.123 387.459 341.451 383.354 341.451Z" fill="#5C6670"/>
<path d="M301.361 373.543H164.466C160.361 373.543 157.034 370.216 157.034 366.111C157.034 362.005 160.361 358.678 164.466 358.678H301.361C305.466 358.678 308.793 362.005 308.793 366.111C308.793 370.216 305.465 373.543 301.361 373.543Z" fill="#5C6670"/>
<path d="M292.755 19.8197C292.755 8.91928 283.837 0 272.935 0H167.136C156.235 0 147.316 8.91844 147.316 19.8197V412.18C147.316 423.081 156.235 432 167.136 432H272.935C283.836 432 292.755 423.082 292.755 412.18V19.8197Z" fill="#333E48"/>
<path d="M220.037 396.193C242.253 396.193 260.262 378.184 260.262 355.968C260.262 333.752 242.253 315.743 220.037 315.743C197.822 315.743 179.812 333.752 179.812 355.968C179.812 378.184 197.822 396.193 220.037 396.193Z" fill="#D49000"/>
<path d="M220.037 373.4C229.665 373.4 237.469 365.595 237.469 355.968C237.469 346.341 229.665 338.536 220.037 338.536C210.41 338.536 202.605 346.341 202.605 355.968C202.605 365.595 210.41 373.4 220.037 373.4Z" fill="#333E48"/>
<path d="M263.155 42.8102H176.92V206.866H263.155V42.8102Z" fill="#E0E0D3"/>
<path d="M239.028 100.556H201.04C196.935 100.556 193.608 97.2287 193.608 93.123C193.608 89.0173 196.935 85.6904 201.04 85.6904H239.028C243.133 85.6904 246.46 89.0173 246.46 93.123C246.459 97.2279 243.133 100.556 239.028 100.556Z" fill="#1E252B"/>
<path d="M239.028 127.312H201.04C196.935 127.312 193.608 123.985 193.608 119.879C193.608 115.773 196.935 112.447 201.04 112.447H239.028C243.133 112.447 246.46 115.773 246.46 119.879C246.459 123.984 243.133 127.312 239.028 127.312Z" fill="#1E252B"/>
<path d="M147.316 19.8197C147.316 8.91928 138.398 0 127.497 0H21.6954C10.795 0 1.87573 8.91844 1.87573 19.8197V412.18C1.87573 423.081 10.7942 432 21.6954 432H127.496C138.396 432 147.315 423.082 147.315 412.18V19.8197H147.316Z" fill="#0082CA"/>
<path d="M74.5918 396.193C96.8074 396.193 114.817 378.184 114.817 355.968C114.817 333.752 96.8074 315.743 74.5918 315.743C52.3761 315.743 34.3668 333.752 34.3668 355.968C34.3668 378.184 52.3761 396.193 74.5918 396.193Z" fill="#D49000"/>
<path d="M74.5917 373.4C84.219 373.4 92.0235 365.595 92.0235 355.968C92.0235 346.341 84.219 338.536 74.5917 338.536C64.9643 338.536 57.1598 346.341 57.1598 355.968C57.1598 365.595 64.9643 373.4 74.5917 373.4Z" fill="#333E48"/>
<path d="M117.714 42.8102H31.4795V206.866H117.714V42.8102Z" fill="#E0E0D3"/>
<path d="M93.5887 100.556H55.6006C51.4957 100.556 48.168 97.2287 48.168 93.123C48.168 89.0173 51.4957 85.6904 55.6006 85.6904H93.5887C97.6936 85.6904 101.021 89.0173 101.021 93.123C101.021 97.2279 97.6936 100.556 93.5887 100.556Z" fill="#1E252B"/>
<path d="M93.5887 127.312H55.6006C51.4957 127.312 48.168 123.985 48.168 119.879C48.168 115.773 51.4957 112.447 55.6006 112.447H93.5887C97.6936 112.447 101.021 115.773 101.021 119.879C101.021 123.984 97.6936 127.312 93.5887 127.312Z" fill="#1E252B"/>
</svg>
