<svg width="950" height="990" viewBox="0 0 950 990" fill="none" xmlns="http://www.w3.org/2000/svg">
<g clip-path="url(#clip0)">
<path d="M20.566 716.586V683.949L475.002 410.535L929.434 683.949V716.586L475.002 990L20.566 716.586Z" fill="#FF9911"/>
<path d="M709.247 651.511L565.836 50.1826H565.82C564.074 37.7012 555.327 25.5157 539.543 16.0179C504.046 -5.33865 445.962 -5.33865 410.465 16.0179C394.681 25.5157 385.932 37.7012 384.188 50.1826H384.171L240.758 651.511C223.866 698.08 245.351 748.79 305.217 784.809C398.599 840.993 551.406 840.993 644.79 784.809C704.651 748.79 726.138 698.078 709.247 651.511Z" fill="#F18700"/>
<path d="M709.247 651.511L565.836 50.1826H565.82C564.074 37.7012 555.327 25.5157 539.543 16.0179C504.046 -5.33865 445.962 -5.33865 410.465 16.0179C394.681 25.5157 385.932 37.7012 384.188 50.1826H384.171L240.758 651.511C223.866 698.08 245.351 748.79 305.217 784.809C398.599 840.993 551.406 840.993 644.79 784.809C704.651 748.79 726.138 698.078 709.247 651.511Z" fill="#F18700"/>
<path d="M475.002 957.363V990L20.566 716.586V683.949L475.002 957.363Z" fill="#F18700"/>
<path d="M475.002 957.363V990L929.434 716.586V683.949L475.002 957.363Z" fill="#D07400"/>
<path d="M410.463 93.6788C374.966 72.3222 374.966 37.3744 410.463 16.0179C445.96 -5.33865 504.044 -5.33865 539.541 16.0179C575.038 37.3744 575.038 72.3222 539.541 93.6788C504.044 115.035 445.958 115.035 410.463 93.6788Z" fill="#FF9911"/>
<path d="M436.276 78.1462C414.979 65.3323 414.979 44.3644 436.276 31.5504C457.573 18.7365 492.425 18.7365 513.724 31.5504C535.021 44.3644 535.021 65.3323 513.724 78.1462C492.426 90.9601 457.575 90.9601 436.276 78.1462Z" fill="#D07400"/>
<path d="M673.474 501.524L624.675 296.913C618.595 302.203 611.679 307.242 603.866 311.943C532.987 354.586 417.005 354.586 346.128 311.943C338.315 307.242 331.402 302.203 325.319 296.911L276.521 501.522C285.93 512.273 297.305 522.413 310.683 531.674C401.054 594.246 548.937 594.246 639.307 531.674C652.689 522.414 664.069 512.273 673.474 501.524Z" fill="#E0E0E2"/>
</g>
<defs>
<clipPath id="clip0">
<rect width="950" height="990" fill="white"/>
</clipPath>
</defs>
</svg>
