<svg width="20" height="20" viewBox="0 0 20 20" fill="none" xmlns="http://www.w3.org/2000/svg">
<rect width="20" height="20" fill="white"/>
<path d="M10.0161 0.000306704C9.94704 -0.00234787 9.87834 0.0122605 9.81573 0.0429197L0.25051 4.72502C0.175606 4.76167 0.112253 4.81989 0.0678824 4.89285C0.0235116 4.96581 -3.66475e-05 5.05049 4.28098e-08 5.13695V6.36385C1.15719e-05 6.48439 0.0458226 6.6 0.127358 6.68524C0.208893 6.77048 0.319475 6.81837 0.434783 6.81838H1.73913V17.2728H1.21773C0.522079 17.2728 4.28098e-08 17.916 4.28098e-08 18.6364V20H20V18.6364C20 17.916 19.4779 17.2728 18.7823 17.2728H18.2609V6.81838H19.5652C19.6805 6.81837 19.7911 6.77048 19.8726 6.68524C19.9542 6.6 20 6.48439 20 6.36385V5.13695C20 5.05049 19.9765 4.96581 19.9321 4.89285C19.8877 4.81989 19.8244 4.76167 19.7495 4.72502L10.1843 0.0429197C10.1315 0.0170846 10.0743 0.00259348 10.0161 0.000306704ZM10 0.956435L19.1304 5.42547V5.90931H15.2174C15.1598 5.90845 15.1026 5.91958 15.0491 5.94204C14.9956 5.9645 14.947 5.99785 14.906 6.04014C14.8649 6.08243 14.8323 6.13283 14.8101 6.1884C14.7879 6.24397 14.7764 6.30361 14.7764 6.36385C14.7764 6.42408 14.7879 6.48372 14.8101 6.53929C14.8323 6.59486 14.8649 6.64526 14.906 6.68755C14.947 6.72984 14.9956 6.76319 15.0491 6.78565C15.1026 6.80811 15.1598 6.81924 15.2174 6.81838H15.6522V17.2728H4.34783V6.81838H4.78261C4.84022 6.81924 4.89742 6.80811 4.95089 6.78565C5.00435 6.76319 5.05301 6.72984 5.09404 6.68755C5.13507 6.64526 5.16766 6.59486 5.18989 6.53929C5.21213 6.48372 5.22358 6.42408 5.22358 6.36385C5.22358 6.30361 5.21213 6.24397 5.18989 6.1884C5.16766 6.13283 5.13507 6.08243 5.09404 6.04014C5.05301 5.99785 5.00435 5.9645 4.95089 5.94204C4.89742 5.91958 4.84022 5.90845 4.78261 5.90931H3.91304H2.17391H0.869565V5.42547L10 0.956435ZM9.56522 4.09115V5.48229C8.63677 5.599 8.04757 6.08153 7.74711 6.57425C7.40208 7.14007 7.3913 7.71592 7.3913 7.71592C7.39126 7.71977 7.39126 7.72361 7.3913 7.72746C7.3913 8.53553 7.76317 9.14517 8.25577 9.50566C8.74838 9.86616 9.33169 10.0374 9.87517 10.2079C10.4186 10.3783 10.9223 10.548 11.2449 10.7841C11.5675 11.0201 11.7391 11.2628 11.7391 11.8183C11.7391 12.1918 11.6412 12.4186 11.4988 12.5987C11.3565 12.7787 11.1527 12.9114 10.929 13.0026C10.4816 13.185 10.0085 13.1819 10.0085 13.1819C10.0057 13.1819 10.0028 13.1819 10 13.1819C9.03339 13.1819 8.68617 12.7566 8.47232 12.3004C8.25846 11.8441 8.26087 11.3726 8.26087 11.3726L7.3913 11.3549C7.3913 11.3549 7.37231 12.0198 7.69107 12.6999C7.97085 13.2968 8.57584 13.9154 9.56522 14.0582V15.4546H10.4348V14.0582C10.6613 14.0282 10.947 13.971 11.2449 13.8495C11.5647 13.7191 11.9044 13.5139 12.1697 13.1784C12.4349 12.8428 12.6087 12.3766 12.6087 11.8183C12.6087 11.0102 12.2368 10.4006 11.7442 10.0401C11.2516 9.67961 10.6683 9.50833 10.1248 9.33788C9.58135 9.16742 9.07771 8.9978 8.75509 8.76171C8.4343 8.52695 8.26448 8.28349 8.26257 7.73456C8.26272 7.73015 8.27289 7.40348 8.48081 7.06252C8.69012 6.71926 9.05309 6.36385 10 6.36385C10.9173 6.36385 11.2728 6.7893 11.4988 7.2525C11.7248 7.71571 11.7391 8.19088 11.7391 8.19088L12.6087 8.17312C12.6087 8.17312 12.6017 7.51195 12.2733 6.8388C11.9862 6.25037 11.3904 5.63365 10.4348 5.48762V4.09115H9.56522ZM2.6087 6.81838H3.47826V17.2728H2.6087V6.81838ZM16.5217 6.81838H17.3913V17.2728H16.5217V6.81838ZM1.21773 18.1818H18.7823C18.9562 18.1818 19.1304 18.3568 19.1304 18.6364V19.0909H0.869565V18.6364C0.869565 18.3568 1.04382 18.1818 1.21773 18.1818Z"/>
</svg>
