<svg width="20" height="20" viewBox="0 0 20 20" fill="none" xmlns="http://www.w3.org/2000/svg">
<rect width="20" height="20" fill="white"/>
<path fill-rule="evenodd" clip-rule="evenodd" d="M10.8828 0.117188L10.7526 0H1V19.1667H11.0309C10.8014 18.9111 10.598 18.6312 10.4238 18.3333H1.83333V0.833333H10.1667V5.83333H15.1667V10.8512C15.4515 10.874 15.7298 10.9229 16 10.9928V5.2474L15.8828 5.11719L10.8828 0.117188ZM14.5677 5H11V1.43229L14.5677 5ZM11 16C11 13.8 12.8 12 15 12C17.2 12 19 13.8 19 16C19 18.2 17.2 20 15 20C12.8 20 11 18.2 11 16ZM11.8 16C11.8 17.7594 13.2406 19.2 15 19.2C16.7594 19.2 18.2 17.7594 18.2 16C18.2 14.2406 16.7594 12.8 15 12.8C13.2406 12.8 11.8 14.2406 11.8 16ZM15.3297 15.7566C14.9431 15.5924 14.6 15.4467 14.6 15.0797C14.6 15 14.6 14.6 15.0406 14.5594C15.5203 14.5594 15.5594 15 15.5594 15.2406H16.3594C16.3594 14.2 15.6 14 15.3203 13.9594V13.3594H14.8797V13.9594C14.5203 13.9594 13.7594 14.2406 13.7594 15.0797C13.7594 15.8606 14.3195 16.0941 14.8148 16.3006C15.2074 16.4643 15.5594 16.611 15.5594 17C15.5594 17.0797 15.5594 17.4797 15.0406 17.4797C14.4406 17.4797 14.4406 16.9203 14.4406 16.8H13.6406C13.6406 18 14.6797 18.1203 14.8406 18.1203V18.6797H15.2797V18.1203C15.4406 18.1203 16.4 18 16.4 17C16.4 16.2112 15.8286 15.9685 15.3297 15.7566Z"/>
</svg>
