<svg width="20" height="20" viewBox="0 0 20 20" fill="none" xmlns="http://www.w3.org/2000/svg">
<rect width="20" height="20" fill="white"/>
<path d="M2 2C1.89392 2.00001 1.79218 2.04216 1.71717 2.11717C1.64216 2.19218 1.60001 2.29392 1.6 2.4V4.4H1.2C0.542012 4.4 0 4.94201 0 5.6V16C0 16.6568 0.539873 17.2 1.19766 17.2H2.00234C5.6914 17.2004 9.4737 17.9345 9.61094 17.9617L9.6125 17.9625H9.61328C9.74051 17.9871 9.86993 18 10 18C10.1301 18 10.2596 17.9872 10.3867 17.9625H10.3875L10.3883 17.9617C10.5288 17.9339 14.309 17.2004 17.9977 17.2H18.8C19.458 17.2 20 16.658 20 16V5.6C20 4.94201 19.458 4.4 18.8 4.4H18.4V2.4C18.4 2.29392 18.3578 2.19218 18.2828 2.11717C18.2078 2.04216 18.1061 2.00001 18 2C14.0095 2 10.122 2.77103 10 2.79531C9.87804 2.77103 5.99048 2 2 2ZM2.4 2.81719C5.72919 2.86167 8.83351 3.39527 9.6 3.53516V15.5242C8.69238 15.3601 5.69525 14.86 2.4 14.8172V2.81719ZM17.6 2.81719V14.8172C14.3048 14.86 11.3076 15.3601 10.4 15.5242V3.53516C11.1665 3.39527 14.2708 2.86167 17.6 2.81719ZM13.6 4.8V5.63438C12.9142 5.74516 12.4679 6.12856 12.2516 6.51172C11.9954 6.96534 12 7.41719 12 7.41719C12 7.98571 12.2856 8.43882 12.6477 8.73359C13.0097 9.02837 13.4388 9.20988 13.8383 9.38672C14.2378 9.56356 14.6067 9.73589 14.8445 9.93281C15.0823 10.1297 15.2 10.3081 15.2 10.65C15.2 10.65 15.1966 10.8842 15.0563 11.1211C14.9159 11.358 14.6875 11.6 14 11.6C13.3333 11.6 13.1101 11.3257 12.9578 11.0211C12.8055 10.7165 12.8 10.4 12.8 10.4H12C12 10.4 11.9945 10.8835 12.2422 11.3789C12.4521 11.7987 12.9009 12.2367 13.6 12.3617V13.2H14.4V12.3672C15.0808 12.2619 15.5247 11.8986 15.7438 11.5289C16.0034 11.0908 16 10.65 16 10.65C16 10.0753 15.7177 9.61632 15.3555 9.31641C14.9933 9.01649 14.5622 8.83278 14.1617 8.65547C13.7612 8.47816 13.3903 8.30704 13.1523 8.11328C12.9144 7.91952 12.8 7.74867 12.8 7.41719C12.8 7.41719 12.8046 7.15947 12.9484 6.90469C13.0923 6.64991 13.3181 6.4 14 6.4C14.6667 6.4 14.8899 6.67431 15.0422 6.97891C15.1945 7.2835 15.2 7.6 15.2 7.6H16C16 7.6 16.0055 7.1165 15.7578 6.62109C15.5479 6.20133 15.0991 5.76332 14.4 5.63828V4.8H13.6ZM1.2 5.2H1.6V15.2C1.60001 15.3061 1.64216 15.4078 1.71717 15.4828C1.79218 15.5578 1.89392 15.6 2 15.6C5.94667 15.6 9.92188 16.3922 9.92188 16.3922C9.97345 16.4025 10.0265 16.4025 10.0781 16.3922C10.0781 16.3922 14.0533 15.6 18 15.6C18.1061 15.6 18.2078 15.5578 18.2828 15.4828C18.3578 15.4078 18.4 15.3061 18.4 15.2V5.2H18.8C19.026 5.2 19.2 5.37399 19.2 5.6V16C19.2 16.226 19.026 16.4 18.8 16.4H17.9977C14.2039 16.4004 10.4115 17.142 10.2328 17.1773C10.1548 17.1924 10.0758 17.2 10 17.2C9.92367 17.2 9.84478 17.1919 9.76562 17.1766L9.76719 17.1773C9.58603 17.1414 5.79648 16.4004 2.00234 16.4H1.19766C0.97224 16.4 0.8 16.2272 0.8 16V5.6C0.8 5.37399 0.973988 5.2 1.2 5.2Z" />
</svg>
