<svg width="20" height="20" viewBox="0 0 20 20" fill="none" xmlns="http://www.w3.org/2000/svg">
<rect width="20" height="20" fill="white"/>
<path fill-rule="evenodd" clip-rule="evenodd" d="M18.73 2H1.27C0.57 2 0 2.61 0 3.37V16.7C0 17.45 0.57 18.06 1.27 18.06H18.73C19.43 18.06 20 17.45 20 16.7V3.37C20 2.61 19.43 2 18.73 2ZM18.73 17.16H1.27C1.04 17.16 0.86 16.95 0.86 16.7V3.37C0.86 3.1 1.05 2.91 1.27 2.91H18.73C18.97 2.91 19.14 3.11 19.14 3.37V16.7C19.14 16.96 18.97 17.16 18.73 17.16ZM6.78378 10.5583C7.1684 10.1722 7.39709 9.61913 7.39709 9.04522C7.39709 7.91826 6.5343 7 5.48441 7C4.44491 7 3.58212 7.91826 3.58212 9.04522C3.58212 9.61913 3.81081 10.1617 4.19543 10.5583C3.44699 11.0383 3 11.8939 3 12.8435V13H3.89397V12.8435C3.89397 11.8835 4.61123 11.1009 5.4948 11.1009C6.38877 11.1009 7.10603 11.8835 7.10603 12.8435V13H8V12.8435C7.9896 11.8939 7.53222 11.0383 6.78378 10.5583ZM5.48441 7.93913C6.04574 7.93913 6.51351 8.44 6.51351 9.04522C6.51351 9.66087 6.05613 10.1513 5.48441 10.1513C4.93347 10.1513 4.4657 9.66087 4.4657 9.04522C4.47609 8.44 4.93347 7.93913 5.48441 7.93913ZM9.57996 11.3999H17.19V12.3099H9.57996V11.3999ZM16.06 9.59009H9.57996V10.4901H16.06V9.59009ZM9.57996 7.76001H17.19V8.67001H9.57996V7.76001Z" />
</svg>
