<svg width="20" height="20" viewBox="0 0 20 20" fill="none" xmlns="http://www.w3.org/2000/svg">
<rect width="20" height="20" fill="white"/>
<path d="M13.2459 3H13.6297C14.3478 3.02724 15.0631 3.16038 15.7362 3.41448C16.896 3.84686 17.9257 4.61772 18.6714 5.60533C19.365 6.51829 19.8118 7.61657 19.9501 8.75505C19.9775 8.9655 19.9884 9.1775 20 9.38935V9.75315C19.98 10.2337 19.9196 10.7133 19.8002 11.1796C19.5185 12.3019 18.9299 13.3436 18.1187 14.168C17.2518 15.0537 16.1295 15.6869 14.9213 15.9644C14.4548 16.0756 13.976 16.1198 13.4981 16.1428H13.2871C12.9646 16.1137 12.6404 16.0975 12.3214 16.0386C11.3541 15.8735 10.4263 15.4852 9.62855 14.9143C9.44 14.7764 9.2402 14.6547 9.048 14.5221C8.81545 14.3572 8.57125 14.2027 8.2996 14.1105C7.9735 13.9955 7.62 13.9775 7.27885 14.0202C6.9895 14.0556 6.7057 14.1255 6.42705 14.2099C5.5185 14.512 4.52095 14.5385 3.59752 14.285C2.97124 14.1145 2.38076 13.8156 1.87085 13.4143C1.29733 12.9644 0.826285 12.3849 0.50381 11.7312C0.192571 11.1059 0.0253334 10.413 0 9.7156V9.4082C0.0144762 9.13735 0.0405714 8.86665 0.0954285 8.60075C0.283809 7.64857 0.76762 6.75905 1.46019 6.07962C2.14896 5.39885 3.04419 4.92972 3.99714 4.756C4.856 4.59715 5.7575 4.67143 6.57695 4.97505C6.7764 5.04209 6.97315 5.12228 7.1823 5.15428C7.55145 5.22648 7.94115 5.20229 8.292 5.06266C8.7621 4.88419 9.1482 4.55352 9.55695 4.27105C10.0608 3.89695 10.6209 3.60038 11.2108 3.38724C11.8629 3.1501 12.5532 3.02552 13.2459 3ZM6.77105 6.87067C6.77145 8.1455 6.77105 9.4202 6.77125 10.695C6.77065 10.8137 6.7861 10.9334 6.8284 11.0448C6.8975 11.2322 7.0497 11.3859 7.2343 11.4612C7.4495 11.5507 7.66495 11.64 7.8804 11.7295C7.98475 11.4788 8.08745 11.2276 8.19335 10.9777C7.9737 10.8804 7.7499 10.793 7.52895 10.699C7.52935 9.42285 7.52915 8.14665 7.52895 6.87048C7.2764 6.87067 7.0238 6.87029 6.77105 6.87067ZM12.5516 6.87048C12.5515 8.14495 12.5516 9.4196 12.5516 10.6941C12.5513 10.8105 12.5653 10.9284 12.6068 11.0379C12.675 11.2255 12.824 11.3826 13.009 11.4586C13.2259 11.5491 13.4433 11.639 13.6604 11.7295C13.7652 11.4783 13.8692 11.2267 13.9735 10.9755C13.7524 10.8829 13.5307 10.7915 13.3095 10.6993C13.3095 9.42305 13.3095 8.14685 13.3095 6.87048C13.0567 6.87048 12.8042 6.87048 12.5516 6.87048ZM2.87943 8.1461C2.46419 8.4465 2.17485 8.91465 2.09276 9.42055C2.01105 9.8983 2.11448 10.4044 2.37734 10.8116C2.66248 11.2602 3.13467 11.5855 3.65696 11.687C4.084 11.7739 4.53905 11.7135 4.92857 11.5181C4.8219 11.2689 4.71486 11.02 4.60781 10.771C4.34972 10.9122 4.03809 10.9532 3.75314 10.8779C3.46076 10.8036 3.20171 10.6101 3.04572 10.3524C2.90724 10.1261 2.84895 9.852 2.88648 9.58935C2.92476 9.30325 3.07371 9.0337 3.296 8.8495C3.54647 8.63905 3.88819 8.54055 4.21219 8.58895C4.49715 8.6299 4.76438 8.7804 4.94628 9.0036C5.1179 9.20915 5.21315 9.47545 5.2143 9.74305C5.2156 10.0482 5.2145 10.3534 5.21485 10.6585C5.2156 10.8099 5.2063 10.9648 5.2495 11.112C5.30515 11.3215 5.46 11.5025 5.65905 11.5887C5.7825 11.6413 5.9095 11.6855 6.0318 11.7406C6.14475 11.4915 6.24345 11.236 6.3503 10.9844C6.2415 10.9413 6.13295 10.8977 6.0242 10.8551C6.02265 10.472 6.02515 10.089 6.02305 9.7059C6.0158 9.2341 5.83085 8.7684 5.51335 8.4196C5.20285 8.0739 4.76685 7.84381 4.3059 7.784C3.80743 7.71505 3.28457 7.84762 2.87943 8.1461ZM9.81275 7.81295C9.4242 7.90019 9.06495 8.1099 8.79545 8.40285C8.48285 8.7398 8.2937 9.1884 8.27335 9.6476C8.2505 10.0621 8.3642 10.4821 8.5918 10.8293C9.78895 10.3175 10.9861 9.8061 12.1834 9.2945C12.0569 8.748 11.687 8.2642 11.1922 8C10.7752 7.77333 10.2752 7.70667 9.81275 7.81295ZM15.8095 7.78076C15.4134 7.83333 15.0358 8.0103 14.7393 8.2781C14.9177 8.48285 15.1042 8.6804 15.285 8.88285C15.4672 8.7204 15.6988 8.61275 15.9421 8.5861C16.2358 8.55105 16.5402 8.6358 16.7756 8.8143C17.007 8.98725 17.1686 9.2497 17.2204 9.5339C17.2666 9.776 17.2305 10.0308 17.1252 10.2531C17.3709 10.3692 17.6135 10.4915 17.8608 10.604C18.0204 10.2671 18.0867 9.8857 18.0415 9.51505C17.9924 9.0939 17.8044 8.6905 17.5124 8.38305C17.0838 7.92628 16.4306 7.692 15.8095 7.78076ZM14.1125 10.0486C14.1701 10.4221 14.3364 10.7785 14.5875 11.0611C14.8082 11.3116 15.0943 11.5029 15.4086 11.6151C15.7795 11.7488 16.1905 11.7655 16.5716 11.6655C16.8815 11.5851 17.1709 11.428 17.408 11.2132C17.225 11.0122 17.0419 10.8112 16.8587 10.6105C16.6646 10.7849 16.4128 10.8945 16.152 10.9116C15.8648 10.933 15.572 10.841 15.347 10.6617C15.1354 10.495 14.9857 10.2525 14.9305 9.98895C14.8755 9.7385 14.9095 9.47125 15.0196 9.2402C14.7751 9.1223 14.5303 9.0044 14.2851 8.88705C14.1129 9.2455 14.0505 9.6556 14.1125 10.0486ZM10.3413 10.911C10.0994 10.9312 9.8537 10.8689 9.64685 10.7428C9.6425 10.7421 9.6337 10.7404 9.62935 10.7396C9.484 10.9663 9.34325 11.1962 9.19735 11.4225C9.6539 11.72 10.2388 11.8048 10.7638 11.6632C11.092 11.577 11.3955 11.4025 11.6385 11.1661C11.4488 10.9706 11.2583 10.7762 11.0682 10.5813C10.8735 10.7706 10.6129 10.8924 10.3413 10.911Z" fill="#007858"/>
<path d="M9.3283 9.03351C9.52795 8.77221 9.8422 8.60231 10.1708 8.58136C10.5367 8.55276 10.9092 8.71181 11.1437 8.99351C10.4601 9.28551 9.77705 9.57846 9.09345 9.87046C9.0588 9.57486 9.14525 9.26821 9.3283 9.03351Z" fill="#007858"/>
<path d="M6.771 6.87067C7.02375 6.87029 7.27635 6.87067 7.5289 6.87048C7.5291 8.14665 7.5293 9.42285 7.5289 10.699C7.74985 10.7929 7.97365 10.8804 8.1933 10.9777C8.0874 11.2276 7.9847 11.4788 7.88035 11.7295C7.6649 11.64 7.44945 11.5506 7.23425 11.4611C7.04965 11.3859 6.89745 11.2322 6.82835 11.0447C6.78605 10.9333 6.7706 10.8137 6.7712 10.695C6.771 9.4202 6.7714 8.14555 6.771 6.87067Z" fill="white"/>
<path d="M12.5516 6.87048C12.8042 6.87048 13.0568 6.87048 13.3095 6.87048C13.3095 8.14685 13.3095 9.42305 13.3095 10.6992C13.5307 10.7914 13.7524 10.8828 13.9735 10.9754C13.8691 11.2266 13.7651 11.4783 13.6604 11.7295C13.4432 11.639 13.2259 11.5491 13.009 11.4586C12.824 11.3826 12.6751 11.2255 12.6069 11.0379C12.5653 10.9284 12.5512 10.8105 12.5516 10.6941C12.5516 9.41965 12.5514 8.14495 12.5516 6.87048Z" fill="white"/>
<path d="M2.87943 8.14611C3.28457 7.84764 3.80743 7.71507 4.30591 7.78402C4.76686 7.84383 5.20285 8.07391 5.51335 8.41961C5.83085 8.76841 6.0158 9.23411 6.02305 9.70591C6.02515 10.089 6.02265 10.472 6.0242 10.8551C6.13295 10.8977 6.2415 10.9414 6.3503 10.9844C6.24345 11.236 6.14475 11.4915 6.0318 11.7406C5.9095 11.6856 5.7825 11.6414 5.65905 11.5888C5.46 11.5025 5.30515 11.3216 5.2495 11.112C5.2063 10.9648 5.2156 10.8099 5.21485 10.6585C5.2145 10.3534 5.2156 10.0482 5.2143 9.74306C5.21315 9.47546 5.1179 9.20916 4.94629 9.00361C4.76438 8.78041 4.49714 8.62991 4.21219 8.58896C3.88819 8.54061 3.54648 8.63906 3.296 8.84956C3.07372 9.03371 2.92476 9.30326 2.88648 9.58936C2.84895 9.85201 2.90724 10.1261 3.04572 10.3524C3.20172 10.6101 3.46076 10.8036 3.75314 10.8779C4.0381 10.9532 4.34972 10.9122 4.60781 10.7711C4.71486 11.02 4.82191 11.269 4.92857 11.5181C4.53905 11.7136 4.084 11.7739 3.65695 11.6871C3.13467 11.5856 2.66248 11.2602 2.37734 10.8116C2.11448 10.4044 2.01105 9.89831 2.09276 9.42061C2.17486 8.91466 2.46419 8.44651 2.87943 8.14611Z" fill="white"/>
<path d="M9.81279 7.81295C10.2753 7.70667 10.7753 7.77333 11.1922 7.99999C11.6871 8.26419 12.057 8.74799 12.1835 9.29449C10.9861 9.80609 9.78899 10.3175 8.59184 10.8293C8.36424 10.4821 8.25054 10.0621 8.27339 9.64764C8.29374 9.18839 8.48289 8.73979 8.79549 8.40284C9.06499 8.10989 9.42424 7.90019 9.81279 7.81295ZM9.32824 9.03354C9.14519 9.26819 9.05869 9.57484 9.09339 9.87049C9.77699 9.57849 10.46 9.28554 11.1437 8.99354C10.9092 8.71179 10.5366 8.55274 10.1707 8.58134C9.84214 8.60229 9.52784 8.77219 9.32824 9.03354Z" fill="white"/>
<path d="M14.1126 10.0486C14.0505 9.65565 14.113 9.24555 14.2852 8.88705C14.5303 9.0044 14.7751 9.1223 15.0196 9.2402C14.9095 9.47125 14.8754 9.7385 14.9305 9.98895C14.9857 10.2526 15.1354 10.4951 15.3471 10.6617C15.572 10.841 15.8648 10.933 16.152 10.9117C16.4128 10.8945 16.6646 10.785 16.8587 10.6105C17.0419 10.8113 17.225 11.0122 17.408 11.2132C17.1709 11.428 16.8815 11.5852 16.5716 11.6656C16.1905 11.7656 15.7794 11.7488 15.4086 11.6151C15.0943 11.5029 14.8082 11.3117 14.5874 11.0612C14.3364 10.7785 14.1701 10.4221 14.1126 10.0486Z" fill="white"/>
<path d="M10.3413 10.9111C10.6129 10.8924 10.8735 10.7707 11.0681 10.5814C11.2582 10.7762 11.4487 10.9707 11.6384 11.1661C11.3954 11.4025 11.092 11.577 10.7638 11.6633C10.2388 11.8048 9.65387 11.72 9.19727 11.4225C9.34317 11.1962 9.48396 10.9663 9.62926 10.7397C9.63366 10.7404 9.64242 10.7421 9.64682 10.7429C9.85367 10.869 10.0994 10.9313 10.3413 10.9111Z" fill="white"/>
<path d="M15.8096 7.78077C16.4307 7.692 17.0839 7.92629 17.5124 8.38305C17.8044 8.6905 17.9924 9.0939 18.0416 9.51505C18.0867 9.8857 18.0204 10.267 17.8608 10.604C17.6136 10.4914 17.3709 10.3691 17.1252 10.2531C17.2305 10.0308 17.2667 9.776 17.2204 9.5339C17.1686 9.2497 17.0071 8.98725 16.7757 8.8143C16.5402 8.6358 16.2359 8.55105 15.9421 8.5861C15.6989 8.61275 15.4673 8.7204 15.285 8.88285C15.1042 8.6804 14.9178 8.48285 14.7393 8.2781C15.0359 8.0103 15.4134 7.83334 15.8096 7.78077Z" fill="#C7D540"/>
</svg>
