<svg width="20" height="20" viewBox="0 0 20 20" fill="none" xmlns="http://www.w3.org/2000/svg">
<rect width="20" height="20" fill="white"/>
<path d="M13.0046 8.68334C13.5169 8.68334 14.0292 8.68146 14.5416 8.68334C14.6277 8.66272 14.669 8.75396 14.7155 8.81146C14.9946 9.20519 15.2796 9.59329 15.5605 9.98515C15.1999 10.4332 14.8393 10.882 14.4765 11.3282C13.9856 11.3282 13.4954 11.3288 13.0046 11.3282C13.0022 11.0182 13.0069 10.7082 13.0005 10.3989C13.4611 10.382 13.9217 10.3964 14.3822 10.3914C14.3828 10.1339 14.3828 9.87703 14.3822 9.62016C13.9228 9.61891 13.4634 9.62016 13.004 9.61954C13.004 9.30768 13.0034 8.9952 13.0046 8.68334Z" fill="#2376B9"/>
<path d="M3.40545 8.75461C3.41708 8.75586 3.44093 8.75773 3.45256 8.75898C3.64854 9.2302 3.83871 9.70518 4.03178 10.1777C3.63691 10.1789 3.24204 10.1777 2.84717 10.1789C3.03384 9.70456 3.21529 9.22771 3.40545 8.75461Z" fill="#2376B9"/>
<path d="M2.33259 7.00032C3.07872 7.00157 3.82484 6.99782 4.57038 7.00219C4.71984 7.38717 4.86755 7.7734 5.02225 8.15588C5.02515 7.77465 5.02165 7.39342 5.024 7.01219C5.9382 7.01406 6.85295 7.01094 7.76715 7.01344C8.01665 7.61841 8.2673 8.22213 8.5191 8.82585C8.768 8.22213 9.0175 7.61841 9.2652 7.01406C11.3396 7.01594 13.4145 7.00469 15.4889 7.01906C15.7268 7.34905 15.9768 7.66778 16.2211 7.99214C16.4816 7.66653 16.741 7.33967 17.0021 7.01344C18.0012 7.01156 19.0009 7.01281 20 7.01281C19.2498 8.00526 18.4991 8.99708 17.7488 9.99016C18.4932 10.9932 19.2376 11.9957 19.9825 12.9981C18.9881 12.9975 17.9937 13.0031 16.9998 12.9956C16.7264 12.6481 16.4444 12.3088 16.1682 11.9638C15.889 12.3076 15.6024 12.6437 15.329 12.9925C12.7534 13.0087 10.1771 12.9913 7.60085 13C7.5508 12.8781 7.5014 12.7569 7.45195 12.635C7.45135 12.7557 7.45135 12.8769 7.45135 12.9988C6.39935 12.9994 5.34675 12.9988 4.29473 12.9988C4.16795 12.6313 4.04117 12.2638 3.91498 11.8963C3.61083 11.8944 3.30668 11.8944 3.00253 11.8957C2.87634 12.2638 2.75072 12.6319 2.62336 12.9988C1.74871 12.9988 0.874065 12.9987 0 12.9981C0.77753 10.9989 1.55506 8.99959 2.33259 7.00032ZM2.80364 7.7884C2.23198 9.26332 1.65624 10.737 1.08458 12.2119C1.43409 12.2113 1.78419 12.2163 2.1337 12.2088C2.25408 11.8401 2.38435 11.4757 2.50938 11.1089C3.1421 11.1076 3.77541 11.1076 4.40813 11.1089C4.54014 11.4776 4.65528 11.8532 4.79776 12.2175C5.44385 12.2056 6.09055 12.2163 6.73665 12.2119C6.7384 11.1139 6.73375 10.0164 6.73955 8.91834C7.18675 10.0139 7.6212 11.1157 8.06605 12.2126C8.3667 12.2119 8.6674 12.2126 8.96805 12.2126C9.38095 11.1288 9.7857 10.042 10.2009 8.95958C10.2032 10.0439 10.2009 11.1282 10.2021 12.2119C10.583 12.2126 10.9639 12.2126 11.3448 12.2119C11.3454 10.7414 11.3454 9.2702 11.3448 7.79965C10.8034 7.8034 10.262 7.78965 9.72055 7.80715C9.328 8.78334 8.91805 9.75204 8.5226 10.727C8.11435 9.75267 7.7119 8.77585 7.30715 7.80028C6.78375 7.7984 6.26095 7.79902 5.73755 7.79965C5.7364 9.19395 5.7387 10.5889 5.73695 11.9832C5.18625 10.5851 4.64599 9.1827 4.0941 7.78527C3.66375 7.78903 3.23398 7.78403 2.80364 7.7884ZM12.0084 7.79965C12.0078 9.2702 12.0078 10.7414 12.0084 12.2119C13.0052 12.2126 14.0025 12.2126 14.9993 12.2126C15.3901 11.7382 15.7792 11.2626 16.17 10.7882C16.5578 11.2601 16.941 11.7369 17.326 12.2119C17.7081 12.2126 18.0908 12.2126 18.4734 12.2119C17.925 11.4682 17.3725 10.7282 16.8218 9.98579C17.3708 9.25644 17.9244 8.53024 18.4734 7.80028C18.0908 7.79778 17.7087 7.79902 17.3267 7.79965C16.9538 8.2665 16.5811 8.73398 16.2083 9.20145C15.8471 8.73585 15.5 8.259 15.136 7.79653C14.0932 7.80278 13.0511 7.79715 12.0084 7.79965Z" fill="#2376B9"/>
<path d="M2.80353 7.7884C3.23387 7.78403 3.66364 7.78903 4.09398 7.78528C4.64587 9.1827 5.18613 10.5851 5.73688 11.9832C5.73858 10.5889 5.73628 9.19395 5.73743 7.79965C6.26083 7.79903 6.78363 7.7984 7.30703 7.80027C7.71178 8.77585 8.11423 9.75267 8.52248 10.727C8.91793 9.75205 9.32793 8.78335 9.72048 7.80715C10.2619 7.78965 10.8033 7.8034 11.3447 7.79965C11.3453 9.2702 11.3453 10.7414 11.3447 12.2119C10.9638 12.2125 10.5829 12.2125 10.202 12.2119C10.2008 11.1282 10.2031 10.0439 10.2008 8.95959C9.78558 10.042 9.38083 11.1289 8.96793 12.2125C8.66728 12.2125 8.36663 12.2119 8.06593 12.2125C7.62108 11.1157 7.18663 10.0139 6.73943 8.91834C6.73363 10.0164 6.73828 11.1139 6.73653 12.2119C6.09043 12.2163 5.44373 12.2056 4.79765 12.2175C4.65517 11.8532 4.54003 11.4776 4.40802 11.1089C3.77529 11.1076 3.14199 11.1076 2.50926 11.1089C2.38423 11.4757 2.25396 11.8401 2.13358 12.2088C1.78407 12.2163 1.43398 12.2113 1.08447 12.2119C1.65613 10.737 2.23187 9.26332 2.80353 7.7884ZM3.40543 8.7546C3.21526 9.2277 3.03382 9.70455 2.84714 10.1789C3.24201 10.1776 3.63688 10.1789 4.03175 10.1777C3.83868 9.70518 3.64852 9.2302 3.45253 8.75897C3.4409 8.75772 3.41706 8.75585 3.40543 8.7546Z" fill="white"/>
<path d="M12.0085 7.79881C13.0512 7.79631 14.0934 7.80193 15.1361 7.79568C15.5001 8.25816 15.8473 8.73501 16.2085 9.20061C16.5812 8.73313 16.954 8.26566 17.3268 7.79881C17.7088 7.79818 18.0909 7.79693 18.4736 7.79943C17.9246 8.52939 17.371 9.25561 16.822 9.98494C17.3727 10.7274 17.9252 11.4674 18.4736 12.2111C18.0909 12.2117 17.7083 12.2117 17.3262 12.2111C16.9412 11.7361 16.558 11.2593 16.1701 10.7874C15.7793 11.2618 15.3902 11.7374 14.9994 12.2117C14.0026 12.2117 13.0053 12.2117 12.0085 12.2111C12.0079 10.7405 12.0079 9.26936 12.0085 7.79881ZM13.0047 8.68251C13.0035 8.99437 13.0041 9.30685 13.0041 9.61871C13.4635 9.61934 13.923 9.61809 14.3824 9.61934C14.383 9.8762 14.383 10.1331 14.3824 10.3905C13.9218 10.3955 13.4612 10.3812 13.0006 10.398C13.007 10.7074 13.0024 11.0174 13.0047 11.3274C13.4955 11.328 13.9858 11.3274 14.4766 11.3274C14.8395 10.8812 15.2 10.4324 15.5606 9.98432C15.2797 9.59246 14.9948 9.20436 14.7156 8.81063C14.6691 8.75313 14.6278 8.66189 14.5417 8.68251C14.0294 8.68064 13.5171 8.68251 13.0047 8.68251Z" fill="white"/>
</svg>
