<svg width="20" height="20" viewBox="0 0 20 20" fill="none" xmlns="http://www.w3.org/2000/svg">
<rect width="20" height="20" fill="white"/>
<path fill-rule="evenodd" clip-rule="evenodd" d="M0 3H19.9785L20 9.22606C17.5882 8.30877 9.9144 6.11341 0 8.84914V3Z" fill="#2C328C"/>
<path fill-rule="evenodd" clip-rule="evenodd" d="M0 16.2067H19.9785V11.2256C16.3754 10.0198 9.97046 8.2128 0 10.7728V16.2067Z" fill="#FFF200"/>
<path fill-rule="evenodd" clip-rule="evenodd" d="M19.9785 11.2257C16.3754 10.0198 9.97046 8.21283 0 10.7728V8.84915C9.9144 6.11343 17.5882 8.31186 20 9.22607L19.9785 11.2257Z" fill="#ED1C24"/>
<path fill-rule="evenodd" clip-rule="evenodd" d="M6.3645 7.67624C6.85879 6.3099 7.99027 5.13009 9.9561 5.14314C11.9219 5.15619 13.233 6.2792 13.5869 7.7484C11.0538 7.48511 9.36507 7.43905 6.3645 7.67624Z" fill="#FFF200"/>
<path d="M4.46362 13.6835L5.80158 11.6878H6.29438L7.71981 13.6835H7.19786L6.79175 13.0794H5.33332L4.94952 13.6835H4.46362ZM5.46842 12.8645H6.64975L6.28592 12.3126C6.19586 12.1796 6.11358 12.0414 6.03952 11.8989C5.99226 12.0338 5.92918 12.1627 5.85146 12.2827L5.46765 12.8668L5.46842 12.8645ZM10.0633 13.6835V13.4717C9.86632 13.6349 9.59918 13.7166 9.26192 13.7166C9.12152 13.7177 8.98152 13.7014 8.84512 13.6682C8.74209 13.6471 8.64443 13.6053 8.55803 13.5454C8.49741 13.4991 8.45152 13.4361 8.42603 13.3642C8.40529 13.2893 8.39649 13.2116 8.39992 13.1339V12.2397H8.82746V13.0403C8.82278 13.1274 8.83158 13.2146 8.85358 13.299C8.88803 13.3708 8.94963 13.426 9.02472 13.4525C9.12809 13.4918 9.23815 13.5103 9.34866 13.507C9.47118 13.5079 9.59301 13.489 9.70946 13.451C9.80318 13.4262 9.88672 13.3725 9.94815 13.2974C10.0005 13.2129 10.0252 13.1142 10.0188 13.015V12.2397H10.4464V13.6835H10.0633ZM11.4834 13.6835V12.2397H11.8672V12.4585C11.9427 12.3725 12.0356 12.3034 12.1397 12.2558C12.2271 12.2223 12.3201 12.2057 12.4137 12.2067C12.5636 12.2071 12.7124 12.233 12.8536 12.2834L12.7062 12.5137C12.6055 12.4785 12.4996 12.4603 12.393 12.46C12.3064 12.4586 12.2204 12.4751 12.1404 12.5083C12.0739 12.534 12.0179 12.5813 11.9816 12.6427C11.9336 12.7302 11.9091 12.8285 11.9102 12.9282V13.6843L11.4834 13.6835ZM15.1272 13.5055C14.9807 13.5779 14.8261 13.6328 14.6667 13.669C14.5114 13.7015 14.3532 13.7174 14.1945 13.7166C13.9175 13.7166 13.7048 13.6782 13.5552 13.6006C13.4055 13.5231 13.3318 13.4241 13.3318 13.3036C13.3321 13.2672 13.3398 13.2313 13.3543 13.1979C13.3688 13.1646 13.3899 13.1345 13.4162 13.1094C13.4784 13.0469 13.5536 12.999 13.6365 12.9689C13.7359 12.9327 13.8388 12.9069 13.9436 12.8922C14.0272 12.8799 14.1539 12.8668 14.3228 12.8553C14.5785 12.8422 14.8333 12.814 15.0857 12.7709C15.0857 12.7371 15.0857 12.7164 15.0857 12.7071C15.089 12.664 15.0792 12.6208 15.0575 12.5833C15.0359 12.5458 15.0035 12.5157 14.9645 12.4969C14.8105 12.4329 14.6442 12.4046 14.4778 12.4139C14.3267 12.4065 14.1755 12.4271 14.0319 12.4746C13.9357 12.5154 13.8593 12.5923 13.8192 12.6887L13.4016 12.6557C13.4377 12.5561 13.5029 12.4697 13.5889 12.4078C13.7034 12.3336 13.832 12.2839 13.9666 12.2619C14.1553 12.2259 14.3471 12.2089 14.5392 12.2113C14.7153 12.2079 14.8912 12.2226 15.0643 12.255C15.1695 12.2729 15.2704 12.3102 15.3621 12.3648C15.4224 12.4054 15.4687 12.4636 15.4949 12.5314C15.5122 12.6053 15.5192 12.6813 15.5156 12.757V13.0833C15.5088 13.2277 15.5181 13.3723 15.5432 13.5147C15.5647 13.5805 15.6019 13.64 15.6515 13.6882H15.2047C15.1605 13.6377 15.1311 13.5761 15.1195 13.5101L15.1272 13.5055ZM15.0911 12.9589C14.8607 13.0058 14.6273 13.0369 14.3926 13.0518C14.2673 13.059 14.1426 13.0752 14.0196 13.1002C13.9579 13.1118 13.9 13.1381 13.8507 13.1769C13.8328 13.1907 13.8181 13.2082 13.8078 13.2282C13.7975 13.2482 13.7917 13.2703 13.7908 13.2929C13.7908 13.3581 13.8345 13.4126 13.9205 13.4563C14.0403 13.506 14.1695 13.5283 14.2989 13.5216C14.4479 13.5241 14.5963 13.5034 14.7388 13.4602C14.8472 13.4311 14.9453 13.3724 15.022 13.2905C15.0731 13.2195 15.0975 13.1329 15.0911 13.0457V12.9589Z" fill="#2C328C" stroke="#2C328C" stroke-width="0.22" stroke-miterlimit="22.93"/>
</svg>
