<svg width="20" height="20" viewBox="0 0 20 20" fill="none" xmlns="http://www.w3.org/2000/svg">
<rect width="20" height="20" fill="white"/>
<path fill-rule="evenodd" clip-rule="evenodd" d="M16.1325 4.00001H0V7.17984C0.00778903 12.0309 4.14567 15.9595 9.22297 15.9535H20V7.65638C20 6.67547 19.7027 5.76071 18.9726 5.0634C18.2411 4.36846 17.1627 3.99771 16.1325 4.00001Z" fill="#B5DC19"/>
<path fill-rule="evenodd" clip-rule="evenodd" d="M3.80039 11.8703L3.78711 11.8329L3.21488 10.209L3.20166 10.1717L3.23907 10.1585L4.91077 9.57022C4.97008 9.54922 5.03073 9.53874 5.09317 9.53874C5.3248 9.53874 5.53191 9.68508 5.60801 9.90446L6.0121 11.0495L6.0253 11.0865L5.98741 11.0997L3.83774 11.8567L3.80039 11.8703Z" fill="#A3CA3F"/>
<path fill-rule="evenodd" clip-rule="evenodd" d="M4.61358 11.5416L3.82376 11.8189L3.25287 10.1949L4.61358 9.71618L4.92463 9.60717C4.98069 9.58757 5.03725 9.57845 5.09331 9.57845C5.30265 9.57845 5.49738 9.70836 5.5708 9.91681L5.97525 11.0623L4.61358 11.5416ZM4.61358 9.63226L3.22593 10.1216L3.15161 10.1476L3.17759 10.2223L3.7499 11.8457L3.77588 11.9206L3.84975 11.8941L4.61358 11.626L6.00079 11.1371L6.07553 11.1111L6.04913 11.0359L5.64601 9.8903C5.56346 9.65595 5.34185 9.49864 5.09331 9.49864C5.02678 9.49864 4.96153 9.5109 4.89814 9.5328L4.61358 9.63226Z" fill="white"/>
<path fill-rule="evenodd" clip-rule="evenodd" d="M5.34043 13.4464H5.33998C4.75357 13.4464 4.22909 13.0747 4.03392 12.5216L3.88797 12.1057L3.87476 12.0683L3.91217 12.0551L6.18638 11.2539C6.24604 11.2338 6.30901 11.2224 6.37244 11.2224C6.61044 11.2224 6.82295 11.3738 6.90324 11.5972L7.32135 12.7897L7.33506 12.8271L7.29764 12.8403L5.80101 13.3679C5.65186 13.4199 5.4973 13.4464 5.34043 13.4464Z" fill="#194084"/>
<path fill-rule="evenodd" clip-rule="evenodd" d="M5.60492 13.3807C5.51643 13.399 5.42801 13.4071 5.33996 13.4071C4.78548 13.4071 4.26604 13.061 4.07132 12.5083L3.92499 12.092L5.60492 11.5011L6.1991 11.2916C6.25658 11.2712 6.31492 11.2625 6.37241 11.2625C6.58807 11.2625 6.78915 11.3962 6.86487 11.6109L7.28487 12.8034L5.78778 13.3306C5.7267 13.3525 5.66602 13.3684 5.60492 13.3807ZM5.60492 11.4175L3.89894 12.0172L3.82373 12.0446L3.84971 12.1184L3.99655 12.5344C4.19722 13.1044 4.73715 13.4856 5.33996 13.4856C5.42935 13.4856 5.51784 13.4778 5.60492 13.461C5.67515 13.4478 5.74538 13.4291 5.81418 13.4044L7.31041 12.8773L7.38521 12.8513L7.35921 12.7769L6.93921 11.585C6.85532 11.3432 6.62778 11.1832 6.37241 11.1832C6.30447 11.1832 6.23744 11.1946 6.17315 11.2169L5.60492 11.4175Z" fill="white"/>
<path fill-rule="evenodd" clip-rule="evenodd" d="M8.67431 13.4751C7.90591 13.4751 7.49962 13.0834 7.49962 12.3401C7.49962 11.8904 7.63734 11.4796 7.88722 11.1845C8.15671 10.8662 8.53614 10.6989 8.98528 10.6989C9.32368 10.6989 9.60865 10.7782 9.81208 10.9282C10.0432 11.1007 10.1645 11.3551 10.1714 11.6871V11.708H10.1499H9.43722H9.41671V11.6871C9.41671 11.4043 9.27579 11.2776 8.96117 11.2776C8.40162 11.2776 8.25477 11.9826 8.25477 12.3551C8.25477 12.6018 8.33591 12.8955 8.72494 12.8955C9.08151 12.8955 9.22699 12.6037 9.28128 12.4294L9.28625 12.4139H9.30174H10.0141H10.0442L10.0347 12.4422C9.80934 13.1175 9.33871 13.4751 8.67431 13.4751ZM11.3457 12.9388C11.6435 12.8732 11.7556 12.626 11.8245 12.3839L11.881 12.1819C11.7246 12.258 11.5472 12.2708 11.3749 12.2817L11.3457 12.2835L11.3156 12.2862C11.0113 12.3195 10.8085 12.4007 10.8085 12.6857C10.8085 12.8855 11.0073 12.9557 11.1784 12.9557C11.2389 12.9557 11.2941 12.9502 11.3457 12.9388ZM11.3457 11.8376L11.3739 11.8339C11.8272 11.7892 12.0347 11.7683 12.0347 11.5119C12.0347 11.2384 11.7055 11.2169 11.6043 11.2169C11.5053 11.2169 11.4182 11.2352 11.3457 11.2657C11.2116 11.3259 11.124 11.4339 11.0985 11.5812L10.4108 11.5985C10.4323 11.2648 10.5791 11.0336 10.8276 10.8853C10.9713 10.8005 11.1441 10.744 11.3457 10.7167C11.4377 10.7039 11.5353 10.6989 11.6393 10.6989C12.0862 10.6989 12.4018 10.7896 12.5787 10.9688C12.6836 11.0751 12.7379 11.2146 12.7397 11.3801C12.7397 11.4973 12.7201 11.6451 12.6836 11.8421L12.4529 12.8868C12.4296 12.9725 12.4187 13.1262 12.4187 13.2325C12.4187 13.2763 12.4278 13.3337 12.4424 13.3765L12.452 13.4044H12.4219H11.71L11.6886 13.1814C11.5946 13.274 11.4769 13.3469 11.3457 13.398C11.2135 13.4482 11.0671 13.4751 10.9169 13.4751C10.321 13.4751 10.0533 13.1221 10.0533 12.7719C10.0533 12.2753 10.4223 11.9452 11.0652 11.8676L11.3457 11.8376ZM13.5076 13.4044H13.4907H12.778H12.752L12.7579 13.3798L13.2996 10.7851L13.3029 10.7687H13.3197H13.9979H14.0243L14.0188 10.7946L13.9367 11.1544C14.1109 10.8703 14.4301 10.6989 14.7955 10.6989C14.8707 10.6989 14.9413 10.7029 15.0184 10.7134L15.0416 10.7157L15.0371 10.739L14.8917 11.4308L14.8871 11.4521L14.8657 11.4481C14.8493 11.444 14.831 11.4404 14.8136 11.4362C14.7334 11.4199 14.6504 11.4025 14.5688 11.4025C14.0061 11.4025 13.8364 11.8503 13.7525 12.2388L13.5113 13.3875L13.5076 13.4044ZM16.0472 12.8795C16.4713 12.7783 16.671 12.2119 16.671 11.8175C16.671 11.4745 16.4913 11.2776 16.1799 11.2776C16.1338 11.2776 16.0892 11.2825 16.0472 11.2916C15.6181 11.387 15.4238 11.9383 15.4238 12.3401C15.4238 12.5959 15.5511 12.8955 15.9095 12.8955C15.9578 12.8955 16.0034 12.89 16.0472 12.8795ZM16.0472 10.6997L16.1055 10.6989C16.36 10.6989 16.6938 10.7997 16.832 11.0815L17.1075 9.79689L17.8411 9.78003L17.1037 13.3875L16.3965 13.4044L16.4289 13.1335C16.3359 13.2616 16.2045 13.3574 16.0472 13.4131C15.9359 13.4536 15.8119 13.4751 15.6778 13.4751C15.0558 13.4751 14.6682 13.0747 14.6682 12.4299C14.6682 11.9761 14.7945 11.5539 15.0211 11.2424C15.2688 10.9017 15.6236 10.7139 16.0472 10.6997ZM16.454 9.24781C16.1571 9.24781 15.8831 9.18262 15.6833 9.06451C15.4338 8.91626 15.3025 8.68649 15.3025 8.39824V8.29065V8.26876H15.324H16.002H16.0231V8.29065V8.37774C16.0231 8.59985 16.2761 8.71567 16.5264 8.71567C16.63 8.71567 16.967 8.69466 16.967 8.41879C16.967 8.25503 16.8867 8.20128 16.7198 8.14745L16.1593 7.9669C15.7854 7.84604 15.5688 7.69282 15.5688 7.26736C15.5688 6.67131 16.1712 6.40361 16.7677 6.40361C17.1959 6.40361 17.4919 6.49305 17.6733 6.67725C17.8137 6.81949 17.8823 7.0197 17.8785 7.27374V7.29558H17.8567H17.179H17.1571L17.1567 7.27374C17.1512 7.0494 17.0207 6.93581 16.7677 6.93581C16.5739 6.93581 16.3423 6.97732 16.3423 7.17523C16.3423 7.26551 16.3951 7.33982 16.661 7.42193L17.0266 7.54004C17.397 7.66224 17.7395 7.84196 17.7395 8.32162C17.7395 8.62903 17.5967 8.87706 17.3264 9.03853C17.1024 9.17305 16.7928 9.24781 16.454 9.24781ZM12.0265 9.17624H12.01H11.28H11.2531L11.2586 9.14885L11.5819 7.59201C11.6038 7.51316 11.6279 7.34168 11.6279 7.27374C11.6279 7.12594 11.456 7.0229 11.3005 7.0229C10.7829 7.0229 10.6219 7.52816 10.5764 7.74524L10.2796 9.15843L10.2759 9.17624H10.2581H9.52842H9.50111L9.50694 9.14885L10.0615 6.49254L10.0652 6.47569H10.0829H10.7816H10.8085L10.8025 6.50263L10.736 6.80314C10.9713 6.53768 11.2745 6.40361 11.6393 6.40361C12.1542 6.40361 12.4373 6.66492 12.4373 7.13922C12.4373 7.21533 12.4109 7.3704 12.3594 7.60158L12.0311 9.15843L12.0265 9.17624ZM4.95275 7.54182H4.36174L4.15514 8.50588H4.95275H5.1402C5.52231 8.50588 5.75031 8.29296 5.75031 7.93677C5.75031 7.57241 5.43293 7.54182 5.13515 7.54182H4.95275ZM4.95275 6.13278H4.65498L4.4835 6.94858H4.95275H5.37138C5.63225 6.94858 5.89437 6.80583 5.89437 6.48757C5.89437 6.24585 5.76579 6.13278 5.48994 6.13278H4.95275ZM4.95275 9.17624H3.21899L3.96776 5.47978L4.95275 5.46331H5.53054C5.95008 5.46331 6.22277 5.51668 6.41385 5.63345C6.63585 5.77161 6.74488 6.0028 6.74488 6.34302C6.74488 6.5578 6.67785 6.76209 6.55745 6.9203C6.44345 7.06944 6.28797 7.16885 6.10694 7.20716C6.41339 7.31658 6.60122 7.59609 6.60122 7.95132C6.60122 8.3303 6.45071 8.64863 6.16671 8.86845C5.91174 9.0663 5.55972 9.17624 5.17621 9.17624H4.95275ZM14.0207 7.51858H14.6034C14.5998 7.271 14.5373 6.99781 14.1315 6.99781C14.0932 6.99781 14.0572 6.99921 14.0207 7.0042C13.7525 7.04071 13.5569 7.21354 13.4378 7.51858H14.0207ZM14.0207 6.40546L14.0904 6.40361C14.4684 6.40361 14.784 6.50672 15.0015 6.70093C15.2328 6.90709 15.3508 7.20575 15.3508 7.58658C15.3508 7.72608 15.3358 7.87203 15.3094 8.007L14.0207 8.02436H13.3503L13.3467 8.15792C13.3467 8.47396 13.5518 8.65457 13.9108 8.65457C13.9495 8.65457 13.9873 8.65086 14.0207 8.64448C14.2272 8.60253 14.344 8.44752 14.4375 8.29883L15.1853 8.29021H15.2172L15.2054 8.31888C14.9787 8.90356 14.6185 9.18671 14.0207 9.23913C13.9527 9.24462 13.882 9.24781 13.8081 9.24781C13.0539 9.24781 12.6043 8.80594 12.6043 8.06445C12.6043 7.63076 12.7452 7.22126 13.0019 6.91258C13.2609 6.60248 13.6208 6.42417 14.0207 6.40546ZM8.06048 7.57011L8.08922 7.56743C8.55442 7.52089 8.76642 7.50033 8.76642 7.23722C8.76642 6.95772 8.42945 6.93581 8.32545 6.93581C8.22511 6.93581 8.13574 6.95267 8.06008 6.98644C7.92322 7.04665 7.83385 7.15786 7.80785 7.30745L7.10288 7.32571C7.12517 6.9837 7.27619 6.74792 7.53059 6.59565C7.67654 6.50806 7.85391 6.4506 8.06008 6.42282C8.15442 6.41095 8.25568 6.40361 8.36145 6.40361C8.81974 6.40361 9.14311 6.49759 9.32368 6.68089C9.43088 6.78987 9.48602 6.93077 9.48831 7.09951C9.48877 7.22312 9.46962 7.3704 9.43128 7.5747L9.19551 8.64448C9.17042 8.73297 9.15951 8.88984 9.15951 9.00023C9.15951 9.04447 9.16957 9.10326 9.18374 9.14656L9.19419 9.17624H9.16317H8.43397L8.41162 8.94596C8.31585 9.04172 8.19591 9.11648 8.06008 9.1689C7.92511 9.22004 7.77505 9.24781 7.62185 9.24781C7.01071 9.24781 6.73671 8.8853 6.73671 8.52777C6.73671 8.01932 7.11471 7.68234 7.77322 7.60158L8.06048 7.57011ZM8.08471 8.69556C8.38974 8.62852 8.48099 8.37914 8.55168 8.1306L8.61048 7.92214C8.44854 8.00106 8.26757 8.01428 8.09059 8.0257L8.02991 8.03024C7.71848 8.06445 7.50968 8.14745 7.50968 8.43973C7.50968 8.64404 7.71397 8.71567 7.88899 8.71567C7.95242 8.71567 8.03362 8.70788 8.08471 8.69556Z" fill="#194084"/>
</svg>
