<svg width="45" height="38" viewBox="0 0 45 38" fill="none" xmlns="http://www.w3.org/2000/svg">
<g filter="url(#filter0_d)">
<rect x="6.63477" y="5.3429" width="31.513" height="24.9714" rx="4" fill="#EEF0FF"/>
</g>
<rect x="26.3306" y="21.1144" width="11.8174" height="0.657143" fill="#888991"/>
<rect x="6.63477" y="21.1144" width="11.8174" height="0.657143" fill="#888991"/>
<rect x="26.3306" y="13.2286" width="11.8174" height="0.657143" fill="#888991"/>
<rect x="6.63477" y="13.2286" width="11.8174" height="0.657143" fill="#888991"/>
<path d="M22.3915 7.97144C19.5871 9.11988 18.9097 10.5846 18.4524 13.8857C19.1399 17.0619 19.0719 18.7794 18.4524 21.7714C18.7034 25.2752 19.6083 26.6679 22.3915 28.3429C25.2224 26.4694 26.126 25.0589 26.3307 21.7714C25.7302 18.6895 25.7825 16.967 26.3307 13.8857C25.8045 10.3509 24.995 8.99059 22.3915 7.97144Z" stroke="#888991" stroke-width="0.5"/>
<defs>
<filter id="filter0_d" x="0.634766" y="0.342896" width="43.513" height="36.9714" filterUnits="userSpaceOnUse" color-interpolation-filters="sRGB">
<feFlood flood-opacity="0" result="BackgroundImageFix"/>
<feColorMatrix in="SourceAlpha" type="matrix" values="0 0 0 0 0 0 0 0 0 0 0 0 0 0 0 0 0 0 127 0"/>
<feOffset dy="1"/>
<feGaussianBlur stdDeviation="3"/>
<feColorMatrix type="matrix" values="0 0 0 0 0 0 0 0 0 0 0 0 0 0 0 0 0 0 0.5 0"/>
<feBlend mode="normal" in2="BackgroundImageFix" result="effect1_dropShadow"/>
<feBlend mode="normal" in="SourceGraphic" in2="effect1_dropShadow" result="shape"/>
</filter>
</defs>
</svg>
