<svg width="20" height="20" viewBox="0 0 20 20" fill="none" xmlns="http://www.w3.org/2000/svg">
<rect width="20" height="20" fill="white"/>
<path d="M2.17391 3C0.978261 3 0 3.98438 0 5.1875V14.8125C0 16.0156 0.978261 17 2.17391 17H17.8261C19.0217 17 20 16.0156 20 14.8125V5.1875C20 3.98438 19.0217 3 17.8261 3H2.17391ZM2.17391 3.875H17.8261C18.5513 3.875 19.1304 4.45776 19.1304 5.1875V6.0625H0.869565V5.1875C0.869565 4.45776 1.44871 3.875 2.17391 3.875ZM0.869565 8.25H19.1304V14.8125C19.1304 15.5422 18.5513 16.125 17.8261 16.125H2.17391C1.44871 16.125 0.869565 15.5422 0.869565 14.8125V8.25ZM3.04348 9.5625V10.4375H10V9.5625H3.04348Z"/>
</svg>
