<svg width="20" height="20" viewBox="0 0 20 20" fill="none" xmlns="http://www.w3.org/2000/svg">
<rect width="20" height="20" fill="white"/>
<path d="M7.23815 2.03115C7.61847 1.99046 8.00122 2.0027 8.38298 2.00105C9.46329 2.00105 10.5436 2.00105 11.6236 2.00105C13.8168 1.96599 16.0175 2.81178 17.6016 4.33368C18.455 5.14936 19.1241 6.15922 19.5274 7.2693C19.9382 8.39559 20.0837 9.6178 19.954 10.8089C19.8281 11.8978 19.4447 12.9517 18.8639 13.8795C17.3893 16.2472 14.6832 17.8064 11.8888 17.8485C10.9183 17.8488 9.94784 17.8485 8.97763 17.8488C8.27775 17.8412 7.57421 17.8806 6.87919 17.7773C5.5862 17.6037 4.34024 17.1026 3.28372 16.3382C1.90741 15.3475 0.853178 13.9095 0.349736 12.2881C-0.008826 11.1625 -0.0779507 9.95718 0.0798305 8.78987C0.231326 7.67152 0.612041 6.58162 1.21472 5.62601C1.84644 4.61847 2.72071 3.76573 3.74017 3.1538C4.79835 2.51507 6.00768 2.13567 7.23815 2.03115ZM7.46167 2.6755C6.37151 2.7572 5.30049 3.08864 4.35706 3.64202C3.35808 4.22418 2.50273 5.05046 1.88351 6.02691C1.172 7.14394 0.77842 8.45975 0.759897 9.78418C0.727154 11.3305 1.21007 12.8812 2.11511 14.1352C2.84376 15.152 3.83843 15.9762 4.97462 16.4988C6.29671 17.1135 7.80636 17.3053 9.24198 17.0582C10.3851 16.8641 11.478 16.3858 12.3992 15.6816C13.3571 14.9526 14.1301 13.9814 14.623 12.8825C15.1747 11.6613 15.3732 10.2843 15.1956 8.95625C15.0424 7.76546 14.5817 6.617 13.8748 5.64685C13.1679 4.67305 12.2156 3.87852 11.1294 3.36086C9.99476 2.81542 8.71604 2.58156 7.46167 2.6755Z" fill="#0079BE"/>
<path d="M9.6521 5.61772C10.6779 6.01069 11.5521 6.78271 12.0658 7.75386C12.6615 8.85964 12.7687 10.2138 12.3556 11.4C11.9259 12.6725 10.9071 13.7243 9.65309 14.2027C9.65177 11.3411 9.65343 8.47925 9.6521 5.61772Z" fill="#0079BE"/>
<path d="M4.28964 7.2134C4.80761 6.49728 5.53693 5.93761 6.36163 5.61907C6.3613 8.47928 6.36196 11.3395 6.36097 14.1997C5.44962 13.8488 4.65646 13.2005 4.13284 12.3758C3.68359 11.6746 3.43229 10.8486 3.41404 10.0161C3.38858 9.01944 3.70185 8.01851 4.28964 7.2134Z" fill="#0079BE"/>
<path d="M7.46166 2.67549C8.71603 2.58155 9.99475 2.81541 11.1293 3.36085C12.2156 3.87851 13.1679 4.67304 13.8747 5.64684C14.5816 6.617 15.0423 7.76545 15.1956 8.95624C15.3732 10.2843 15.1747 11.6613 14.6229 12.8825C14.1301 13.9814 13.3571 14.9526 12.3991 15.6816C11.4779 16.3858 10.385 16.8641 9.24197 17.0582C7.80635 17.3053 6.2967 17.1135 4.97461 16.4988C3.83842 15.9762 2.84375 15.152 2.1151 14.1352C1.21006 12.8812 0.727121 11.3305 0.759863 9.78417C0.778386 8.45974 1.17199 7.14393 1.8835 6.0269C2.50271 5.05045 3.35807 4.22417 4.35705 3.64201C5.30037 3.08863 6.3715 2.75719 7.46166 2.67549ZM9.65172 5.61774C9.65305 8.47926 9.65139 11.3411 9.65272 14.2027C10.9068 13.7243 11.9255 12.6725 12.3552 11.4C12.7683 10.2138 12.6612 8.85966 12.0654 7.75387C11.5518 6.78272 10.6775 6.01069 9.65172 5.61774ZM4.28955 7.21338C3.70176 8.01849 3.3885 9.01942 3.41395 10.016C3.43221 10.8486 3.68361 11.6745 4.13275 12.3758C4.65637 13.2004 5.44953 13.8487 6.36088 14.1997C6.36187 11.3395 6.36121 8.47926 6.36154 5.61905C5.53695 5.93759 4.80752 6.49726 4.28955 7.21338Z" fill="white"/>
</svg>
