<svg width="20" height="20" viewBox="0 0 20 20" fill="none" xmlns="http://www.w3.org/2000/svg">
<rect width="20" height="20" fill="white"/>
<path d="M0.915909 8.08882H0V11.2973H0.915909C1.39884 11.2973 1.7541 11.1807 2.0594 10.9254C2.42577 10.6201 2.64226 10.1649 2.64226 9.69305C2.63671 8.74938 1.93173 8.08882 0.915909 8.08882ZM1.64863 10.4979C1.45435 10.6756 1.19901 10.7533 0.793786 10.7533H0.62726V8.63282H0.793786C1.19901 8.63282 1.44325 8.70498 1.64863 8.89371C1.86512 9.088 1.9928 9.3822 1.9928 9.69305C1.9928 9.99835 1.86512 10.3037 1.64863 10.4979Z" fill="#231F20"/>
<path d="M3.55255 8.08882H2.92529V11.2973H3.55255V8.08882Z" fill="#231F20"/>
<path d="M5.07907 9.32114C4.70162 9.18236 4.59615 9.08799 4.59615 8.91592C4.59615 8.71608 4.79044 8.56066 5.06243 8.56066C5.25119 8.56066 5.40102 8.63837 5.56756 8.82155L5.89508 8.39412C5.62865 8.16098 5.30665 8.03886 4.95141 8.03886C4.38522 8.03886 3.95224 8.43298 3.95224 8.95477C3.95224 9.39885 4.15207 9.62089 4.74047 9.83183C4.98472 9.92064 5.1124 9.97615 5.17343 10.015C5.30113 10.0983 5.36217 10.2148 5.36217 10.3481C5.36217 10.609 5.15682 10.7977 4.87925 10.7977C4.5795 10.7977 4.34081 10.6478 4.19648 10.3703L3.79126 10.7588C4.07991 11.1807 4.42407 11.3694 4.90145 11.3694C5.5509 11.3694 6.00611 10.9365 6.00611 10.3148C6.00611 9.80962 5.79514 9.58203 5.07907 9.32114Z" fill="#231F20"/>
<path d="M6.20044 9.69304C6.20044 10.6367 6.9387 11.3639 7.8935 11.3639C8.15993 11.3639 8.39309 11.3084 8.67618 11.1751V10.4369C8.42636 10.6867 8.20435 10.7866 7.92126 10.7866C7.29398 10.7866 6.84433 10.3314 6.84433 9.68194C6.84433 9.06578 7.30507 8.58285 7.8935 8.58285C8.19326 8.58285 8.41527 8.68832 8.67618 8.94366V8.20538C8.40418 8.06661 8.1766 8.0111 7.90459 8.0111C6.96094 8.01665 6.20044 8.76048 6.20044 9.69304Z" fill="#231F20"/>
<path d="M13.6331 10.2426L12.7782 8.08882H12.0955L13.461 11.3805H13.794L15.1818 8.08882H14.5046L13.6331 10.2426Z" fill="#231F20"/>
<path d="M15.4651 11.2973H17.2358V10.7533H16.0868V9.88733H17.1915V9.34334H16.0868V8.63282H17.2358V8.08882H15.4651V11.2973Z" fill="#231F20"/>
<path d="M19.7113 9.03804C19.7113 8.43853 19.3005 8.08882 18.5789 8.08882H17.6519V11.2973H18.2791V10.0095H18.3624L19.2283 11.2973H19.9999L18.9896 9.94839C19.4504 9.84848 19.7113 9.52652 19.7113 9.03804ZM18.4568 9.56538H18.2736V8.59396H18.4679C18.8564 8.59396 19.0673 8.75494 19.0673 9.07134C19.0673 9.3933 18.8564 9.56538 18.4568 9.56538Z" fill="#231F20"/>
<path d="M10.5857 11.4083C11.5269 11.4083 12.2898 10.6453 12.2898 9.70414C12.2898 8.76297 11.5269 8 10.5857 8C9.64457 8 8.88159 8.76297 8.88159 9.70414C8.88159 10.6453 9.64457 11.4083 10.5857 11.4083Z" fill="url(#paint0_linear)"/>
<path opacity="0.65" d="M10.5857 11.4083C11.5269 11.4083 12.2898 10.6453 12.2898 9.70414C12.2898 8.76297 11.5269 8 10.5857 8C9.64457 8 8.88159 8.76297 8.88159 9.70414C8.88159 10.6453 9.64457 11.4083 10.5857 11.4083Z" fill="url(#paint1_linear)"/>
<defs>
<linearGradient id="paint0_linear" x1="11.459" y1="11.0715" x2="10.2781" y2="9.22253" gradientUnits="userSpaceOnUse">
<stop stop-color="#F89F20"/>
<stop offset="0.2502" stop-color="#F79A20"/>
<stop offset="0.5331" stop-color="#F68D20"/>
<stop offset="0.6196" stop-color="#F58720"/>
<stop offset="0.7232" stop-color="#F48120"/>
<stop offset="1" stop-color="#F37521"/>
</linearGradient>
<linearGradient id="paint1_linear" x1="11.2724" y1="11.0463" x2="9.54641" y2="7.67279" gradientUnits="userSpaceOnUse">
<stop stop-color="#F58720"/>
<stop offset="0.3587" stop-color="#E16F27"/>
<stop offset="0.703" stop-color="#D4602C"/>
<stop offset="0.9816" stop-color="#D05B2E"/>
</linearGradient>
</defs>
</svg>
