<svg width="20" height="20" viewBox="0 0 20 20" fill="none" xmlns="http://www.w3.org/2000/svg">
<rect width="20" height="20" fill="white"/>
<path d="M18.3296 11.3495C18.8876 11.4446 19.4415 11.5638 20 11.6584C19.7488 13.2409 18.4448 14.5732 16.8857 14.9034C16.1534 15.0698 15.381 15.0164 14.6699 14.7799C14.8267 14.2308 15.0321 13.6964 15.2063 13.1524C15.6095 13.2773 16.0396 13.3175 16.457 13.248C17.3881 13.072 18.1676 12.2864 18.3296 11.3495Z" fill="#EF4223"/>
<path d="M14.626 7.07205C15.5084 6.75044 16.5023 6.75044 17.3847 7.07205C18.6996 7.53319 19.7275 8.72222 19.9905 10.0938C19.4362 10.2049 18.8852 10.3298 18.33 10.4348C18.2044 9.8228 17.8299 9.26565 17.3068 8.9237C16.6907 8.51034 15.8762 8.41196 15.1812 8.67445C15.0164 8.13433 14.8153 7.60414 14.626 7.07205Z" fill="#FFF200"/>
<path d="M12.1674 9.5078C12.3983 8.87545 12.7892 8.30269 13.293 7.85669H13.3214C13.7005 8.27526 14.0711 8.70093 14.4488 9.12139C13.9644 9.548 13.633 10.1718 13.6311 10.825C13.5905 11.542 13.9526 12.2245 14.4479 12.7206C14.0905 13.1439 13.7232 13.5597 13.3733 13.9891C13.3506 13.983 13.3053 13.9707 13.2826 13.965C12.7911 13.5176 12.3993 12.9571 12.1722 12.3304C11.836 11.4294 11.8379 10.4102 12.1674 9.5078Z" fill="#00A4E0"/>
<path d="M8.77133 5.00095C9.29633 5.00189 9.82183 5.00426 10.3469 5C10.3478 7.62069 10.3464 10.2414 10.3478 12.8625C10.8067 13.0413 11.2562 13.2437 11.7156 13.4225C11.5008 13.9451 11.277 14.464 11.0702 14.9899C10.6264 14.8371 10.2029 14.6309 9.76563 14.4611C9.36763 14.3088 9.03663 13.9849 8.88933 13.5828C8.76848 13.2787 8.77083 12.9453 8.77133 12.6232C8.77178 10.0824 8.77178 7.5417 8.77133 5.00095Z" fill="black"/>
<path d="M5.58092 12.7514C5.64137 12.7022 5.69332 12.6336 5.77547 12.6227C6.14137 13.0332 6.53847 13.4145 6.91947 13.8113C6.82977 13.9536 6.68012 14.0426 6.55547 14.1513C5.41002 15.0533 3.76885 15.2472 2.44022 14.6536C2.24947 14.5756 2.07667 14.4616 1.89111 14.3722C2.18951 13.8846 2.49263 13.3993 2.80189 12.9188C3.63287 13.4868 4.82079 13.4036 5.58092 12.7514Z" fill="black"/>
<path d="M2.52437 7.13544C3.46489 6.74666 4.55177 6.72963 5.50409 7.08956C6.76474 7.55117 7.74819 8.67871 8.04474 9.98882C5.61789 11.0326 3.18821 12.0689 0.759954 13.1099C0.732099 13.117 0.675914 13.1316 0.648054 13.1392C0.341632 12.6369 0.118306 12.0793 0.0427626 11.4933C-0.105019 10.4972 0.133887 9.44822 0.702824 8.61817C1.14759 7.95933 1.78924 7.43624 2.52437 7.13544ZM2.21559 9.42741C1.82654 9.90463 1.64759 10.536 1.70142 11.148C3.09661 10.554 4.4885 9.95288 5.88509 9.36262C5.46679 8.88918 4.86952 8.56993 4.23496 8.53304C3.46961 8.47486 2.68821 8.82249 2.21559 9.42741Z" fill="black"/>
</svg>
