<svg width="20" height="20" viewBox="0 0 20 20" fill="none" xmlns="http://www.w3.org/2000/svg">
<rect width="20" height="20" fill="white"/>
<path d="M2.68825 6.11804C2.95127 6.04823 3.22258 5.99436 3.49591 6.00525C8.99735 6.00444 14.4986 5.9998 20 6.00001C19.948 6.30225 19.8764 6.60086 19.8174 6.90189C19.3722 9.06743 18.9289 11.2332 18.4825 13.3985C18.4314 13.6687 18.3078 13.9298 18.1154 14.1283C17.8926 14.3779 17.5728 14.5165 17.2544 14.5992C17.0581 14.6446 16.8581 14.6801 16.6565 14.6892C11.1044 14.6918 5.55215 14.6924 0 14.6957C0.125547 14.044 0.264437 13.3949 0.395847 12.7442C0.747825 11.0199 1.09879 9.29522 1.45521 7.57155C1.50778 7.35041 1.53729 7.11879 1.64748 6.91642C1.845 6.50603 2.25904 6.23809 2.68825 6.11804ZM17.8477 8.58501C17.8081 8.89936 17.7521 9.21129 17.7024 9.52402C17.3312 9.40155 16.8947 9.41225 16.5619 9.63298C16.2831 9.81981 16.1343 10.14 16.0482 10.4536C16.0044 10.5912 15.9991 10.7364 15.9861 10.8791C15.9879 11.0633 16.0047 11.2624 16.1197 11.4148C16.2077 11.5354 16.3534 11.5947 16.4954 11.6242C16.7153 11.6619 16.9509 11.651 17.1551 11.5546C17.2819 11.4947 17.3643 11.3766 17.4391 11.263C17.4247 11.3734 17.4082 11.4834 17.3971 11.5939C17.5291 11.5943 17.6609 11.5941 17.7929 11.5939C17.7882 11.4156 17.8221 11.2396 17.8421 11.0631C17.8865 10.6836 17.9587 10.3081 18.0246 9.93179C18.1073 9.48286 18.1882 9.03374 18.281 8.58683C18.1366 8.5832 17.9921 8.58602 17.8477 8.58501ZM5.14035 8.62819C4.98651 8.68488 4.94688 8.87535 4.97215 9.01961C5.00225 9.13906 5.1523 9.14612 5.25035 9.11949C5.39305 9.07933 5.4606 8.91812 5.44725 8.78052C5.45655 8.70042 5.3955 8.61971 5.31485 8.61144C5.2566 8.6068 5.19515 8.60519 5.14035 8.62819ZM2.28128 8.64413C2.17615 9.22561 2.09912 9.81194 1.98934 10.3926C1.91737 10.7937 1.83105 11.1924 1.75968 11.5937C1.92405 11.5945 2.0882 11.5937 2.25257 11.5943C2.33647 11.1046 2.40905 10.6129 2.50589 10.1259C2.95288 10.1251 3.40008 10.1241 3.84708 10.1263C3.76217 10.6162 3.66128 11.1034 3.57981 11.5937C3.74579 11.5931 3.91157 11.5968 4.07755 11.5919C4.18793 10.8676 4.3145 10.1459 4.44914 9.42576C4.49746 9.16549 4.54052 8.9044 4.59794 8.64594C4.43236 8.64473 4.26678 8.64675 4.1012 8.64473C4.0353 9.0414 3.96131 9.43666 3.90248 9.83434C3.45265 9.84705 3.00262 9.85411 2.55279 9.83292C2.62396 9.43646 2.69694 9.04019 2.76972 8.64393C2.60698 8.64675 2.44423 8.64635 2.28128 8.64413ZM6.3831 9.49941C6.25655 9.54077 6.14595 9.61683 6.0412 9.69673C6.05435 9.62934 6.0675 9.56195 6.07985 9.49457C5.9557 9.49416 5.83175 9.49457 5.70765 9.49436C5.5471 10.5109 5.3692 11.5249 5.16705 12.5339C5.314 12.5327 5.461 12.538 5.60775 12.5305C5.62335 12.3451 5.6581 12.1623 5.6858 11.9785C5.7202 11.7757 5.74625 11.5717 5.78265 11.3696C5.83945 11.4666 5.9092 11.5693 6.0198 11.6091C6.1811 11.6718 6.36205 11.6625 6.52865 11.628C6.73545 11.5867 6.9336 11.483 7.06845 11.3187C7.21785 11.1597 7.2995 10.9533 7.36665 10.7493C7.41535 10.6164 7.43275 10.4751 7.45255 10.3357C7.4746 10.1923 7.45965 10.0452 7.42285 9.90536C7.37835 9.7272 7.24455 9.57245 7.0723 9.50647C6.85255 9.42213 6.6059 9.43081 6.3831 9.49941ZM8.3686 9.50707C8.1545 9.57769 7.9584 9.71469 7.8389 9.90798C7.68605 10.1584 7.61005 10.4483 7.5765 10.7374C7.57445 10.8878 7.5589 11.0435 7.6147 11.1872C7.67435 11.4016 7.86985 11.5602 8.08415 11.6048C8.4602 11.6914 8.84855 11.6185 9.2193 11.5403C9.23955 11.4253 9.2624 11.3104 9.2838 11.1956C9.07095 11.2836 8.8447 11.3581 8.6114 11.3468C8.49535 11.3492 8.37465 11.3544 8.2689 11.2983C8.1177 11.2459 8.0326 11.0907 8.01175 10.94C7.99925 10.7804 8.01075 10.6196 8.04595 10.4634C8.52145 10.4394 8.99775 10.4612 9.47365 10.4574C9.506 10.3036 9.53895 10.1483 9.53675 9.9903C9.53695 9.89587 9.5232 9.79741 9.47205 9.7161C9.3926 9.58415 9.2472 9.50243 9.098 9.4762C8.85705 9.42233 8.60555 9.44372 8.3686 9.50707ZM10.5159 9.57204C10.4176 9.6475 10.3482 9.75182 10.276 9.85068C10.2983 9.73184 10.3202 9.6128 10.3434 9.49416C10.2186 9.49658 10.0939 9.49073 9.96955 9.49598C9.95605 9.521 9.95585 9.55066 9.95075 9.5781C9.85515 10.2538 9.7276 10.9245 9.59475 11.5937C9.7387 11.5943 9.88285 11.5941 10.0272 11.5939C10.0413 11.3677 10.0826 11.1448 10.1186 10.9216C10.1609 10.6989 10.1917 10.4733 10.2566 10.2556C10.3305 10.0478 10.4714 9.83918 10.6944 9.77522C10.8124 9.76493 10.9346 9.76654 11.0473 9.8071C11.0623 9.7048 11.0827 9.60352 11.1025 9.50223C11.0222 9.47399 10.94 9.44493 10.854 9.44412C10.7325 9.45441 10.6118 9.49598 10.5159 9.57204ZM11.6807 9.49739C11.481 9.54642 11.3124 9.67817 11.1836 9.83434C11.0641 10.0028 10.9831 10.1951 10.9315 10.3942C10.8688 10.5889 10.8643 10.7957 10.8716 10.9983C10.8783 11.2092 10.9843 11.4208 11.163 11.5374C11.3377 11.6375 11.5469 11.6484 11.7438 11.6432C11.9385 11.6248 12.1342 11.5974 12.3202 11.5348C12.3481 11.4283 12.3667 11.3199 12.3828 11.2112C12.2795 11.2544 12.1762 11.3014 12.0646 11.3187C11.8934 11.3569 11.706 11.3768 11.5394 11.3107C11.3749 11.2366 11.3076 11.0478 11.3043 10.8787C11.2956 10.5575 11.3698 10.2266 11.5465 9.95499C11.6607 9.78632 11.8736 9.73023 12.0667 9.72538C12.2557 9.72821 12.4451 9.7617 12.6224 9.82667C12.6428 9.71328 12.6637 9.60009 12.6778 9.48589C12.3473 9.44957 12.0072 9.41366 11.6807 9.49739ZM13.1263 9.49376C13.101 9.60776 13.0708 9.72095 13.046 9.83514C13.315 9.77219 13.5904 9.7048 13.869 9.73204C13.9871 9.74657 14.1294 9.78571 14.1708 9.91202C14.1838 10.0187 14.1713 10.1319 14.1333 10.2322C13.9095 10.2369 13.6854 10.2342 13.4616 10.2356C13.3785 10.2369 13.3001 10.2675 13.2214 10.2905C13.0687 10.3361 12.92 10.4134 12.8183 10.5391C12.6485 10.7259 12.6016 10.9941 12.6388 11.2374C12.6574 11.3811 12.7514 11.5156 12.885 11.575C13.0726 11.6561 13.2847 11.6551 13.4833 11.6238C13.7018 11.5848 13.8808 11.4372 14.0087 11.2626C13.9972 11.3728 13.9825 11.4828 13.9823 11.5939C14.106 11.5943 14.2299 11.5941 14.3538 11.5939C14.3595 11.4906 14.3587 11.3867 14.3692 11.2838C14.4237 10.8637 14.5041 10.4475 14.5778 10.0305C14.58 9.9098 14.6105 9.77401 14.538 9.66707C14.4731 9.56074 14.349 9.50909 14.2319 9.48387C14.0463 9.44493 13.8545 9.43666 13.666 9.45603C13.4857 9.46511 13.3072 9.50122 13.1263 9.49376ZM15.7874 9.48508C15.6172 9.5444 15.5026 9.6933 15.4045 9.83635C15.4208 9.72216 15.4439 9.60897 15.4611 9.49477C15.3359 9.49416 15.2108 9.49457 15.0858 9.49436C14.985 10.1979 14.8564 10.8972 14.7147 11.5939C14.8616 11.5939 15.0086 11.5949 15.1556 11.5933C15.1477 11.4474 15.1807 11.3046 15.2017 11.1613C15.2439 10.8982 15.2809 10.6339 15.3444 10.3751C15.3774 10.2365 15.4296 10.0995 15.5185 9.98647C15.5857 9.88982 15.6902 9.82627 15.7959 9.77926C15.9202 9.76533 16.0515 9.76352 16.1709 9.8071C16.1831 9.7044 16.2029 9.60291 16.2245 9.50183C16.0885 9.44069 15.9267 9.42476 15.7874 9.48508ZM4.88239 9.4988C4.78151 10.2011 4.65717 10.9001 4.5106 11.5941C4.65657 11.5935 4.80274 11.5955 4.9489 11.5927C4.96528 11.4172 4.99641 11.2435 5.0247 11.0695C5.11005 10.5419 5.20545 10.0159 5.31785 9.49356C5.1727 9.49537 5.02755 9.49699 4.88239 9.4988Z" fill="#B3131B"/>
<path d="M6.41284 9.73646C6.55154 9.71346 6.70034 9.72678 6.82424 9.79659C6.96214 9.88254 7.01794 10.0581 7.00844 10.2134C7.00034 10.3405 7.01309 10.4705 6.97849 10.5948C6.92734 10.8096 6.85679 11.0298 6.70499 11.1962C6.58084 11.3328 6.38574 11.3829 6.20644 11.3663C6.10879 11.354 6.00929 11.3137 5.94584 11.236C5.86579 11.121 5.85184 10.9745 5.87589 10.8395C5.92399 10.5623 5.97779 10.2861 6.02609 10.0088C6.03379 9.98039 6.03339 9.94569 6.05644 9.9241C6.15649 9.8327 6.27659 9.75724 6.41284 9.73646Z" fill="#B3131B"/>
<path d="M8.41557 9.7768C8.52537 9.72252 8.65072 9.71688 8.77097 9.71667C8.88762 9.72091 9.02207 9.74916 9.09002 9.85428C9.16237 9.96303 9.12942 10.0996 9.11692 10.2205C8.77767 10.2199 8.43842 10.2239 8.09937 10.2162C8.13317 10.1228 8.16247 10.0258 8.21827 9.94265C8.27447 9.87788 8.33452 9.81029 8.41557 9.7768Z" fill="#B3131B"/>
<path d="M16.6816 9.99492C16.7788 9.8559 16.9296 9.75038 17.1009 9.73181C17.1751 9.72859 17.2495 9.73161 17.3239 9.7304C17.4389 9.72536 17.5456 9.77418 17.6538 9.80566C17.6043 10.0758 17.5586 10.3466 17.504 10.6157C17.4654 10.786 17.4369 10.9656 17.3364 11.1127C17.2123 11.2963 16.9757 11.3879 16.759 11.3524C16.6731 11.3346 16.5849 11.3006 16.5275 11.2315C16.4509 11.1311 16.4291 11.0007 16.4343 10.8772C16.4305 10.5685 16.5032 10.251 16.6816 9.99492Z" fill="#B3131B"/>
<path d="M13.2887 10.5661C13.4085 10.4985 13.5484 10.4709 13.6857 10.4784C13.8214 10.4842 13.9584 10.4675 14.0933 10.4886C14.0601 10.6725 14.0165 10.8561 13.9388 11.0268C13.8117 11.3034 13.4338 11.4521 13.1623 11.2979C13.0948 11.2487 13.0446 11.1668 13.0448 11.0814C13.022 10.8833 13.1178 10.6725 13.2887 10.5661Z" fill="#B3131B"/>
<path d="M17.8474 8.58497C17.9918 8.58598 18.1363 8.58316 18.2807 8.58679C18.1879 9.0337 18.107 9.48283 18.0243 9.93175C17.9584 10.308 17.8862 10.6835 17.8418 11.063C17.8217 11.2396 17.788 11.4155 17.7926 11.5939C17.6606 11.5941 17.5288 11.5943 17.3968 11.5939C17.4079 11.4833 17.4245 11.3733 17.4388 11.263C17.364 11.3766 17.2815 11.4946 17.1548 11.5545C16.9506 11.651 16.7151 11.6619 16.4951 11.6241C16.3532 11.5947 16.2074 11.5354 16.1195 11.4147C16.0044 11.2624 15.9877 11.0632 15.9858 10.879C15.9988 10.7364 16.004 10.5911 16.0479 10.4535C16.134 10.14 16.2828 9.81977 16.5616 9.63294C16.8944 9.41221 17.3309 9.40152 17.7021 9.52399C17.7518 9.21125 17.8078 8.89932 17.8474 8.58497ZM16.6813 9.9949C16.503 10.2509 16.4302 10.5685 16.434 10.8772C16.4288 11.0007 16.4506 11.131 16.5272 11.2315C16.5847 11.3005 16.6728 11.3346 16.7587 11.3524C16.9755 11.3879 17.212 11.2963 17.3361 11.1127C17.4366 10.9656 17.4651 10.786 17.5037 10.6157C17.5583 10.3466 17.604 10.0758 17.6535 9.80565C17.5454 9.77417 17.4386 9.72535 17.3236 9.73039C17.2492 9.7316 17.1748 9.72858 17.1006 9.7318C16.9294 9.75037 16.7785 9.85589 16.6813 9.9949Z" fill="white"/>
<path d="M5.14057 8.62816C5.19537 8.60516 5.25682 8.60678 5.31507 8.61142C5.39572 8.61969 5.45677 8.70039 5.44747 8.78049C5.46082 8.9181 5.39332 9.07931 5.25057 9.11946C5.15252 9.14609 5.00252 9.13903 4.97238 9.01959C4.94711 8.87532 4.98674 8.68486 5.14057 8.62816Z" fill="white"/>
<path d="M2.28136 8.6441C2.44431 8.64632 2.60706 8.64672 2.76981 8.64389C2.69702 9.04016 2.62404 9.43643 2.55288 9.83289C3.0027 9.85408 3.45273 9.84702 3.90256 9.8343C3.96139 9.43663 4.03539 9.04137 4.10129 8.6447C4.26687 8.64672 4.43245 8.6447 4.59802 8.64591C4.54061 8.90437 4.49754 9.16546 4.44923 9.42573C4.31458 10.1458 4.18802 10.8675 4.07764 11.5919C3.91166 11.5967 3.74588 11.5931 3.5799 11.5937C3.66137 11.1034 3.76225 10.6161 3.84717 10.1263C3.40017 10.124 2.95297 10.125 2.50597 10.1259C2.40914 10.6129 2.33656 11.1046 2.25266 11.5943C2.08829 11.5937 1.92413 11.5945 1.75977 11.5937C1.83113 11.1924 1.91746 10.7937 1.98943 10.3926C2.09921 9.81191 2.17624 9.22558 2.28136 8.6441Z" fill="white"/>
<path d="M6.38304 9.49938C6.60584 9.43078 6.85249 9.4221 7.07224 9.50644C7.24449 9.57242 7.37829 9.72717 7.42279 9.90533C7.45959 10.0452 7.47454 10.1922 7.45249 10.3357C7.43269 10.4751 7.41529 10.6163 7.36659 10.7493C7.29944 10.9533 7.21779 11.1597 7.06839 11.3187C6.93354 11.4829 6.73539 11.5866 6.52859 11.628C6.36199 11.6625 6.18104 11.6718 6.01974 11.609C5.90914 11.5693 5.83939 11.4666 5.78259 11.3695C5.74619 11.5717 5.72014 11.7757 5.68574 11.9784C5.65804 12.1622 5.62329 12.345 5.60769 12.5305C5.46094 12.5379 5.31394 12.5327 5.16699 12.5339C5.36914 11.5249 5.54704 10.5108 5.70759 9.49433C5.83174 9.49454 5.95564 9.49413 6.07979 9.49454C6.06744 9.56192 6.05429 9.62931 6.04114 9.6967C6.14589 9.6168 6.25649 9.54074 6.38304 9.49938ZM6.41274 9.73645C6.27649 9.75723 6.15639 9.83269 6.05634 9.92409C6.03329 9.94568 6.03369 9.98038 6.02599 10.0088C5.97769 10.2861 5.92389 10.5623 5.87579 10.8395C5.85174 10.9745 5.86569 11.1209 5.94574 11.2359C6.00924 11.3136 6.10869 11.354 6.20634 11.3663C6.38564 11.3828 6.58074 11.3328 6.70489 11.1962C6.85669 11.0297 6.92729 10.8096 6.97844 10.5948C7.01299 10.4705 7.00024 10.3405 7.00834 10.2134C7.01784 10.0581 6.96204 9.88253 6.82414 9.79658C6.70024 9.72677 6.55144 9.71345 6.41274 9.73645Z" fill="white"/>
<path d="M8.36838 9.50703C8.60533 9.44367 8.85683 9.42229 9.09778 9.47616C9.24698 9.50239 9.39238 9.5841 9.47183 9.71606C9.52298 9.79737 9.53673 9.89583 9.53653 9.99025C9.53873 10.1482 9.50578 10.3036 9.47343 10.4573C8.99753 10.4612 8.52123 10.4394 8.04573 10.4634C8.01053 10.6196 7.99903 10.7804 8.01153 10.9399C8.03238 11.0907 8.11748 11.2458 8.26868 11.2983C8.37443 11.3544 8.49513 11.3491 8.61118 11.3467C8.84448 11.358 9.07073 11.2835 9.28358 11.1956C9.26218 11.3104 9.23933 11.4252 9.21908 11.5402C8.84833 11.6185 8.45998 11.6913 8.08393 11.6048C7.86963 11.5602 7.67413 11.4016 7.61448 11.1871C7.55868 11.0434 7.57423 10.8877 7.57628 10.7374C7.60983 10.4483 7.68583 10.1583 7.83868 9.90793C7.95818 9.71464 8.15428 9.57765 8.36838 9.50703ZM8.41568 9.77679C8.33463 9.81028 8.27458 9.87787 8.21838 9.94264C8.16258 10.0258 8.13323 10.1228 8.09948 10.2162C8.43853 10.2239 8.77778 10.2199 9.11703 10.2205C9.12953 10.0996 9.16248 9.96302 9.09013 9.85427C9.02218 9.74915 8.88773 9.7209 8.77108 9.71666C8.65078 9.71686 8.52548 9.72251 8.41568 9.77679Z" fill="white"/>
<path d="M10.5158 9.57204C10.6118 9.49597 10.7325 9.45441 10.854 9.44412C10.9399 9.44493 11.0222 9.47398 11.1025 9.50223C11.0827 9.60351 11.0622 9.7048 11.0473 9.80709C10.9345 9.76654 10.8124 9.76493 10.6943 9.77522C10.4713 9.83918 10.3304 10.0478 10.2566 10.2556C10.1917 10.4733 10.1608 10.6989 10.1185 10.9216C10.0825 11.1448 10.0413 11.3677 10.0271 11.5939C9.88278 11.5941 9.73863 11.5943 9.59473 11.5937C9.72753 10.9245 9.85508 10.2538 9.95073 9.57809C9.95578 9.55065 9.95598 9.52099 9.96953 9.49597C10.0939 9.49073 10.2186 9.49658 10.3433 9.49416C10.3201 9.6128 10.2983 9.73184 10.276 9.85068C10.3482 9.75181 10.4175 9.6475 10.5158 9.57204Z" fill="white"/>
<path d="M11.6809 9.49739C12.0074 9.41365 12.3474 9.44957 12.678 9.48588C12.6638 9.60008 12.643 9.71327 12.6226 9.82666C12.4453 9.7617 12.2558 9.7282 12.0668 9.72538C11.8737 9.73022 11.6608 9.78631 11.5466 9.95499C11.3699 10.2266 11.2957 10.5575 11.3044 10.8787C11.3076 11.0477 11.375 11.2366 11.5395 11.3106C11.7061 11.3768 11.8935 11.3568 12.0648 11.3187C12.1764 11.3014 12.2797 11.2544 12.383 11.2112C12.3668 11.3199 12.3482 11.4283 12.3203 11.5348C12.1343 11.5974 11.9386 11.6248 11.7439 11.6432C11.547 11.6484 11.3378 11.6375 11.1631 11.5374C10.9844 11.4208 10.8784 11.2092 10.8718 10.9983C10.8645 10.7957 10.8689 10.5889 10.9316 10.3942C10.9832 10.1951 11.0642 10.0028 11.1837 9.83433C11.3125 9.67817 11.4811 9.54641 11.6809 9.49739Z" fill="white"/>
<path d="M13.1258 9.49373C13.3068 9.5012 13.4853 9.46508 13.6656 9.456C13.8541 9.43664 14.0459 9.44491 14.2315 9.48385C14.3486 9.50907 14.4727 9.56072 14.5376 9.66705C14.6102 9.77399 14.5796 9.90977 14.5774 10.0304C14.5036 10.4475 14.4234 10.8637 14.3688 11.2838C14.3583 11.3867 14.3591 11.4906 14.3534 11.5939C14.2295 11.5941 14.1056 11.5943 13.9818 11.5939C13.982 11.4827 13.9968 11.3728 14.0083 11.2626C13.8803 11.4371 13.7014 11.5848 13.4829 11.6238C13.2843 11.6551 13.0723 11.6561 12.8847 11.575C12.751 11.5156 12.657 11.3811 12.6384 11.2374C12.6012 10.9941 12.6481 10.7259 12.8179 10.5391C12.9196 10.4134 13.0682 10.3361 13.2211 10.2905C13.2997 10.2675 13.3781 10.2368 13.4612 10.2356C13.685 10.2342 13.909 10.2368 14.1328 10.2322C14.1709 10.1319 14.1834 10.0187 14.1704 9.91199C14.129 9.78569 13.9867 9.74655 13.8686 9.73202C13.59 9.70478 13.3147 9.77217 13.0456 9.83512C13.0704 9.72092 13.1006 9.60773 13.1258 9.49373ZM13.2884 10.5661C13.1176 10.6724 13.0217 10.8833 13.0446 11.0814C13.0444 11.1668 13.0945 11.2487 13.162 11.2979C13.4335 11.4521 13.8114 11.3034 13.9386 11.0268C14.0162 10.8561 14.0599 10.6724 14.093 10.4886C13.9582 10.4675 13.8211 10.4842 13.6854 10.4783C13.5482 10.4709 13.4083 10.4985 13.2884 10.5661Z" fill="white"/>
<path d="M15.7875 9.48504C15.9268 9.42471 16.0886 9.44065 16.2246 9.50179C16.203 9.60287 16.1832 9.70436 16.171 9.80706C16.0516 9.76348 15.9204 9.76529 15.796 9.77921C15.6903 9.82623 15.5858 9.88978 15.5186 9.98643C15.4297 10.0994 15.3775 10.2364 15.3446 10.375C15.2811 10.6339 15.2441 10.8982 15.2018 11.1613C15.1808 11.3045 15.1479 11.4474 15.1557 11.5933C15.0088 11.5949 14.8618 11.5939 14.7148 11.5939C14.8565 10.8972 14.9851 10.1979 15.086 9.49432C15.2109 9.49452 15.3361 9.49412 15.4612 9.49473C15.444 9.60892 15.421 9.72211 15.4046 9.83631C15.5027 9.69326 15.6173 9.54436 15.7875 9.48504Z" fill="white"/>
<path d="M4.88253 9.49878C5.0277 9.49696 5.17285 9.49535 5.318 9.49353C5.2056 10.0159 5.11015 10.5419 5.02485 11.0695C4.99656 11.2434 4.96542 11.4172 4.94905 11.5927C4.80288 11.5955 4.65671 11.5935 4.51074 11.5941C4.65732 10.9 4.78165 10.2011 4.88253 9.49878Z" fill="white"/>
</svg>
