<svg width="20" height="20" viewBox="0 0 20 20" fill="none" xmlns="http://www.w3.org/2000/svg">
<rect width="20" height="20" fill="white"/>
<path d="M3.01902 2H20V14.3875C19.9767 14.7009 19.9299 15.0153 19.8233 15.3122C19.6003 15.9582 19.1563 16.5241 18.5839 16.8966C18.2631 17.1069 17.9028 17.2569 17.5273 17.3354C17.3419 17.3751 17.1525 17.3926 16.9638 17.407H0V5.01885C0.0116538 4.69494 0.0688948 4.37189 0.178749 4.06667C0.427421 3.3623 0.941046 2.75681 1.59349 2.39366C2.02742 2.14893 2.52151 2.01577 3.01902 2ZM1.74396 3.70985C1.34722 4.11328 1.11414 4.67301 1.11225 5.23942C1.11157 6.87318 1.11225 8.50709 1.11208 10.141C1.11465 10.3455 1.10694 10.5515 1.11585 10.7551C1.72305 11.0492 2.38612 11.2615 3.06701 11.2531C3.3659 11.2483 3.67763 11.164 3.89906 10.9541C4.11242 10.7566 4.21474 10.4621 4.21611 10.1757C4.21731 9.30674 4.21542 8.43789 4.21697 7.56915L4.22228 7.56007C4.85227 7.56333 5.48243 7.56058 6.11257 7.56075L6.12389 7.56658C6.12269 8.3616 6.12371 9.1568 6.12337 9.952C6.13417 10.2985 6.10451 10.6598 5.93486 10.9693C5.81217 11.2015 5.62074 11.3931 5.39863 11.5314C5.0982 11.7191 4.75287 11.8211 4.40634 11.8825C3.9419 11.963 3.46821 11.9714 2.99811 11.9532C2.35818 11.9253 1.72082 11.8345 1.09871 11.683C1.09923 13.242 1.09974 14.801 1.09837 16.3601C2.08038 16.3655 3.0629 16.3607 4.04507 16.3625C4.26135 16.3599 4.47918 16.3727 4.69357 16.3379C5.04662 16.2855 5.38595 16.1455 5.67386 15.9345C6.17017 15.5753 6.50606 15.0029 6.5724 14.3931C6.59451 14.2103 6.58509 14.0261 6.58714 13.8423C6.5868 10.2418 6.58749 6.64113 6.5868 3.04045C5.49906 3.03753 4.41131 3.03925 3.32357 3.0389C2.73505 3.03856 2.15321 3.28758 1.74396 3.70985ZM8.3676 3.33985C8.006 3.54945 7.70554 3.86307 7.51206 4.23359C7.34737 4.54722 7.26069 4.90111 7.25983 5.25535C7.25932 6.22571 7.26051 7.19589 7.25931 8.16623C7.32474 8.12611 7.38269 8.07011 7.44937 8.02931C7.77566 7.80994 8.15149 7.67523 8.53314 7.5892C8.91069 7.50506 9.29754 7.46718 9.68383 7.45621C10.0665 7.44747 10.4502 7.45673 10.8307 7.49991C11.2638 7.5491 11.6931 7.62879 12.1169 7.73023C12.1328 7.78063 12.1187 7.8408 12.1235 7.89497C12.121 8.15303 12.1287 8.4132 12.1198 8.67011C11.6526 8.43137 11.1477 8.25931 10.6245 8.2024C10.2082 8.15406 9.77189 8.16434 9.37977 8.32646C9.104 8.43891 8.86137 8.6384 8.71497 8.89937C8.53177 9.22091 8.49171 9.60583 8.53417 9.96846C8.57309 10.2974 8.71412 10.6211 8.96229 10.8456C9.25314 11.1138 9.65366 11.2283 10.0417 11.2473C10.3921 11.2619 10.7443 11.2214 11.0852 11.1403C11.4449 11.0559 11.7878 10.9138 12.1203 10.7551C12.1287 11.0639 12.1199 11.3751 12.1246 11.6849L12.116 11.6957C11.4758 11.8492 10.8216 11.9575 10.1621 11.9695C9.68743 11.9815 9.21029 11.9607 8.74189 11.8785C8.37291 11.8118 8.00737 11.7066 7.67457 11.5311C7.5268 11.4554 7.39074 11.358 7.25966 11.2579C7.26051 12.9673 7.25863 14.6768 7.26069 16.3861C8.35354 16.3868 9.44663 16.3865 10.5397 16.3865C11.0994 16.3853 11.6538 16.1599 12.0574 15.7722C12.4638 15.388 12.7155 14.8454 12.7434 14.2866C12.7508 14.0987 12.7453 13.9107 12.747 13.7229C12.7474 10.1628 12.7463 6.60274 12.7475 3.04267C12.6588 3.03376 12.5667 3.04147 12.4768 3.0389C11.477 3.0389 10.4773 3.03907 9.47749 3.03925C9.08966 3.03993 8.70246 3.14413 8.3676 3.33985ZM15.153 3.08997C14.8732 3.1503 14.6058 3.26718 14.3702 3.42965C13.9165 3.74036 13.5837 4.22417 13.4627 4.7611C13.3873 5.06307 13.407 5.37635 13.4048 5.68466C13.4046 6.31294 13.4048 6.94122 13.4046 7.5695C13.4307 7.58098 13.4607 7.57103 13.4888 7.57429C14.5342 7.57498 15.5798 7.57292 16.6252 7.57464C16.8336 7.58732 17.0446 7.60429 17.2444 7.66975C17.4706 7.74137 17.6861 7.87011 17.8276 8.06446C17.9998 8.29817 18.0415 8.61269 17.9671 8.89C17.9064 9.11771 17.7535 9.31634 17.5553 9.44251C17.3849 9.55474 17.1847 9.61029 16.9854 9.64234L16.9878 9.66034C17.0247 9.67234 17.0658 9.6684 17.1043 9.67577C17.4105 9.71326 17.7175 9.82211 17.9475 10.0331C18.1235 10.1925 18.2386 10.4187 18.2555 10.6564C18.2777 10.909 18.2019 11.1703 18.0398 11.3664C17.8346 11.6197 17.5217 11.763 17.2062 11.8197C16.9628 11.8658 16.7141 11.8487 16.4681 11.8519C15.4435 11.8521 14.419 11.8507 13.3945 11.8523C13.3919 12.9038 13.3942 13.9556 13.3935 15.0072C13.3959 15.4638 13.3883 15.9213 13.3973 16.3772C14.4953 16.3763 15.5935 16.3769 16.6917 16.3748C17.1196 16.369 17.5448 16.2358 17.8993 15.9955C18.4264 15.6435 18.7906 15.0569 18.8643 14.4264C18.8873 14.2612 18.8802 14.0941 18.8814 13.9278C18.8818 10.3009 18.8809 6.67403 18.8818 3.04713L18.871 3.03805C17.831 3.04062 16.7909 3.03787 15.7508 3.03822C15.5505 3.03513 15.3486 3.04456 15.153 3.08997ZM14.4945 8.23463C14.4934 8.59246 14.4938 8.95046 14.4945 9.30846C14.8775 9.31429 15.2617 9.3088 15.6454 9.31051C15.8221 9.31463 16.0084 9.24646 16.1193 9.10383C16.2242 8.97326 16.2537 8.79229 16.2137 8.63171C16.1774 8.47971 16.0651 8.34994 15.9225 8.28743C15.8099 8.23669 15.6835 8.23223 15.5618 8.2336C15.206 8.23446 14.8502 8.23154 14.4945 8.23463ZM14.4951 9.96914C14.4927 10.3602 14.4939 10.7515 14.4945 11.1426C14.9241 11.1463 15.3541 11.1431 15.7839 11.1434C15.8605 11.1347 15.9403 11.1397 16.0134 11.1102C16.1901 11.0477 16.3283 10.891 16.371 10.7088C16.4146 10.5357 16.3808 10.3419 16.2699 10.2005C16.1604 10.0581 15.9835 9.95954 15.8014 9.96914C15.3659 9.96914 14.9306 9.96914 14.4951 9.96914Z" fill="white"/>
<path d="M1.74398 3.70985C2.15323 3.28757 2.73506 3.03856 3.32358 3.03891C4.41133 3.03925 5.49907 3.03753 6.58681 3.04045C6.5875 6.64113 6.58681 10.2418 6.58715 13.8423C6.5851 14.0261 6.59453 14.2103 6.57241 14.3931C6.50613 15.0029 6.17018 15.5753 5.67389 15.9345C5.38597 16.1455 5.04663 16.2855 4.69359 16.3379C4.47919 16.3727 4.26137 16.3599 4.04509 16.3625C3.06291 16.3607 2.08039 16.3655 1.09839 16.3601C1.09976 14.801 1.09925 13.242 1.09873 11.683C1.72084 11.8345 2.3582 11.9253 2.99813 11.9532C3.46823 11.9714 3.94192 11.963 4.40636 11.8825C4.75289 11.8211 5.09822 11.7191 5.39865 11.5314C5.62075 11.3931 5.81218 11.2015 5.93487 10.9693C6.10458 10.6598 6.13418 10.2986 6.12344 9.952C6.12378 9.1568 6.12275 8.3616 6.12395 7.56658L6.11264 7.56076C5.48245 7.56059 4.85229 7.56333 4.2223 7.56007L4.21698 7.56915C4.21544 8.43788 4.21733 9.3068 4.21613 10.1757C4.21476 10.4621 4.11245 10.7566 3.89907 10.9541C3.67765 11.164 3.36591 11.2483 3.06703 11.2531C2.38614 11.2615 1.72307 11.0492 1.11587 10.7551C1.10696 10.5515 1.11467 10.3455 1.1121 10.141C1.11227 8.50714 1.11159 6.87318 1.11227 5.23942C1.11416 4.67301 1.34723 4.11328 1.74398 3.70985Z" fill="#005EA7"/>
<path d="M8.36762 3.33987C8.70248 3.14415 9.08962 3.03995 9.47745 3.03927C10.4773 3.0391 11.4769 3.03893 12.4768 3.03893C12.5668 3.0415 12.6588 3.03379 12.7476 3.0427C12.7464 6.60277 12.7474 10.1628 12.747 13.7229C12.7453 13.9108 12.7508 14.0988 12.7434 14.2866C12.7155 14.8454 12.4637 15.388 12.0574 15.7722C11.6538 16.1599 11.0994 16.3853 10.5397 16.3865C9.44659 16.3865 8.35356 16.3868 7.26065 16.3861C7.25859 14.6768 7.26048 12.9673 7.25962 11.258C7.39071 11.358 7.52682 11.4554 7.67453 11.5311C8.00733 11.7066 8.37293 11.8118 8.74191 11.8785C9.21025 11.9608 9.68739 11.9815 10.1621 11.9695C10.8216 11.9575 11.4757 11.8492 12.116 11.6957L12.1246 11.6849C12.12 11.3752 12.1287 11.064 12.1203 10.7551C11.7878 10.9138 11.4449 11.0559 11.0852 11.1404C10.7443 11.2214 10.3921 11.2619 10.0416 11.2473C9.65362 11.2283 9.25311 11.1138 8.96231 10.8456C8.71413 10.6211 8.57311 10.2974 8.53419 9.96847C8.49168 9.60585 8.53179 9.22093 8.71499 8.89945C8.86133 8.63842 9.10402 8.43893 9.37979 8.32647C9.77191 8.16436 10.2082 8.15408 10.6245 8.20242C11.1477 8.25933 11.6526 8.43139 12.1198 8.67013C12.1287 8.41322 12.121 8.15305 12.1236 7.89499C12.1188 7.84082 12.1328 7.78065 12.1169 7.73025C11.693 7.62882 11.2637 7.54913 10.8306 7.49994C10.4502 7.45675 10.0665 7.4475 9.68379 7.45623C9.29751 7.46721 8.91071 7.50508 8.53316 7.58923C8.15151 7.67526 7.77568 7.80996 7.44933 8.02933C7.38271 8.07013 7.32476 8.12613 7.25928 8.16625C7.26048 7.19591 7.25928 6.22573 7.25979 5.25538C7.26065 4.90114 7.34739 4.54724 7.51208 4.23362C7.70556 3.86309 8.00596 3.54947 8.36762 3.33987Z" fill="#D90736"/>
<path d="M15.1531 3.08995C15.3486 3.04454 15.5505 3.03511 15.7509 3.0382C16.791 3.03786 17.831 3.0406 18.871 3.03803L18.8818 3.04711C18.8809 6.67402 18.8818 10.3009 18.8814 13.9278C18.8802 14.0941 18.8873 14.2612 18.8643 14.4264C18.7906 15.0569 18.4264 15.6435 17.8993 15.9955C17.5449 16.2358 17.1197 16.369 16.6917 16.3748C15.5935 16.3768 14.4953 16.3763 13.3973 16.3772C13.3884 15.9213 13.3959 15.4638 13.3935 15.0072C13.3942 13.9556 13.392 12.9038 13.3946 11.8523C14.419 11.8507 15.4435 11.8521 16.4681 11.8519C16.7142 11.8487 16.9629 11.8658 17.2062 11.8197C17.5217 11.763 17.8346 11.6197 18.0398 11.3664C18.2019 11.1703 18.2777 10.909 18.2555 10.6564C18.2386 10.4187 18.1236 10.1924 17.9476 10.0331C17.7176 9.8221 17.4105 9.71324 17.1044 9.67575C17.0658 9.66838 17.0247 9.67232 16.9879 9.66032L16.9855 9.64232C17.1848 9.61027 17.385 9.55472 17.5553 9.4425C17.7536 9.31632 17.9065 9.1177 17.9671 8.88998C18.0415 8.61267 17.9998 8.29815 17.8276 8.06444C17.6861 7.8701 17.4706 7.74135 17.2444 7.66973C17.0446 7.60427 16.8336 7.5873 16.6252 7.57462C15.5798 7.5729 14.5342 7.57496 13.4888 7.57427C13.4607 7.57102 13.4307 7.58096 13.4046 7.56947C13.4048 6.9412 13.4046 6.31292 13.4048 5.68464C13.407 5.37633 13.3874 5.06305 13.4627 4.76108C13.5838 4.22415 13.9166 3.74034 14.3702 3.42963C14.6058 3.26716 14.8732 3.15028 15.1531 3.08995Z" fill="#44A936"/>
<path d="M14.4945 8.23465C14.8503 8.23156 15.2061 8.23448 15.5619 8.23362C15.6836 8.23225 15.81 8.23671 15.9227 8.28739C16.0652 8.34996 16.1775 8.47968 16.2138 8.63173C16.2537 8.79231 16.2243 8.97328 16.1194 9.10385C16.0085 9.24648 15.8222 9.31465 15.6455 9.31053C15.2618 9.30882 14.8776 9.31431 14.4945 9.30848C14.4939 8.95048 14.4935 8.59248 14.4945 8.23465Z" fill="#44A936"/>
<path d="M14.4951 9.96915C14.9306 9.96915 15.3659 9.96915 15.8013 9.96915C15.9836 9.95955 16.1604 10.0581 16.2699 10.2005C16.3808 10.3419 16.4145 10.5357 16.371 10.7088C16.3284 10.891 16.19 11.0477 16.0133 11.1102C15.9404 11.1397 15.8605 11.1347 15.7839 11.1434C15.3541 11.1431 14.9241 11.1464 14.4944 11.1426C14.4939 10.7515 14.4927 10.3602 14.4951 9.96915Z" fill="#44A936"/>
</svg>
