<svg width="20" height="20" viewBox="0 0 20 20" fill="none" xmlns="http://www.w3.org/2000/svg">
<rect width="20" height="20" fill="white"/>
<path d="M7.16333 12.891L8.17294 6.10934H9.80748L8.79792 12.891H7.16333Z" fill="#293688"/>
<path d="M14.6171 6.28468C14.2931 6.14722 13.7856 6 13.1518 6C11.5364 6 10.3985 6.92002 10.3887 8.23816C10.3797 9.2124 11.201 9.75581 11.8214 10.0804C12.4576 10.4122 12.6716 10.6251 12.6685 10.9216C12.6645 11.3761 12.1601 11.584 11.6902 11.584C11.036 11.5837 10.6882 11.4811 10.1514 11.228L9.94072 11.1199L9.71118 12.6381C10.0931 12.8275 10.7993 12.9917 11.5324 13C13.2506 12.9996 14.3664 12.091 14.3789 10.683C14.3852 9.91159 13.9495 9.32453 13.0064 8.84041C12.4349 8.5271 12.0849 8.31784 12.0887 7.99983C12.0887 7.71802 12.3851 7.41658 13.0249 7.41658C13.5595 7.40708 13.9468 7.53891 14.2487 7.67637L14.395 7.75454L14.6171 6.28468Z" fill="#293688"/>
<path d="M17.4037 6.10934C17.012 6.10934 16.7291 6.24542 16.557 6.68695L14.1345 12.8913H15.8651L16.2016 11.8521H18.2693L18.4614 12.8913H19.9999L18.6539 6.10953H17.4038L17.4037 6.10934ZM16.6608 10.4951C16.7958 10.1045 17.3118 8.5996 17.3118 8.5996C17.3025 8.61742 17.4461 8.20722 17.5287 7.95262L17.6393 8.53706C17.6393 8.53706 17.952 10.156 18.0177 10.4953H16.6608V10.4951Z" fill="#293688"/>
<path d="M4.18254 10.7581L4.03855 9.82843C3.74024 8.74468 2.81436 7.57207 1.77686 6.98451L3.22104 12.891H4.95205L7.54809 6.10934H5.81746L4.18254 10.7581Z" fill="#293688"/>
<path d="M0 6.10934V6.21891C2.05107 6.78001 3.47503 8.19872 4.03877 9.8285L3.44606 6.68814C3.34715 6.25899 3.0473 6.12428 2.69253 6.1094L0 6.10934Z" fill="#F7981D"/>
</svg>
