<svg width="51" height="25" viewBox="0 0 51 25" fill="none" xmlns="http://www.w3.org/2000/svg">
<g filter="url(#filter0_d)">
<path d="M20.5522 18.8082L22.4744 7.10291H25.5864L23.6643 18.8082H20.5522Z" fill="#EEF0FF"/>
<path d="M34.7422 7.40559C34.1255 7.16837 33.1593 6.91431 31.9526 6.91431C28.877 6.91431 26.7106 8.50228 26.692 10.7773C26.6749 12.4589 28.2384 13.3969 29.4197 13.9572C30.631 14.5298 31.0383 14.8973 31.0324 15.409C31.0249 16.1936 30.0646 16.5523 29.1698 16.5523C27.9244 16.5518 27.2624 16.3747 26.2402 15.9379L25.8392 15.7514L25.4021 18.3718C26.1292 18.6986 27.4737 18.9821 28.8695 18.9964C32.1406 18.9957 34.265 17.4274 34.2888 14.9972C34.3007 13.6658 33.4713 12.6525 31.6757 11.8169C30.5877 11.2761 29.9214 10.9149 29.9286 10.366C29.9286 9.8796 30.4929 9.35935 31.711 9.35935C32.7288 9.34295 33.4661 9.57045 34.0409 9.80767L34.3194 9.94268L34.7422 7.40559Z" fill="#EEF0FF"/>
<path d="M40.0481 7.10291C39.3025 7.10291 38.7638 7.33772 38.4361 8.09979L33.824 18.8086H37.1189L37.7595 17.0149H41.6961L42.0619 18.8086H44.9911L42.4284 7.10323H40.0482L40.0481 7.10291ZM38.6337 14.6727C38.8908 13.9987 39.8732 11.4011 39.8732 11.4011C39.8554 11.4319 40.129 10.7238 40.2861 10.2844L40.4967 11.2931C40.4967 11.2931 41.092 14.0873 41.217 14.6731H38.6337V14.6727Z" fill="#EEF0FF"/>
<path d="M14.8765 15.1267L14.6024 13.522C14.0344 11.6515 12.2717 9.62753 10.2964 8.61348L13.0459 18.8082H16.3416L21.2841 7.10291H17.9892L14.8765 15.1267Z" fill="#EEF0FF"/>
<path d="M6.91309 7.10291V7.29192C10.8181 8.26049 13.5291 10.7091 14.6024 13.5222L13.474 8.10187C13.2856 7.36112 12.7148 7.1287 12.0393 7.10301L6.91309 7.10291Z" fill="#EEF0FF"/>
</g>
<defs>
<filter id="filter0_d" x="0.913086" y="0.914307" width="50.078" height="24.0821" filterUnits="userSpaceOnUse" color-interpolation-filters="sRGB">
<feFlood flood-opacity="0" result="BackgroundImageFix"/>
<feColorMatrix in="SourceAlpha" type="matrix" values="0 0 0 0 0 0 0 0 0 0 0 0 0 0 0 0 0 0 127 0"/>
<feOffset/>
<feGaussianBlur stdDeviation="3"/>
<feColorMatrix type="matrix" values="0 0 0 0 0 0 0 0 0 0 0 0 0 0 0 0 0 0 0.1 0"/>
<feBlend mode="normal" in2="BackgroundImageFix" result="effect1_dropShadow"/>
<feBlend mode="normal" in="SourceGraphic" in2="effect1_dropShadow" result="shape"/>
</filter>
</defs>
</svg>
